SplineFontDB: 3.2
FontName: D-DIN-PRO-Heavy-Italic
FullName: D-DIN-PRO-Heavy-Italic
FamilyName: D-DIN-PRO
Weight: Heavy
Copyright: Copyright (c) CyberFei. All rights reserved
Version: 1.1.0
ItalicAngle: -13
UnderlinePosition: -150
UnderlineWidth: 50
Ascent: 831
Descent: 169
InvalidEm: 0
sfntRevision: 0x00010000
LayerCount: 2
Layer: 0 0 "Back" 1
Layer: 1 0 "Fore" 0
XUID: [1021 868 -1451673819 9719]
StyleMap: 0x0020
FSType: 4
OS2Version: 3
OS2_WeightWidthSlopeOnly: 0
OS2_UseTypoMetrics: 0
CreationTime: 1462909513
ModificationTime: 1778060079
PfmFamily: 17
TTFWeight: 900
TTFWidth: 5
LineGap: 86
VLineGap: 0
Panose: 2 11 8 4 3 2 2 3 2 4
OS2TypoAscent: 831
OS2TypoAOffset: 0
OS2TypoDescent: -169
OS2TypoDOffset: 0
OS2TypoLinegap: 86
OS2WinAscent: 902
OS2WinAOffset: 0
OS2WinDescent: 184
OS2WinDOffset: 0
HheadAscent: 831
HheadAOffset: 0
HheadDescent: -169
HheadDOffset: 0
OS2SubXSize: 650
OS2SubYSize: 600
OS2SubXOff: 0
OS2SubYOff: 75
OS2SupXSize: 650
OS2SupYSize: 600
OS2SupXOff: 0
OS2SupYOff: 350
OS2StrikeYSize: 50
OS2StrikeYPos: 312
OS2CapHeight: 690
OS2XHeight: 520
OS2Vendor: 'MONO'
OS2CodePages: 20000001.00000000
OS2UnicodeRanges: 8000006f.4000000a.00000000.00000000
Lookup: 1 0 0 "'aalt' Access All Alternates lookup 0" { "'aalt' Access All Alternates lookup 0 subtable"  } ['aalt' ('DFLT' <'dflt' > ) ]
Lookup: 1 0 0 "'sups' Superscript lookup 1" { "'sups' Superscript lookup 1 subtable" ("superior") } ['sups' ('DFLT' <'dflt' > ) ]
Lookup: 4 0 0 "'frac' Diagonal Fractions lookup 2" { "'frac' Diagonal Fractions lookup 2 subtable"  } ['frac' ('DFLT' <'dflt' > ) ]
Lookup: 6 0 0 "'ordn' Ordinals lookup 3" { "'ordn' Ordinals lookup 3 contextual 0"  "'ordn' Ordinals lookup 3 contextual 1"  } ['ordn' ('DFLT' <'dflt' > ) ]
Lookup: 4 0 0 "'dlig' Discretionary Ligatures lookup 4" { "'dlig' Discretionary Ligatures lookup 4 subtable"  } ['dlig' ('DFLT' <'dflt' > ) ]

StartChar: .notdef
Encoding: 65536 -1 0
Width: 603
GlyphClass: 1
Flags: MW
HStem: 0.166016 71.8203<108.172 379.387 108.172 434.625> 620.086 71.8203<234.71 505.925 234.71 234.71>
VStem: 103.731 71.8203 446.767 71.8193
LayerCount: 2
Fore
SplineSet
179.470703125 691.90625 m 1
 594.325195312 691.90625 l 1
 434.625 0.166015625 l 1
 19.7705078125 0.166015625 l 1
 179.470703125 691.90625 l 1
108.171875 71.986328125 m 1
 379.38671875 71.986328125 l 1
 505.924804688 620.0859375 l 1
 234.709960938 620.0859375 l 1
 108.171875 71.986328125 l 1
EndSplineSet
EndChar

StartChar: exclam
Encoding: 33 33 3
Width: 267
GlyphClass: 2
Flags: MW
HStem: 0.166016 162.54<17.6045 143.565 -19.9199 181.09> 671.906 20G<133.993 309.054 309.054 309.054>
VStem: 64.041 163.485 83.0039 125.56
LayerCount: 2
Fore
SplineSet
309.053710938 691.90625 m 1xd0
 174.78125 217.516601562 l 1
 49.2216796875 217.516601562 l 1
 133.993164062 691.90625 l 1
 309.053710938 691.90625 l 1xd0
17.6044921875 162.706054688 m 1xe0
 181.08984375 162.706054688 l 1
 143.565429688 0.166015625 l 1
 -19.919921875 0.166015625 l 1
 17.6044921875 162.706054688 l 1xe0
EndSplineSet
EndChar

StartChar: quotedbl
Encoding: 34 34 4
Width: 393
GlyphClass: 2
Flags: MW
HStem: 370.606 321.3<119.936 196.013 45.7578 270.19 224.363 224.363 224.363 270.19 298.541 373.673>
VStem: 44.1963 150.255 222.802 149.31
LayerCount: 2
Fore
SplineSet
119.935546875 691.90625 m 1
 270.190429688 691.90625 l 1
 196.012695312 370.606445312 l 1
 45.7578125 370.606445312 l 1
 119.935546875 691.90625 l 1
298.541015625 691.90625 m 1
 447.850585938 691.90625 l 1
 373.672851562 370.606445312 l 1
 224.36328125 370.606445312 l 1
 298.541015625 691.90625 l 1
EndSplineSet
EndChar

StartChar: numbersign
Encoding: 35 35 5
Width: 545
GlyphClass: 2
Flags: MW
HStem: 0.166016 21G<-17.0508 120.324 -17.0508 -17.0508 180.454 318.773 180.454 180.454> 192.946 126.63<15.0762 52.9707 -14.1582 98.8672 236.264 250.476 15.0762 190.346 434.509 477.242> 383.836 126.631<82.7715 122.466 53.5371 168.347 82.7715 259.862 305.71 319.971 503.216 544.938> 671.906 20G<233.86 371.224 371.224 371.224 431.365 568.729 568.729 568.729>
LayerCount: 2
Fore
SplineSet
574.171875 510.466796875 m 1
 544.9375 383.8359375 l 1
 457.5234375 383.8359375 l 1
 434.508789062 319.576171875 l 1
 506.4765625 319.576171875 l 1
 477.2421875 192.946289062 l 1
 388.795898438 192.946289062 l 1
 318.7734375 0.166015625 l 1
 180.454101562 0.166015625 l 1
 250.475585938 192.946289062 l 1
 190.345703125 192.946289062 l 1
 120.32421875 0.166015625 l 1
 -17.05078125 0.166015625 l 1
 52.970703125 192.946289062 l 1
 -14.158203125 192.946289062 l 1
 15.076171875 319.576171875 l 1
 98.8671875 319.576171875 l 1
 122.465820312 383.8359375 l 1
 53.537109375 383.8359375 l 1
 82.771484375 510.466796875 l 1
 168.346679688 510.466796875 l 1
 233.860351562 691.90625 l 1
 371.223632812 691.90625 l 1
 305.709960938 510.466796875 l 1
 365.8515625 510.466796875 l 1
 431.365234375 691.90625 l 1
 568.729492188 691.90625 l 1
 503.215820312 510.466796875 l 1
 574.171875 510.466796875 l 1
296.372070312 319.576171875 m 1
 319.970703125 383.8359375 l 1
 259.862304688 383.8359375 l 1
 236.263671875 319.576171875 l 1
 296.372070312 319.576171875 l 1
EndSplineSet
EndChar

StartChar: dollar
Encoding: 36 36 6
Width: 509
GlyphClass: 2
Flags: MW
HStem: -56.5332 224.91<200.104 231.588 94.5625 240.14> 530.312 208.845<278.263 321.351>
VStem: 49.8643 153.091 191.614 137.025 320.134 154.982
LayerCount: 2
Fore
SplineSet
204.125 285.865234375 m 2xc8
 113.770507812 302.694335938 46.56640625 349.559570312 74.5517578125 470.776367188 c 0
 86.1513671875 521.01953125 109.990234375 564.458007812 146.493164062 598.758789062 c 0
 178.633789062 628.959960938 217.055664062 649.4765625 260.078125 660.387695312 c 1
 278.262695312 739.15625 l 1
 415.288085938 739.15625 l 1
 396.821289062 659.1640625 l 1
 421.478515625 651.48046875 515.532226562 618.110351562 492.000976562 474.021484375 c 2
 488.5390625 452.821289062 l 1
 337.711914062 452.821289062 l 1
 344.252929688 500.27734375 348.393554688 530.311523438 294.307617188 530.311523438 c 0
 252.755859375 530.311523438 236.165039062 507.690429688 229.606445312 479.28125 c 0
 225.866210938 463.081054688 228.040039062 453.393554688 233.776367188 446.438476562 c 0
 239.716796875 439.235351562 253.866210938 431.638671875 278.000976562 426.947265625 c 2
 329.353515625 416.57421875 l 2
 415.063476562 399.854492188 471.6328125 348.752929688 444.606445312 231.69140625 c 0xe8
 432.193359375 177.922851562 407.762695312 132.461914062 370.212890625 97.853515625 c 0
 337.278320312 67.5 297.650390625 47.064453125 253.008789062 36.2490234375 c 1
 231.587890625 -56.533203125 l 1
 94.5625 -56.533203125 l 1
 115.392578125 33.6923828125 l 1xd0
 68.37890625 44.470703125 -21.572265625 84.625 5.6328125 233.557617188 c 2
 9.435546875 254.372070312 l 1
 156.54296875 254.372070312 l 1
 153.17578125 223.994140625 150.205078125 197.209960938 163.33984375 182.86328125 c 0
 171.05859375 174.430664062 186.625976562 168.376953125 213.58203125 168.376953125 c 0
 266.698242188 168.376953125 280.977539062 194.237304688 287.442382812 222.2421875 c 0
 291.825195312 241.225585938 289.860351562 252.579101562 285.182617188 259.37890625 c 0
 280.34765625 266.404296875 269.112304688 273.387695312 248.375 277.377929688 c 0
 248.365234375 277.379882812 204.125 285.865234375 204.125 285.865234375 c 2xc8
224.02734375 672.0625 m 1024
EndSplineSet
EndChar

StartChar: percent
Encoding: 37 37 7
Width: 894
GlyphClass: 2
Flags: MW
HStem: 0.166016 21G<108.94 246.91 108.94 108.94> 677.576 21G
VStem: 46.0869 137.025 202.957 137.025 569.618 137.025 726.488 137.024
LayerCount: 2
Fore
SplineSet
167.142578125 249.646484375 m 0
 111.764648438 249.646484375 23.552734375 266.237304688 56.8115234375 410.295898438 c 2
 87.7919921875 544.486328125 l 2
 98.68359375 591.6640625 119.337890625 630.672851562 152.21875 658.009765625 c 0
 184.997070312 685.264648438 225.522460938 697.576171875 270.555664062 697.576171875 c 0
 333.440429688 697.576171875 412.125 676.325195312 381.6875 544.486328125 c 2
 350.70703125 410.295898438 l 2
 327.584960938 310.141601562 268.806640625 249.646484375 167.142578125 249.646484375 c 0
655.54296875 696.630859375 m 1
 794.515625 696.630859375 l 1
 246.91015625 0.166015625 l 1
 108.940429688 0.166015625 l 1
 655.54296875 696.630859375 l 1
189.110351562 374.328125 m 1
 189.055664062 374.415039062 l 1
 189.055664062 374.415039062 189.061523438 374.381835938 189.110351562 374.328125 c 1
214.772460938 415.022460938 m 2
 241.826171875 532.202148438 l 2
 247.08203125 554.967773438 248.260742188 570.03125 247.682617188 573.991210938 c 0
 247.127929688 574.241210938 245.611328125 574.7265625 242.193359375 574.7265625 c 0
 242.129882812 574.7265625 236.409179688 574.666992188 235.598632812 573.538085938 c 0
 233.2734375 570.012695312 227.2734375 555.126953125 221.98046875 532.201171875 c 2
 194.927734375 415.021484375 l 2
 189.825195312 392.91796875 188.696289062 378.247070312 189.287109375 374.189453125 c 0
 189.764648438 373.901367188 191.231445312 373.44140625 195.72265625 373.44140625 c 0
 198.8984375 373.44140625 201.114257812 373.836914062 202.265625 374.13671875 c 0
 204.53515625 378.857421875 209.821289062 393.573242188 214.772460938 415.022460938 c 2
631.767578125 -5.5029296875 m 0
 576.395507812 -5.5029296875 488.177734375 11.083984375 521.436523438 155.145507812 c 2
 552.416992188 289.334960938 l 2
 563.30859375 336.512695312 583.963867188 375.521484375 616.842773438 402.860351562 c 0
 649.622070312 430.115234375 690.147460938 442.426757812 735.180664062 442.426757812 c 0
 798.078125 442.426757812 876.747070312 421.166015625 846.311523438 289.336914062 c 2
 815.33203125 155.147460938 l 2
 792.208984375 54.9931640625 733.431640625 -5.5029296875 631.767578125 -5.5029296875 c 0
653.734375 119.176757812 m 1
 653.681640625 119.264648438 l 1
 653.681640625 119.264648438 653.686523438 119.231445312 653.734375 119.176757812 c 1
679.397460938 159.869140625 m 2
 706.450195312 277.049804688 l 2
 711.706054688 299.815429688 712.885742188 314.879882812 712.307617188 318.838867188 c 0
 711.752929688 319.088867188 710.235351562 319.57421875 706.818359375 319.57421875 c 0
 706.75390625 319.57421875 701.034179688 319.515625 700.223632812 318.38671875 c 0
 697.900390625 314.862304688 691.8984375 299.975585938 686.606445312 277.05078125 c 2
 659.552734375 159.870117188 l 2
 654.450195312 137.767578125 653.321289062 123.095703125 653.911132812 119.0390625 c 0
 654.389648438 118.750976562 655.856445312 118.290039062 660.34765625 118.290039062 c 0
 663.5234375 118.290039062 665.739257812 118.685546875 666.888671875 118.985351562 c 0
 669.16015625 123.706054688 674.4453125 138.420898438 679.397460938 159.869140625 c 2
EndSplineSet
EndChar

StartChar: ampersand
Encoding: 38 38 8
Width: 601
GlyphClass: 2
Flags: MW
HStem: -10.2295 140.805<177.428 196.468> 0.165039 140.807<396.029 518.159 477.528 485.651> 571.891 130.411<321.492 331.312>
VStem: 50.8086 151.201 98.0596 149.309 308.794 147.423
LayerCount: 2
Fore
SplineSet
495.084960938 532.201171875 m 0xac
 479.131835938 463.096679688 429.84375 414.266601562 355.666015625 360.051757812 c 1
 394.180664062 284.932617188 l 1
 474.227539062 362.407226562 l 1
 556.534179688 270.91015625 l 1
 452.431640625 169.736328125 l 1
 460.830078125 152.9375 466.811523438 140.971679688 477.528320312 140.971679688 c 2
 518.159179688 140.971679688 l 1
 485.651367188 0.1650390625 l 1
 420.446289062 0.1650390625 l 2x6c
 371.611328125 0.1650390625 350.603515625 16.6171875 329.188476562 53.0166015625 c 1
 288.873046875 20.8583984375 235.708007812 -10.2294921875 157.227539062 -10.2294921875 c 0
 98.625 -10.2294921875 54.0361328125 6.947265625 27.6552734375 43.126953125 c 0
 1.6318359375 78.818359375 -4.1005859375 126.006835938 8.7353515625 181.60546875 c 0xb4
 29.1865234375 270.188476562 91.0234375 330.265625 164.67578125 383.4609375 c 1
 134.661132812 447.622070312 125.73828125 483.731445312 136.709960938 531.255859375 c 0
 159.494140625 629.946289062 252.421875 702.301757812 355.75 702.301757812 c 0
 462.82421875 702.301757812 516.868164062 626.552734375 495.084960938 532.201171875 c 0xac
326.584960938 571.890625 m 0
 316.3984375 571.890625 294.502929688 568.006835938 287.109375 535.98046875 c 0
 282.833984375 517.463867188 286.788085938 502.921875 299.240234375 474.8359375 c 1
 329.174804688 497.788085938 343.204101562 512.891601562 348.53515625 535.98046875 c 0
 351.41796875 548.46875 349.989257812 556.494140625 345.7109375 562.801757812 c 0
 341.397460938 569.161132812 336.038085938 571.890625 326.584960938 571.890625 c 0
221.923828125 266.375 m 1
 190.0546875 241.145507812 168.356445312 218.076171875 161.900390625 190.110351562 c 0
 156.283203125 165.780273438 155.672851562 130.575195312 199.18359375 130.575195312 c 0xb4
 222.357421875 130.575195312 240.981445312 140.111328125 271.849609375 166.724609375 c 1
 221.923828125 266.375 l 1
EndSplineSet
EndChar

StartChar: quotesingle
Encoding: 39 39 9
Width: 213
GlyphClass: 2
Flags: MW
HStem: 370.606 321.3<119.936 196.013 45.7578 270.19>
VStem: 44.1963 150.255
LayerCount: 2
Fore
SplineSet
119.935546875 691.90625 m 1
 270.190429688 691.90625 l 1
 196.012695312 370.606445312 l 1
 45.7578125 370.606445312 l 1
 119.935546875 691.90625 l 1
EndSplineSet
EndChar

StartChar: parenleft
Encoding: 40 40 10
Width: 325
GlyphClass: 2
Flags: MW
VStem: 50.8115 155.925
LayerCount: 2
Fore
SplineSet
42.9921875 329.971679688 m 0
 92.7490234375 545.495117188 217.770507812 682.991210938 269.783203125 739.157226562 c 1
 397.467773438 739.157226562 l 1
 354.853515625 681.267578125 311.7578125 622.724609375 266.659179688 525.33984375 c 0
 236.536132812 460.291015625 213.973632812 395.192382812 198.916992188 329.97265625 c 0
 190.158203125 292.036132812 153.348632812 128.776367188 200.676757812 -50.5869140625 c 2
 208.23046875 -79.212890625 l 1
 79.7314453125 -79.212890625 l 1
 54.1708984375 -21.7119140625 -5.8603515625 118.370117188 42.9921875 329.971679688 c 0
EndSplineSet
EndChar

StartChar: parenright
Encoding: 41 41 11
Width: 325
GlyphClass: 2
Flags: MW
VStem: 142.477 155.925
LayerCount: 2
Fore
SplineSet
134.657226562 329.971679688 m 0
 153.67578125 412.352539062 174.771484375 557.918945312 132.9375 710.380859375 c 2
 125.041015625 739.155273438 l 1
 252.724609375 739.155273438 l 1
 278.775390625 683.049804688 340.348632812 545.53515625 290.581054688 329.970703125 c 0
 241.720703125 118.331054688 116.963867188 -21.771484375 64.9052734375 -79.2138671875 c 1
 -63.5927734375 -79.2138671875 l 1
 -42.8212890625 -50.587890625 l 2
 10.296875 22.6181640625 95.302734375 159.508789062 134.657226562 329.971679688 c 0
EndSplineSet
EndChar

StartChar: asterisk
Encoding: 42 42 12
Width: 389
GlyphClass: 2
Flags: MW
HStem: 367.771 324.135<229.556 259.618 154.724 334.45>
VStem: 153.816 104.895
LayerCount: 2
Fore
SplineSet
259.618164062 367.771484375 m 1
 154.723632812 367.771484375 l 1
 172.53515625 444.920898438 l 1
 103.211914062 409.627929688 l 1
 73.8759765625 495.104492188 l 1
 145.094726562 531.255859375 l 1
 90.5693359375 567.408203125 l 1
 159.239257812 652.71875 l 1
 212.529296875 618.15625 l 1
 229.555664062 691.90625 l 1
 334.450195312 691.90625 l 1
 317.293945312 617.591796875 l 1
 386.892578125 653.025390625 l 1
 414.736328125 567.270507812 l 1
 344 531.36328125 l 1
 399.543945312 495.060546875 l 1
 329.36328125 409.833984375 l 1
 277.249023438 444.139648438 l 1
 259.618164062 367.771484375 l 1
EndSplineSet
EndChar

StartChar: plus
Encoding: 43 43 13
Width: 535
GlyphClass: 2
Flags: MW
HStem: 207.121 147.42<51.499 168.665 17.4648 202.699 350.119 466.34 51.499 316.085>
VStem: 204.847 147.42
LayerCount: 2
Fore
SplineSet
316.084960938 207.12109375 m 1
 281.176757812 55.9208984375 l 1
 133.756835938 55.9208984375 l 1
 168.665039062 207.12109375 l 1
 17.46484375 207.12109375 l 1
 51.4990234375 354.541015625 l 1
 202.69921875 354.541015625 l 1
 237.606445312 505.741210938 l 1
 385.026367188 505.741210938 l 1
 350.119140625 354.541015625 l 1
 500.374023438 354.541015625 l 1
 466.33984375 207.12109375 l 1
 316.084960938 207.12109375 l 1
EndSplineSet
EndChar

StartChar: comma
Encoding: 44 44 14
Width: 213
GlyphClass: 2
Flags: MW
VStem: 44.1963 150.255
LayerCount: 2
Fore
SplineSet
-0.712890625 169.321289062 m 1
 149.541992188 169.321289062 l 1
 99.203125 -48.7236328125 l 1
 -80.404296875 -175.862304688 l 1
 -0.712890625 169.321289062 l 1
EndSplineSet
EndChar

StartChar: hyphen
Encoding: 45 45 15
Width: 378
GlyphClass: 2
Flags: MW
HStem: 272.326 148.365<63.9365 329.248 29.6836 363.501>
VStem: 50.8115 299.564
LayerCount: 2
Fore
SplineSet
63.9365234375 420.69140625 m 1
 363.500976562 420.69140625 l 1
 329.248046875 272.326171875 l 1
 29.68359375 272.326171875 l 1
 63.9365234375 420.69140625 l 1
EndSplineSet
EndChar

StartChar: period
Encoding: 46 46 16
Width: 234
GlyphClass: 2
Flags: MW
HStem: 0.166016 173.88<0.37793 131.28 -39.7646 171.423>
VStem: 44.1963 171.045
LayerCount: 2
Fore
SplineSet
0.3779296875 174.045898438 m 1
 171.422851562 174.045898438 l 1
 131.280273438 0.166015625 l 1
 -39.7646484375 0.166015625 l 1
 0.3779296875 174.045898438 l 1
EndSplineSet
EndChar

StartChar: slash
Encoding: 47 47 17
Width: 416
GlyphClass: 2
Flags: MW
HStem: 676.631 20G<332.102 471.855 471.855 471.855>
LayerCount: 2
Fore
SplineSet
332.1015625 696.630859375 m 1
 471.85546875 696.630859375 l 1
 96.6083984375 -9.283203125 l 1
 -42.14453125 -9.283203125 l 1
 332.1015625 696.630859375 l 1
EndSplineSet
EndChar

StartChar: zero
Encoding: 48 48 18
Width: 518
GlyphClass: 2
Flags: MW
HStem: -10.2285 147.42<206.566 229.296 206.566 276.282> 553.936 148.366<314.485 325.571>
VStem: 55.5361 164.431 321.08 163.486
LayerCount: 2
Fore
SplineSet
183.690429688 -10.228515625 m 0
 63.142578125 -10.228515625 -17.103515625 49.20703125 25.6806640625 234.526367188 c 2
 78.9150390625 465.106445312 l 2
 96.017578125 539.1875 126.88671875 598.598632812 174.07421875 640.419921875 c 0
 221.461914062 682.418945312 280.778320312 702.301757812 348.19140625 702.301757812 c 0
 430.373046875 702.301757812 556.68359375 676.21484375 507.9453125 465.106445312 c 2
 454.7109375 234.526367188 l 2
 430.8671875 131.24609375 368.873046875 -10.228515625 183.690429688 -10.228515625 c 0
293.625 244.920898438 m 2
 340.313476562 447.150390625 l 2
 350.790039062 492.530273438 352.303710938 522.891601562 348.458984375 536.341796875 c 0
 345.37109375 547.145507812 337.204101562 553.935546875 313.938476562 553.935546875 c 0
 290.649414062 553.935546875 279.680664062 547.170898438 271.936523438 536.575195312 c 0
 262.045898438 523.04296875 249.682617188 492.5546875 239.200195312 447.150390625 c 2
 192.51171875 244.920898438 l 2
 182.037109375 199.552734375 180.443359375 169.009765625 184.2890625 155.139648438 c 0
 187.431640625 143.806640625 195.40625 137.19140625 217.725585938 137.19140625 c 0
 240.866210938 137.19140625 252.153320312 143.9921875 260.392578125 155.139648438 c 0
 270.643554688 169.009765625 283.150390625 199.552734375 293.625 244.920898438 c 2
EndSplineSet
EndChar

StartChar: one
Encoding: 49 49 19
Width: 361
GlyphClass: 2
Flags: MW
HStem: 0.166016 21G<67.9658 231.45 67.9658 67.9658> 671.906 20G<240.899 391.15 391.15 391.15>
VStem: 151.927 163.484
LayerCount: 2
Fore
SplineSet
54.5302734375 416.787109375 m 1
 96.7734375 599.765625 l 1
 240.899414062 691.90625 l 1
 391.150390625 691.90625 l 1
 231.450195312 0.166015625 l 1
 67.9658203125 0.166015625 l 1
 182.4765625 496.166992188 l 1
 54.5302734375 416.787109375 l 1
EndSplineSet
Substitution2: "'sups' Superscript lookup 1 subtable" uni00B9
Substitution2: "'aalt' Access All Alternates lookup 0 subtable" uni00B9
EndChar

StartChar: two
Encoding: 50 50 20
Width: 501
GlyphClass: 2
Flags: MW
HStem: 0.166016 148.365<220.072 387.375> 557.717 144.585<292.245 326.111>
VStem: 50.8115 159.705 305.961 165.375
LayerCount: 2
Fore
SplineSet
340.630859375 702.301757812 m 0
 468.13671875 702.301757812 529.11328125 614.102539062 504.532226562 507.630859375 c 2
 500.823242188 491.56640625 l 2
 491.03515625 449.168945312 470.357421875 398.015625 399.24609375 327.31640625 c 0
 399.21875 327.2890625 279.125976562 207.45703125 220.072265625 148.53125 c 1
 421.626953125 148.53125 l 1
 387.375 0.166015625 l 1
 -30.314453125 0.166015625 l 1
 -1.4833984375 125.048828125 l 1
 284.939453125 410.92578125 l 2
 314.06640625 440.799804688 329.854492188 467.338867188 335.23046875 490.62109375 c 2
 338.284179688 503.8515625 l 2
 340.708007812 514.348632812 349.696289062 557.716796875 302.526367188 557.716796875 c 0
 281.963867188 557.716796875 253.090820312 548.25390625 241.749023438 499.125976562 c 2
 233.676757812 464.161132812 l 1
 73.9716796875 464.161132812 l 1
 83.7900390625 506.686523438 l 2
 109.771484375 619.227539062 210.079101562 702.301757812 340.630859375 702.301757812 c 0
EndSplineSet
Substitution2: "'sups' Superscript lookup 1 subtable" uni00B2
Substitution2: "'aalt' Access All Alternates lookup 0 subtable" uni00B2
EndChar

StartChar: three
Encoding: 51 51 21
Width: 511
GlyphClass: 2
Flags: MW
HStem: -10.2285 144.586<184.025 218.002 184.025 235.13> 283.667 144.585<214.045 233.585 180.665 266.02> 557.717 144.585<309.638 322.933>
VStem: 50.8086 154.979 306.904 159.706 317.299 159.707
LayerCount: 2
Fore
SplineSet
438.860351562 198.616210938 m 2xf4
 407.690429688 63.6064453125 293.184570312 -10.228515625 177.076171875 -10.228515625 c 0
 112.90625 -10.228515625 63.8232421875 5.18359375 33.1123046875 38.576171875 c 0
 2.2021484375 72.1865234375 -5.478515625 120.03515625 7.86328125 177.827148438 c 2
 17.0263671875 217.517578125 l 1
 172.005859375 217.517578125 l 1
 164.15234375 183.497070312 l 2
 158.821289062 160.409179688 159.486328125 134.357421875 208.563476562 134.357421875 c 0
 227.440429688 134.357421875 240.923828125 139.91015625 252.770507812 150.424804688 c 0
 264.8046875 161.106445312 273.984375 176.228515625 279.153320312 198.6171875 c 2
 283.080078125 215.626953125 l 2xf4
 296.015625 271.655273438 267.118164062 283.666992188 233.584960938 283.666992188 c 2
 180.665039062 283.666992188 l 1
 214.044921875 428.251953125 l 1
 266.01953125 428.251953125 l 2
 295.153320312 428.251953125 324.680664062 440.838867188 335.30078125 486.841796875 c 2
 338.573242188 501.017578125 l 2
 344.454101562 526.489257812 343.340820312 557.716796875 302.524414062 557.716796875 c 0
 285.840820312 557.716796875 252.556640625 554.135742188 242.038085938 508.576171875 c 2
 233.748046875 472.666015625 l 1
 80.658203125 472.666015625 l 1
 88.9482421875 508.576171875 l 2
 102.533203125 567.419921875 132.002929688 616.274414062 177.875 651.202148438 c 0
 223.54296875 685.973632812 278.646484375 702.301757812 340.62890625 702.301757812 c 0
 401.533203125 702.301757812 448.32421875 685.500976562 477.379882812 650.052734375 c 0
 506.333984375 614.7265625 513.516601562 567.015625 500.4609375 510.466796875 c 2
 497.188476562 496.291015625 l 2xf8
 489.633789062 463.568359375 468.469726562 409.379882812 409.21875 368.41796875 c 1
 434.3671875 347.25390625 462.994140625 303.153320312 443.005859375 216.571289062 c 2
 438.860351562 198.616210938 l 2xf4
EndSplineSet
Substitution2: "'sups' Superscript lookup 1 subtable" uni00B3
Substitution2: "'aalt' Access All Alternates lookup 0 subtable" uni00B3
EndChar

StartChar: four
Encoding: 52 52 22
Width: 527
GlyphClass: 2
Flags: MW
HStem: 0.166016 21G<206.881 370.365 206.881 206.881> 104.116 148.365<189.255 230.879 428.616 447.283 189.255 394.363> 671.906 20G<309.962 476.869 476.869 476.869>
VStem: 290.842 163.484
LayerCount: 2
Fore
SplineSet
428.616210938 252.481445312 m 1
 481.536132812 252.481445312 l 1
 447.283203125 104.116210938 l 1
 394.36328125 104.116210938 l 1
 370.365234375 0.166015625 l 1
 206.880859375 0.166015625 l 1
 230.87890625 104.116210938 l 1
 -18.6015625 104.116210938 l 1
 12.001953125 236.673828125 l 1
 309.961914062 691.90625 l 1
 476.869140625 691.90625 l 1
 189.254882812 252.481445312 l 1
 265.131835938 252.481445312 l 1
 300.475585938 405.571289062 l 1
 463.959960938 405.571289062 l 1
 428.616210938 252.481445312 l 1
EndSplineSet
EndChar

StartChar: five
Encoding: 53 53 23
Width: 504
GlyphClass: 2
Flags: MW
HStem: -10.2285 144.584<186.276 205.056> 325.245 143.641<237.059 368.37> 546.375 145.53<253.601 499.301 253.601 253.601>
VStem: 64.9854 146.475 310.686 159.706
LayerCount: 2
Fore
SplineSet
308.477539062 468.885742188 m 0
 428.262695312 468.885742188 477.42578125 394.309570312 446.645507812 260.985351562 c 2
 432.463867188 199.560546875 l 2
 417.791015625 136.00390625 387.474609375 83.494140625 340.481445312 45.60546875 c 0
 293.553710938 7.7705078125 236.817382812 -10.228515625 173.294921875 -10.228515625 c 0
 113.338867188 -10.228515625 66.775390625 4.875 36.6484375 37.0693359375 c 0
 6.2265625 69.578125 -1.8251953125 115.381835938 10.845703125 170.265625 c 2
 18.69921875 204.28515625 l 1
 171.7890625 204.28515625 l 1
 165.8984375 178.770507812 l 2
 160.762695312 156.525390625 165.877929688 134.35546875 206.673828125 134.35546875 c 0
 226.309570312 134.35546875 238.290039062 140.01953125 247.740234375 149.60546875 c 0
 258.0546875 160.06640625 267.7890625 178.0390625 274.06640625 205.229492188 c 2
 285.411132812 254.369140625 l 2
 292.024414062 283.013671875 290.424804688 301.159179688 285.159179688 310.623046875 c 0
 280.22265625 319.499023438 270.462890625 325.245117188 249.798828125 325.245117188 c 0
 224.318359375 325.245117188 207.334960938 313.313476562 193.295898438 292.595703125 c 2
 185.322265625 280.830078125 l 1
 45.8203125 280.830078125 l 1
 140.724609375 691.905273438 l 1
 532.899414062 691.905273438 l 1
 499.30078125 546.375 l 1
 253.600585938 546.375 l 1
 232.291992188 454.07421875 l 1
 256.473632812 463.99609375 282.053710938 468.885742188 308.477539062 468.885742188 c 0
EndSplineSet
EndChar

StartChar: six
Encoding: 54 54 24
Width: 522
GlyphClass: 2
Flags: MW
HStem: -10.2285 144.584<195.006 217.741> 671.905 20G<326.123 501.113 501.113 501.113>
VStem: 50.8105 164.431 329.585 163.487
LayerCount: 2
Fore
SplineSet
13.537109375 202.395507812 m 2
 20.30078125 231.690429688 l 2
 29.146484375 270.00390625 44.1904296875 313.740234375 101.642578125 390.801757812 c 2
 326.123046875 691.905273438 l 1
 501.11328125 691.905273438 l 1
 311.900390625 437.38671875 l 1
 315.272460938 437.596679688 318.663085938 437.700195312 322.069335938 437.700195312 c 0
 377.436523438 437.700195312 420.0546875 419.588867188 446.215820312 382.787109375 c 0
 472.434570312 345.904296875 477.426757812 296.076171875 463.653320312 236.416015625 c 2
 456.671875 206.176757812 l 2
 441.498046875 140.452148438 408.9375 86.162109375 358.4140625 47.1328125 c 0
 308.422851562 8.5146484375 249.900390625 -10.228515625 185.581054688 -10.228515625 c 0
 119.045898438 -10.228515625 68.298828125 7.9580078125 37.0322265625 46.30078125 c 0
 5.7021484375 84.720703125 -1.330078125 137.998046875 13.537109375 202.395507812 c 2
218.958984375 134.35546875 m 0
 263.543945312 134.35546875 284.013671875 166.453125 291.875 200.504882812 c 2
 298.638671875 229.799804688 l 2
 305.6171875 260.028320312 303.451171875 295.005859375 256.047851562 295.005859375 c 0
 229.649414062 295.005859375 196.6953125 283.512695312 184.513671875 230.745117188 c 2
 177.313476562 199.560546875 l 2
 170.940429688 171.956054688 171.052734375 134.35546875 218.958984375 134.35546875 c 0
EndSplineSet
EndChar

StartChar: seven
Encoding: 55 55 25
Width: 465
GlyphClass: 2
Flags: MW
HStem: 0.166016 21G<-4.05176 163.127 -4.05176 -4.05176> 544.486 147.42<112.376 323.845 78.3418 527.23>
LayerCount: 2
Fore
SplineSet
527.23046875 691.90625 m 1
 496.965820312 560.81640625 l 1
 163.126953125 0.166015625 l 1
 -4.0517578125 0.166015625 l 1
 323.844726562 544.486328125 l 1
 78.341796875 544.486328125 l 1
 112.375976562 691.90625 l 1
 527.23046875 691.90625 l 1
EndSplineSet
EndChar

StartChar: eight
Encoding: 56 56 26
Width: 531
GlyphClass: 2
Flags: MW
HStem: -10.2285 144.586<213.251 233.777 213.251 252.99> 289.338 141.749<249.762 300.625> 557.717 144.585<313.332 421.029>
VStem: 55.5342 159.705 67.8203 158.759 326.749 158.762 338.09 158.761
LayerCount: 2
Fore
SplineSet
189.360351562 -10.228515625 m 0xe2
 58.375 -10.228515625 -10.8212890625 76.42578125 17.607421875 199.5625 c 2
 22.625 221.296875 l 2xf2
 29.1552734375 249.584960938 51.169921875 315.194335938 120.43359375 362.702148438 c 1
 102.58203125 383.125976562 81.4033203125 422.67578125 96.4345703125 487.786132812 c 2
 100.362304688 504.795898438 l 2
 116.079101562 572.873046875 164.102539062 638.247070312 238.715820312 675.63671875 c 0
 274.622070312 693.629882812 313.577148438 702.301757812 354.8046875 702.301757812 c 0
 487.252929688 702.301757812 542.15625 609.203125 518.052734375 504.795898438 c 2
 514.125 487.786132812 l 2xec
 507.420898438 458.744140625 487.909179688 405.361328125 431.768554688 362.67578125 c 1
 447.287109375 346.758789062 482.267578125 300.677734375 464.159179688 222.2421875 c 2
 459.141601562 200.506835938 l 2
 429.413085938 71.740234375 316.620117188 -10.228515625 189.360351562 -10.228515625 c 0xe2
355.145507812 486.841796875 m 2xec
 359.291015625 504.796875 l 2
 363.108398438 521.331054688 361.133789062 533.247070312 354.12109375 543.25 c 0
 347.358398438 552.897460938 337.608398438 557.716796875 321.423828125 557.716796875 c 0
 305.240234375 557.716796875 293.263671875 552.897460938 282.045898438 543.25 c 0
 270.416015625 533.247070312 262.938476562 521.331054688 259.12109375 504.796875 c 2
 254.975585938 486.841796875 l 2
 250.595703125 467.869140625 252.622070312 454.989257812 259.143554688 445.373046875 c 0
 265.48046875 436.029296875 275.192382812 431.086914062 292.188476562 431.086914062 c 0
 309.060546875 431.086914062 320.98828125 436.06640625 331.752929688 445.6796875 c 0
 343.084960938 455.80078125 350.9453125 468.647460938 355.145507812 486.841796875 c 2xec
300.598632812 201.452148438 m 2xf2
 305.834960938 224.131835938 l 2
 310.737304688 245.366210938 308.30859375 260.3359375 300.056640625 271.971679688 c 0
 291.959960938 283.390625 279.650390625 289.337890625 259.462890625 289.337890625 c 0
 240.060546875 289.337890625 225.046875 283.493164062 211.14453125 271.8203125 c 0
 197.256835938 260.157226562 187.864257812 245.266601562 182.984375 224.131835938 c 2
 177.748046875 201.452148438 l 2
 172.653320312 179.380859375 174.958984375 163.779296875 182.935546875 151.892578125 c 0
 190.602539062 140.469726562 202.818359375 134.357421875 223.68359375 134.357421875 c 0
 243.87109375 134.357421875 258.926757812 140.305664062 272.294921875 151.723632812 c 0
 285.678710938 163.153320312 295.349609375 178.713867188 300.598632812 201.452148438 c 2xf2
EndSplineSet
EndChar

StartChar: nine
Encoding: 57 57 27
Width: 522
GlyphClass: 2
Flags: MW
HStem: 0.166016 21G<34.5479 209.538 34.5479 34.5479> 557.718 144.584<317.92 340.654>
VStem: 50.8105 163.485 328.641 164.431
LayerCount: 2
Fore
SplineSet
213.591796875 254.372070312 m 0
 158.224609375 254.372070312 115.606445312 272.483398438 89.4453125 309.28515625 c 0
 63.2265625 346.16796875 58.2333984375 395.99609375 72.0078125 455.65625 c 2
 78.9892578125 485.896484375 l 2
 94.162109375 551.620117188 126.723632812 605.911132812 177.247070312 644.940429688 c 0
 227.23828125 683.55859375 285.760742188 702.301757812 350.080078125 702.301757812 c 0
 416.615234375 702.301757812 467.362304688 684.115234375 498.62890625 645.772460938 c 0
 529.958984375 607.3515625 536.989257812 554.073242188 522.122070312 489.676757812 c 2
 515.358398438 460.380859375 l 2
 506.87890625 423.650390625 491.58203125 378.483398438 434.018554688 301.270507812 c 2
 209.538085938 0.166015625 l 1
 34.5478515625 0.166015625 l 1
 223.759765625 254.686523438 l 1
 220.388671875 254.4765625 216.998046875 254.372070312 213.591796875 254.372070312 c 0
279.612304688 397.067382812 m 0
 306.024414062 397.067382812 338.966796875 408.569335938 351.146484375 461.328125 c 2
 358.346679688 492.513671875 l 2
 364.719726562 520.118164062 364.607421875 557.717773438 316.701171875 557.717773438 c 0
 272.115234375 557.717773438 251.64453125 525.619140625 243.783203125 491.568359375 c 2
 237.020507812 462.2734375 l 2
 230.041015625 432.043945312 232.208984375 397.067382812 279.612304688 397.067382812 c 0
EndSplineSet
EndChar

StartChar: colon
Encoding: 58 58 28
Width: 234
GlyphClass: 2
Flags: MW
HStem: 0.166016 173.88<0.37793 131.28 -39.7646 171.423> 319.576 173.88<74.1201 205.021 33.9766 245.165>
VStem: 44.1963 171.045
LayerCount: 2
Fore
SplineSet
0.3779296875 174.045898438 m 1
 171.422851562 174.045898438 l 1
 131.280273438 0.166015625 l 1
 -39.7646484375 0.166015625 l 1
 0.3779296875 174.045898438 l 1
74.1201171875 493.456054688 m 1
 245.165039062 493.456054688 l 1
 205.021484375 319.576171875 l 1
 33.9765625 319.576171875 l 1
 74.1201171875 493.456054688 l 1
164.259765625 511.411132812 m 1024
EndSplineSet
EndChar

StartChar: semicolon
Encoding: 59 59 29
Width: 234
GlyphClass: 2
Flags: MW
HStem: 319.576 173.88<74.1201 205.021 33.9766 245.165>
VStem: 44.1963 171.045 63.0967 150.255
LayerCount: 2
Fore
SplineSet
74.1201171875 493.456054688 m 1xc0
 245.165039062 493.456054688 l 1
 205.021484375 319.576171875 l 1
 33.9765625 319.576171875 l 1
 74.1201171875 493.456054688 l 1xc0
18.1875 169.321289062 m 1xa0
 168.442382812 169.321289062 l 1
 118.103515625 -48.7236328125 l 1
 -61.50390625 -175.862304688 l 1
 18.1875 169.321289062 l 1xa0
160.479492188 511.411132812 m 1024
EndSplineSet
EndChar

StartChar: less
Encoding: 60 60 30
Width: 535
GlyphClass: 2
Flags: W
LayerCount: 2
Fore
SplineSet
19.796875 217.225585938 m 1
 48.5185546875 341.630859375 l 1
 536.903320312 516.86328125 l 1
 501.944335938 365.435546875 l 1
 255.381835938 279.029296875 l 1
 462.235351562 193.438476562 l 1
 427.032226562 40.95703125 l 1
 19.796875 217.225585938 l 1
EndSplineSet
EndChar

StartChar: equal
Encoding: 61 61 31
Width: 535
GlyphClass: 2
Flags: MW
HStem: 108.842 146.475<28.5908 442.704 -5.22559 476.521> 306.347 146.475<74.1885 488.302 40.3721 522.118>
LayerCount: 2
Fore
SplineSet
74.1884765625 452.821289062 m 1
 522.118164062 452.821289062 l 1
 488.301757812 306.346679688 l 1
 40.3720703125 306.346679688 l 1
 74.1884765625 452.821289062 l 1
28.5908203125 255.31640625 m 1
 476.520507812 255.31640625 l 1
 442.704101562 108.841796875 l 1
 -5.2255859375 108.841796875 l 1
 28.5908203125 255.31640625 l 1
EndSplineSet
EndChar

StartChar: greater
Encoding: 62 62 32
Width: 535
GlyphClass: 2
Flags: W
LayerCount: 2
Fore
SplineSet
54.0146484375 365.435546875 m 1
 88.9736328125 516.86328125 l 1
 496.448242188 341.630859375 l 1
 467.7265625 217.225585938 l 1
 -20.8974609375 40.95703125 l 1
 14.3056640625 193.438476562 l 1
 260.678710938 279.029296875 l 1
 54.0146484375 365.435546875 l 1
EndSplineSet
EndChar

StartChar: question
Encoding: 63 63 33
Width: 460
GlyphClass: 2
Flags: MW
HStem: 0.166992 158.761<105.563 232.396 68.9111 269.049> 554.881 146.475<284.85 289.069>
VStem: 152.872 163.485 281.392 160.649
LayerCount: 2
Fore
SplineSet
315.840820312 701.35546875 m 0xd0
 439.041992188 701.35546875 501.478515625 621.296875 476.545898438 513.30078125 c 0
 465.340820312 464.766601562 440.568359375 425.641601562 392.776367188 376.596679688 c 2
 320.901367188 302.837890625 l 2
 297.8984375 279.670898438 291.330078125 267.72265625 285.412109375 242.0859375 c 2
 271.666992188 182.551757812 l 1
 114.796875 182.551757812 l 1
 130.504882812 250.591796875 l 2
 143.384765625 306.37890625 158.645507812 331.471679688 202.163085938 375.184570312 c 2
 269.575195312 442.2265625 l 2
 302.69140625 475.338867188 310.859375 491.48046875 315.024414062 509.521484375 c 0
 324.291992188 549.6640625 299.892578125 554.880859375 278.24609375 554.880859375 c 0
 258.9140625 554.880859375 247.985351562 549.829101562 241.158203125 543.490234375 c 0
 227.052734375 530.393554688 222.173828125 511.330078125 214.215820312 480.225585938 c 1
 60.244140625 480.225585938 l 1
 65.35546875 500.5 l 2
 81.1240234375 563.038085938 110.369140625 613.853515625 154.8203125 649.376953125 c 0
 199.215820312 684.858398438 253.858398438 701.35546875 315.840820312 701.35546875 c 0xd0
105.563476562 158.927734375 m 1xe0
 269.048828125 158.927734375 l 1
 232.396484375 0.1669921875 l 1
 68.9111328125 0.1669921875 l 1
 105.563476562 158.927734375 l 1xe0
EndSplineSet
EndChar

StartChar: at
Encoding: 64 64 34
Width: 865
GlyphClass: 2
Flags: MW
HStem: -128.354 134.191<289.835 389.478 277.956 395.306> 51.1963 126.631<578.6 614.817> 388.561 128.521<435.21 452.882> 565.279 134.187<480.953 527.716>
VStem: 50.8115 145.53 248.315 145.531 480.786 144.585 684.906 145.528
LayerCount: 2
Fore
SplineSet
518.581054688 699.465820312 m 0
 747.416992188 699.465820312 872.084960938 544.25 821.087890625 323.356445312 c 2
 805.815429688 257.206054688 l 2
 791.12109375 193.55859375 763.180664062 141.752929688 719.876953125 105.09765625 c 0
 677.661132812 69.3623046875 629.518554688 51.1962890625 578.705078125 51.1962890625 c 0
 578.494140625 51.1962890625 578.284179688 51.197265625 578.07421875 51.197265625 c 1
 608.166992188 -53.7353515625 l 1
 546.3359375 -85.66015625 463.147460938 -128.353515625 327.463867188 -128.353515625 c 0
 252.20703125 -128.353515625 188.1796875 -112.5859375 136.302734375 -80.6279296875 c 0
 84.5244140625 -48.73046875 48.3642578125 -3.5107421875 28.69140625 54.1171875 c 0
 8.96484375 111.90234375 7.9853515625 178.34375 25.1015625 252.48046875 c 2
 40.373046875 318.630859375 l 2
 57.4892578125 392.766601562 89.146484375 459.208007812 135.5546875 516.993164062 c 0
 181.836914062 574.62109375 238.875976562 619.841796875 305.3828125 651.739257812 c 0
 372.015625 683.697265625 443.32421875 699.465820312 518.581054688 699.465820312 c 0
591.588867188 217.517578125 m 2
 582.874023438 179.765625 599.864257812 177.827148438 608.885742188 177.827148438 c 0
 620.748046875 177.827148438 627.931640625 182.940429688 634.365234375 190.958984375 c 0
 642.5 201.09765625 652.416015625 223.112304688 660.069335938 256.262695312 c 2
 675.340820312 322.412109375 l 2
 681.997070312 351.241210938 698.786132812 433.100585938 655.682617188 495.137695312 c 1
 591.588867188 217.517578125 l 2
646.713867188 506.6875 m 1
 617.09765625 540.8984375 567.830078125 565.279296875 487.6015625 565.279296875 c 0
 408.866210938 565.279296875 344.868164062 543.067382812 292.471679688 500.266601562 c 0
 239.989257812 457.395507812 204.370117188 398.615234375 186.340820312 320.524414062 c 2
 170.850585938 253.428710938 l 2
 137.505859375 108.997070312 197.466796875 5.837890625 358.444335938 5.837890625 c 0
 420.51171875 5.837890625 476.622070312 15.8125 556.591796875 52.2880859375 c 1
 541.134765625 53.88671875 496.772460938 59.7431640625 470.994140625 97.6318359375 c 1
 436.50390625 66.1259765625 390.78515625 51.1962890625 338.67578125 51.1962890625 c 0
 264.225585938 51.1962890625 183.822265625 84.4931640625 220.206054688 242.0859375 c 2
 239.404296875 325.24609375 l 2
 246.870117188 357.583984375 284.453125 517.081054688 439.619140625 517.081054688 c 0
 468.26171875 517.081054688 493.318359375 510.755859375 513.28125 496.407226562 c 1
 515.655273438 506.6875 l 1
 646.713867188 506.6875 l 1
395.752929688 179.715820312 m 0
 408.923828125 179.715820312 438.27734375 179.715820312 453.331054688 244.920898438 c 2
 471.657226562 324.30078125 l 2
 476.930664062 347.142578125 476.584960938 362.986328125 473.193359375 372.342773438 c 0
 469.280273438 383.139648438 461.795898438 388.560546875 443.96875 388.560546875 c 0
 426.451171875 388.560546875 416.478515625 383.494140625 408.379882812 374.813476562 c 0
 398.805664062 364.552734375 390.307617188 348.514648438 384.935546875 325.245117188 c 2
 367.045898438 247.755859375 l 2
 361.009765625 221.608398438 361.827148438 203.864257812 366.328125 193.5390625 c 0
 370.069335938 184.953125 377.524414062 179.715820312 395.752929688 179.715820312 c 0
EndSplineSet
EndChar

StartChar: A
Encoding: 65 65 35
Width: 608
GlyphClass: 2
Flags: MW
HStem: 0.166016 21G<-80.1592 -80.1592 -80.1592 92.9414 367.124 367.124 367.124 541.208> 126.796 142.695<240.318 344.006 240.318 356.669 161.865 344.006> 671.906 20G<325.159 454.288 454.288 454.288>
AnchorPoint: "Anchor-0" 385 672 basechar 0
LayerCount: 2
Fore
SplineSet
-80.1591796875 0.166015625 m 1
 325.159179688 691.90625 l 1
 454.288085938 691.90625 l 1
 541.208007812 0.166015625 l 1
 367.124023438 0.166015625 l 1
 356.668945312 126.795898438 l 1
 161.865234375 126.795898438 l 1
 92.94140625 0.166015625 l 1
 -80.1591796875 0.166015625 l 1
240.318359375 269.491210938 m 1
 344.005859375 269.491210938 l 1
 329.837890625 434.024414062 l 1
 240.318359375 269.491210938 l 1
EndSplineSet
Substitution2: "Single Substitution lookup 6 subtable" ordfeminine
Substitution2: "'aalt' Access All Alternates lookup 0 subtable" ordfeminine
EndChar

StartChar: B
Encoding: 66 66 36
Width: 601
GlyphClass: 2
Flags: MW
HStem: 0.166016 147.421<177.599 261.689> 277.997 147.42<241.741 313.546 207.706 340.021> 544.487 147.419<269.23 367.511 269.23 269.23>
VStem: 64.04 163.485 392.9 164.43 402.351 163.484
LayerCount: 2
Fore
SplineSet
492.28515625 356.407226562 m 1xf8
 515.255859375 337.369140625 549.908203125 294.85546875 529.653320312 207.122070312 c 0xf4
 515.065429688 143.936523438 483.793945312 91.78515625 435.174804688 54.6083984375 c 0
 386.752929688 17.5810546875 328.064453125 0.166015625 261.689453125 0.166015625 c 2
 -19.9208984375 0.166015625 l 1
 139.779296875 691.90625 l 1
 410.995117188 691.90625 l 2
 477.811523438 691.90625 528.899414062 675.283203125 560.916015625 639.67578125 c 0
 593.184570312 603.788085938 600.928710938 552.688476562 586.599609375 490.62109375 c 0
 581.025390625 466.477539062 560.294921875 401.633789062 492.28515625 356.407226562 c 1xf8
420.424804688 483.0625 m 0xf8
 427.80859375 515.044921875 422.94921875 544.487304688 367.510742188 544.487304688 c 2
 269.23046875 544.487304688 l 1
 241.741210938 425.416992188 l 1
 340.021484375 425.416992188 l 2
 398.321289062 425.416992188 414.537109375 457.5625 420.424804688 483.0625 c 0xf8
283.438476562 147.586914062 m 2
 312.948242188 147.586914062 354.1875 155.225585938 368.1328125 215.627929688 c 0xf4
 379.666015625 265.5859375 350.799804688 277.997070312 313.545898438 277.997070312 c 2
 207.706054688 277.997070312 l 1
 177.598632812 147.586914062 l 1
 283.438476562 147.586914062 l 2
EndSplineSet
EndChar

StartChar: C
Encoding: 67 67 37
Width: 603
GlyphClass: 2
Flags: MW
HStem: -7.39355 150.255<246.499 264.781> 552.991 148.365<339.352 373.023>
VStem: 55.5361 164.431 404.241 161.595
LayerCount: 2
Fore
SplineSet
68.87890625 421.63671875 m 2
 88.8203125 508.010742188 150.076171875 701.356445312 392.38671875 701.356445312 c 0
 467.076171875 701.356445312 524.497070312 681.325195312 561.458984375 639.59765625 c 0
 598.803710938 597.438476562 607.909179688 537.896484375 591.104492188 465.106445312 c 2
 584.995117188 438.646484375 l 1
 421.509765625 438.646484375 l 1
 427.400390625 464.161132812 l 2
 434.223632812 493.713867188 430.834960938 514.430664062 419.392578125 529.626953125 c 0
 408.201171875 544.489257812 388.856445312 552.991210938 357.189453125 552.991210938 c 0
 321.513671875 552.991210938 297.665039062 542.526367188 280.12890625 524.290039062 c 0
 261.985351562 505.422851562 244.313476562 469.30078125 231.782226562 415.021484375 c 2
 199.275390625 274.216796875 l 2
 187.518554688 223.29296875 189.172851562 189.42578125 199.1796875 171.081054688 c 0
 208.950195312 153.169921875 228.604492188 142.861328125 264.393554688 142.861328125 c 0
 281.9140625 142.861328125 353.279296875 143.100585938 373.077148438 228.856445312 c 2
 379.404296875 256.26171875 l 1
 540.999023438 256.26171875 l 1
 534.889648438 229.801757812 l 2
 517.836914062 155.936523438 481.606445312 95.9130859375 425.353515625 53.9365234375 c 0
 369.662109375 12.37890625 302.693359375 -7.3935546875 226.869140625 -7.3935546875 c 0
 98.181640625 -7.3935546875 -17.2275390625 48.6669921875 34.408203125 272.326171875 c 2
 68.87890625 421.63671875 l 2
EndSplineSet
EndChar

StartChar: D
Encoding: 68 68 38
Width: 603
GlyphClass: 2
Flags: MW
HStem: 0.166016 147.42<177.599 225.78> 544.486 147.42<269.23 354.28 269.23 269.23>
VStem: 64.041 163.484 404.24 163.485
LayerCount: 2
Fore
SplineSet
139.780273438 691.90625 m 1
 389.259765625 691.90625 l 2
 465.389648438 691.90625 523.270507812 670.448242188 559.290039062 625.87890625 c 0
 596.33984375 580.036132812 600.943359375 507.7265625 579.104492188 413.130859375 c 2
 548.342773438 279.88671875 l 2
 526.483398438 185.205078125 487.879882812 112.662109375 428.640625 66.5654296875 c 0
 371.087890625 21.78125 302.544921875 0.166015625 225.780273438 0.166015625 c 2
 -19.919921875 0.166015625 l 1
 139.780273438 691.90625 l 1
262.6484375 147.5859375 m 2
 307.877929688 147.5859375 358.305664062 164.87890625 385.075195312 280.831054688 c 2
 414.091796875 406.516601562 l 2
 426.459960938 460.086914062 425.340820312 495.994140625 415.634765625 515.27734375 c 0
 406.094726562 534.233398438 387.655273438 544.486328125 354.280273438 544.486328125 c 2
 269.23046875 544.486328125 l 1
 177.598632812 147.5859375 l 1
 262.6484375 147.5859375 l 2
EndSplineSet
EndChar

StartChar: E
Encoding: 69 69 39
Width: 537
GlyphClass: 2
Flags: MW
HStem: 0.166016 147.42<177.6 433.681> 275.161 147.42<241.087 454.643 207.053 488.677> 544.486 147.42<269.231 559.347 269.231 269.231>
VStem: 64.041 163.485
AnchorPoint: "Anchor-0" 352 672 basechar 0
LayerCount: 2
Fore
SplineSet
177.599609375 147.5859375 m 1
 467.71484375 147.5859375 l 1
 433.680664062 0.166015625 l 1
 -19.919921875 0.166015625 l 1
 139.780273438 691.90625 l 1
 593.380859375 691.90625 l 1
 559.346679688 544.486328125 l 1
 269.231445312 544.486328125 l 1
 241.086914062 422.581054688 l 1
 488.676757812 422.581054688 l 1
 454.642578125 275.161132812 l 1
 207.052734375 275.161132812 l 1
 177.599609375 147.5859375 l 1
EndSplineSet
EndChar

StartChar: F
Encoding: 70 70 40
Width: 533
GlyphClass: 2
Flags: MW
HStem: 0.166016 21G<-19.9199 143.565 -19.9199 -19.9199> 269.491 147.42<205.743 488.313 239.778 454.278> 544.486 147.42<269.231 559.347 269.231 269.231>
VStem: 64.041 163.485
LayerCount: 2
Fore
SplineSet
205.743164062 269.491210938 m 1
 143.565429688 0.166015625 l 1
 -19.919921875 0.166015625 l 1
 139.780273438 691.90625 l 1
 593.380859375 691.90625 l 1
 559.346679688 544.486328125 l 1
 269.231445312 544.486328125 l 1
 239.778320312 416.911132812 l 1
 488.313476562 416.911132812 l 1
 454.278320312 269.491210938 l 1
 205.743164062 269.491210938 l 1
EndSplineSet
EndChar

StartChar: G
Encoding: 71 71 41
Width: 603
GlyphClass: 2
Flags: MW
HStem: -7.39355 150.255<248.951 284.557 248.951 329.044> 252.481 141.75<298.802 381.366 266.076 574.742> 552.991 148.365<339.352 373.023>
VStem: 55.5361 164.431 407.076 160.65
LayerCount: 2
Fore
SplineSet
68.87890625 421.63671875 m 2
 88.8203125 508.010742188 150.076171875 701.356445312 392.38671875 701.356445312 c 0
 467.041992188 701.356445312 524.470703125 681.51171875 561.518554688 640.125 c 0
 598.84765625 598.42578125 608.466796875 540.314453125 592.1953125 469.831054688 c 2
 586.0859375 443.37109375 l 1
 422.600585938 443.37109375 l 1
 428.709960938 469.831054688 l 2
 434.512695312 494.965820312 431.215820312 513.924804688 419.392578125 529.626953125 c 0
 408.201171875 544.489257812 388.856445312 552.991210938 357.189453125 552.991210938 c 0
 321.513671875 552.991210938 297.665039062 542.526367188 280.12890625 524.290039062 c 0
 261.985351562 505.422851562 244.313476562 469.30078125 231.782226562 415.021484375 c 2
 199.275390625 274.216796875 l 2
 187.375 222.670898438 189.3828125 188.875976562 199.81640625 170.961914062 c 0
 210.177734375 153.171875 230.673828125 142.861328125 267.228515625 142.861328125 c 0
 301.885742188 142.861328125 324.946289062 151.749023438 340.287109375 165.471679688 c 0
 356.310546875 179.803710938 370.194335938 204.08984375 378.748046875 241.141601562 c 2
 381.366210938 252.481445312 l 1
 266.076171875 252.481445312 l 1
 298.801757812 394.231445312 l 1
 574.7421875 394.231445312 l 1
 544.416992188 262.875976562 l 2
 513.305664062 128.122070312 431.219726562 -7.3935546875 226.869140625 -7.3935546875 c 0
 98.181640625 -7.3935546875 -17.2275390625 48.6669921875 34.408203125 272.326171875 c 2
 68.87890625 421.63671875 l 2
EndSplineSet
EndChar

StartChar: H
Encoding: 72 72 42
Width: 611
GlyphClass: 2
Flags: MW
HStem: 0.166016 21G<-19.9199 143.565 -19.9199 -19.9199 320.28 483.766 320.28 320.28> 276.106 147.42<241.306 383.985 207.271 418.021> 671.906 20G<139.78 303.266 303.266 303.266 479.98 643.466 643.466 643.466>
VStem: 64.041 163.485 404.241 163.485
LayerCount: 2
Fore
SplineSet
643.465820312 691.90625 m 1
 483.765625 0.166015625 l 1
 320.280273438 0.166015625 l 1
 383.985351562 276.106445312 l 1
 207.270507812 276.106445312 l 1
 143.565429688 0.166015625 l 1
 -19.919921875 0.166015625 l 1
 139.780273438 691.90625 l 1
 303.265625 691.90625 l 1
 241.305664062 423.526367188 l 1
 418.020507812 423.526367188 l 1
 479.98046875 691.90625 l 1
 643.465820312 691.90625 l 1
EndSplineSet
EndChar

StartChar: I
Encoding: 73 73 43
Width: 278
GlyphClass: 2
Flags: MW
HStem: 0.166016 21G<-14.25 149.235 -14.25 -14.25> 671.906 20G<145.45 308.936 308.936 308.936>
VStem: 69.7109 163.485
AnchorPoint: "Anchor-0" 221 672 basechar 0
LayerCount: 2
Fore
SplineSet
145.450195312 691.90625 m 1
 308.935546875 691.90625 l 1
 149.235351562 0.166015625 l 1
 -14.25 0.166015625 l 1
 145.450195312 691.90625 l 1
EndSplineSet
EndChar

StartChar: J
Encoding: 74 74 44
Width: 345
GlyphClass: 2
Flags: MW
HStem: 0.166016 148.365<-18.7422 46.2305 -52.9941 52.1328> 671.906 20G<210.655 375.086 375.086 375.086>
VStem: 134.916 164.431
LayerCount: 2
Fore
SplineSet
254.4375 169.321289062 m 2
 229.030273438 59.2705078125 148.740234375 0.166015625 46.23046875 0.166015625 c 2
 -52.994140625 0.166015625 l 1
 -18.7421875 148.53125 l 1
 52.1328125 148.53125 l 2
 69.087890625 148.53125 76.970703125 152.76953125 79.775390625 155.334960938 c 0
 83.0810546875 158.360351562 89.986328125 169.23046875 94.806640625 190.111328125 c 2
 210.655273438 691.90625 l 1
 375.0859375 691.90625 l 1
 254.4375 169.321289062 l 2
EndSplineSet
EndChar

StartChar: K
Encoding: 75 75 45
Width: 612
GlyphClass: 2
Flags: MW
HStem: 0.166016 21G<-19.9199 143.565 -19.9199 -19.9199 359.647 549.363 359.647 359.647> 671.906 20G<139.78 303.266 303.266 303.266 499.294 698.857 698.857 698.857>
VStem: 64.041 163.485
LayerCount: 2
Fore
SplineSet
359.647460938 0.166015625 m 1
 270.133789062 274.630859375 l 1
 188.650390625 195.452148438 l 1
 143.565429688 0.166015625 l 1
 -19.919921875 0.166015625 l 1
 139.780273438 691.90625 l 1
 303.265625 691.90625 l 1
 242.291992188 427.80078125 l 1
 499.293945312 691.90625 l 1
 698.857421875 691.90625 l 1
 407.329101562 408.512695312 l 1
 549.36328125 0.166015625 l 1
 359.647460938 0.166015625 l 1
EndSplineSet
EndChar

StartChar: L
Encoding: 76 76 46
Width: 522
GlyphClass: 2
Flags: MW
HStem: 0.166016 147.42<177.6 428.955> 671.906 20G<139.78 303.266 303.266 303.266>
VStem: 64.041 163.485
LayerCount: 2
Fore
SplineSet
139.780273438 691.90625 m 1
 303.265625 691.90625 l 1
 177.599609375 147.5859375 l 1
 462.989257812 147.5859375 l 1
 428.955078125 0.166015625 l 1
 -19.919921875 0.166015625 l 1
 139.780273438 691.90625 l 1
EndSplineSet
EndChar

StartChar: M
Encoding: 77 77 47
Width: 729
GlyphClass: 2
Flags: MW
HStem: 0.166016 21G<-19.9199 143.565 -19.9199 -19.9199 436.516 600 436.516 436.516> 671.906 20G<139.78 296.086 296.086 296.086 603.335 759.7 759.7 759.7>
VStem: 64.041 163.485 520.477 163.484
LayerCount: 2
Fore
SplineSet
759.700195312 691.90625 m 1
 600 0.166015625 l 1
 436.515625 0.166015625 l 1
 509.989257812 318.418945312 l 1
 374.131835938 125.8515625 l 1
 265.895507812 125.8515625 l 1
 217.7734375 321.598632812 l 1
 143.565429688 0.166015625 l 1
 -19.919921875 0.166015625 l 1
 139.780273438 691.90625 l 1
 296.0859375 691.90625 l 1
 373.8046875 359.34375 l 1
 603.334960938 691.90625 l 1
 759.700195312 691.90625 l 1
EndSplineSet
EndChar

StartChar: N
Encoding: 78 78 48
Width: 636
GlyphClass: 2
Flags: MW
HStem: 0.166016 21G<-19.9199 143.565 -19.9199 -19.9199 352.411 507.391 352.411 352.411> 671.906 20G<139.78 294.773 294.773 294.773 503.605 667.091 667.091 667.091>
VStem: 64.041 163.485 427.866 163.485
AnchorPoint: "Anchor-0" 398 672 basechar 0
LayerCount: 2
Fore
SplineSet
667.090820312 691.90625 m 1
 507.390625 0.166015625 l 1
 352.411132812 0.166015625 l 1
 225.379882812 354.545898438 l 1
 143.565429688 0.166015625 l 1
 -19.919921875 0.166015625 l 1
 139.780273438 691.90625 l 1
 294.7734375 691.90625 l 1
 421.606445312 336.727539062 l 1
 503.60546875 691.90625 l 1
 667.090820312 691.90625 l 1
EndSplineSet
EndChar

StartChar: O
Encoding: 79 79 49
Width: 603
GlyphClass: 2
Flags: MW
HStem: -7.39355 150.255<243.603 261.474> 552.991 148.365<338.361 372.931>
VStem: 55.5361 164.43 404.24 163.486
AnchorPoint: "Anchor-0" 382 672 basechar 0
LayerCount: 2
Fore
SplineSet
68.87890625 421.63671875 m 2
 88.5615234375 506.890625 149.3203125 701.356445312 390.49609375 701.356445312 c 0
 466.665039062 701.356445312 524.655273438 679.708007812 560.893554688 634.854492188 c 0
 598.15625 588.731445312 602.916992188 516.267578125 581.069335938 421.63671875 c 2
 546.598632812 272.326171875 l 2
 524.733398438 177.619140625 485.9375 105.037109375 426.358398438 58.955078125 c 0
 368.524414062 14.22265625 299.858398438 -7.3935546875 223.088867188 -7.3935546875 c 0
 96.419921875 -7.3935546875 -17.248046875 48.5791015625 34.408203125 272.326171875 c 2
 68.87890625 421.63671875 l 2
383.548828125 274.216796875 m 2
 416.055664062 415.021484375 l 2
 428.423828125 468.591796875 427.303710938 504.499023438 417.598632812 523.782226562 c 0
 408.05859375 542.73828125 389.618164062 552.991210938 356.243164062 552.991210938 c 0
 320.479492188 552.991210938 296.861328125 542.606445312 279.798828125 524.798828125 c 0
 262.122070312 506.348632812 244.475585938 470.0078125 231.78125 415.021484375 c 2
 199.274414062 274.216796875 l 2
 187.336914062 222.512695312 188.55859375 188.248046875 197.810546875 170.310546875 c 0
 206.692382812 153.090820312 225.6484375 142.861328125 261.557617188 142.861328125 c 0
 295.0859375 142.861328125 318.3046875 152.961914062 336.372070312 171.322265625 c 0
 354.856445312 190.104492188 371.942382812 223.946289062 383.548828125 274.216796875 c 2
EndSplineSet
Substitution2: "Single Substitution lookup 6 subtable" ordmasculine
Substitution2: "'aalt' Access All Alternates lookup 0 subtable" ordmasculine
EndChar

StartChar: P
Encoding: 80 80 50
Width: 571
GlyphClass: 2
Flags: MW
HStem: 0.166016 21G<-19.9199 143.565 -19.9199 -19.9199> 247.756 148.365<234.979 300.896 200.726 329.479> 544.486 147.42<269.231 363.731 269.231 269.231>
VStem: 64.041 163.485 397.626 163.485
LayerCount: 2
Fore
SplineSet
584.92578125 466.99609375 m 0
 569.97265625 402.224609375 536.528320312 347.8984375 484.764648438 307.5546875 c 0
 432.865234375 267.104492188 370.653320312 247.755859375 300.895507812 247.755859375 c 2
 200.725585938 247.755859375 l 1
 143.565429688 0.166015625 l 1
 -19.919921875 0.166015625 l 1
 139.780273438 691.90625 l 1
 403.435546875 691.90625 l 2
 473.23046875 691.90625 526.501953125 672.368164062 559.633789062 631.576171875 c 0
 592.818359375 590.71875 600.54296875 534.641601562 584.92578125 466.99609375 c 0
329.478515625 396.12109375 m 2
 363.76953125 396.12109375 407.890625 408.301757812 421.440429688 466.99609375 c 0
 428.965820312 499.588867188 429.655273438 544.486328125 363.731445312 544.486328125 c 2
 269.231445312 544.486328125 l 1
 234.978515625 396.12109375 l 1
 329.478515625 396.12109375 l 2
EndSplineSet
EndChar

StartChar: Q
Encoding: 81 81 51
Width: 603
GlyphClass: 2
Flags: MW
HStem: -7.39355 150.255<159.753 278.322> 552.991 148.365<338.361 372.931>
VStem: 55.5352 164.431 404.24 163.486
AnchorPoint: "Anchor-0" 382 672 basechar 0
LayerCount: 2
Fore
SplineSet
68.8779296875 421.63671875 m 2
 88.55859375 506.884765625 149.317382812 701.356445312 390.49609375 701.356445312 c 0
 466.665039062 701.356445312 524.655273438 679.708007812 560.893554688 634.854492188 c 0
 598.15625 588.731445312 602.916992188 516.267578125 581.069335938 421.63671875 c 2
 546.598632812 272.326171875 l 2
 523.51171875 172.329101562 479.30859375 95.5634765625 411.590820312 47.7236328125 c 1
 452.125 -81.4072265625 l 1
 306.413085938 -152.51953125 l 1
 260.5390625 -5.841796875 l 1
 248.385742188 -6.880859375 235.904296875 -7.3935546875 223.087890625 -7.3935546875 c 0
 96.4189453125 -7.3935546875 -17.2490234375 48.5791015625 34.4072265625 272.326171875 c 2
 68.8779296875 421.63671875 l 2
261.557617188 142.861328125 m 0
 295.0859375 142.861328125 318.3046875 152.961914062 336.372070312 171.322265625 c 0
 354.856445312 190.104492188 371.942382812 223.946289062 383.548828125 274.216796875 c 2
 416.055664062 415.021484375 l 2
 428.423828125 468.591796875 427.303710938 504.499023438 417.598632812 523.782226562 c 0
 408.05859375 542.73828125 389.618164062 552.991210938 356.243164062 552.991210938 c 0
 320.479492188 552.991210938 296.861328125 542.606445312 279.798828125 524.798828125 c 0
 262.122070312 506.348632812 244.475585938 470.0078125 231.78125 415.021484375 c 2
 199.274414062 274.216796875 l 2
 187.336914062 222.512695312 188.55859375 188.248046875 197.810546875 170.310546875 c 0
 206.692382812 153.090820312 225.6484375 142.861328125 261.557617188 142.861328125 c 0
EndSplineSet
EndChar

StartChar: R
Encoding: 82 82 52
Width: 603
GlyphClass: 2
Flags: MW
HStem: 0.166016 21G<327.498 514.933 327.498 327.498> 544.485 147.42<269.231 366.566 269.231 269.231>
VStem: 64.041 163.485 396.682 163.484
LayerCount: 2
Fore
SplineSet
586.380859375 477.390625 m 0
 573.7734375 422.784179688 537.921875 338.169921875 435.969726562 293.564453125 c 1
 514.932617188 0.166015625 l 1
 327.498046875 0.166015625 l 1
 264.790039062 264.766601562 l 1
 244.744140625 264.766601562 224.698242188 264.765625 204.65234375 264.765625 c 1
 143.564453125 0.1650390625 l 1
 -19.9208984375 0.1650390625 l 1
 139.780273438 691.905273438 l 1
 407.215820312 691.905273438 l 2
 474.48828125 691.905273438 526.356445312 673.16796875 559.502929688 634.182617188 c 0
 592.77734375 595.044921875 601.188476562 541.532226562 586.380859375 477.390625 c 0
334.930664062 407.459960938 m 2
 378.397460938 407.459960938 411.224609375 426.8359375 422.896484375 477.390625 c 0
 428.036132812 499.65234375 425.107421875 514.818359375 415.735351562 526.401367188 c 0
 406.4296875 537.90234375 391.245117188 544.485351562 366.56640625 544.485351562 c 2
 269.231445312 544.485351562 l 1
 237.595703125 407.459960938 l 1
 334.930664062 407.459960938 l 2
EndSplineSet
EndChar

StartChar: S
Encoding: 83 83 53
Width: 553
GlyphClass: 2
Flags: MW
HStem: -5.50391 145.533<217.406 232.354> 557.717 143.641<328.251 357.655>
VStem: 46.085 159.705 371.164 161.597
AnchorPoint: "Anchor-0" 356 672 basechar 0
LayerCount: 2
Fore
SplineSet
361.068359375 419.432617188 m 2
 414 409.504882812 535.65234375 376.369140625 498.760742188 216.571289062 c 0
 482.639648438 146.743164062 446.620117188 90.0009765625 390.486328125 51.017578125 c 0
 335.276367188 12.67578125 269.53125 -5.50390625 195.17578125 -5.50390625 c 0
 122.0234375 -5.50390625 66.408203125 12.8818359375 31.7392578125 52 c 0
 -2.96484375 91.158203125 -13.369140625 147.3984375 -1.919921875 217.126953125 c 2
 1.55859375 238.309570312 l 1
 157.509765625 238.309570312 l 1
 153.979492188 205.638671875 150.67578125 175.0625 168.235351562 157.920898438 c 0
 179.25 147.168945312 200.369140625 140.029296875 234.442382812 140.029296875 c 0
 313.2421875 140.029296875 328.48828125 178.994140625 334.764648438 206.178710938 c 0
 339.932617188 228.5625 337.284179688 242.251953125 330.3125 251.049804688 c 0
 322.946289062 260.346679688 306.9375 268.864257812 279.89453125 273.55078125 c 2
 220.931640625 283.934570312 l 2
 168.889648438 292.905273438 36.8427734375 323.810546875 74.044921875 484.952148438 c 0
 89.056640625 549.975585938 123.672851562 604.127929688 177.379882812 643.479492188 c 0
 230.72265625 682.564453125 293.411132812 701.357421875 363.091796875 701.357421875 c 0
 430.828125 701.357421875 482.924804688 683.231445312 516.068359375 645.1796875 c 0
 549.165039062 607.1796875 559.884765625 553.860351562 550.126953125 488.475585938 c 2
 546.921875 466.997070312 l 1
 387.62890625 466.997070312 l 1
 390.813476562 485.637695312 l 2
 398.529296875 530.7890625 387.26953125 557.716796875 328.040039062 557.716796875 c 0
 279.579101562 557.716796875 246.245117188 539.072265625 235.931640625 494.401367188 c 0
 230.920898438 472.697265625 229.528320312 444.259765625 294.889648438 431.723632812 c 0
 294.989257812 431.705078125 361.068359375 419.432617188 361.068359375 419.432617188 c 2
EndSplineSet
EndChar

StartChar: T
Encoding: 84 84 54
Width: 503
GlyphClass: 2
Flags: MW
HStem: 0.166016 21G<96.3154 260.745 96.3154 96.3154> 544.486 147.42<89.6953 221.981 55.6611 586.766 386.411 386.411 386.411 552.731>
VStem: 180.276 164.43
LayerCount: 2
Fore
SplineSet
221.981445312 544.486328125 m 1
 55.6611328125 544.486328125 l 1
 89.6953125 691.90625 l 1
 586.765625 691.90625 l 1
 552.731445312 544.486328125 l 1
 386.411132812 544.486328125 l 1
 260.745117188 0.166015625 l 1
 96.3154296875 0.166015625 l 1
 221.981445312 544.486328125 l 1
EndSplineSet
EndChar

StartChar: U
Encoding: 85 85 55
Width: 617
GlyphClass: 2
Flags: MW
HStem: -5.50391 147.421<251.076 281.054 251.076 306.715> 671.907 20G<139.781 303.267 303.267 303.267 483.762 648.191 648.191 648.191>
VStem: 64.042 163.485 408.022 164.43
AnchorPoint: "Anchor-0" 389 672 basechar 0
LayerCount: 2
Fore
SplineSet
232.032226562 -5.50390625 m 0
 86.7216796875 -5.50390625 1.5751953125 93.2705078125 34.4052734375 235.47265625 c 2
 139.78125 691.907226562 l 1
 303.266601562 691.907226562 l 1
 198.763671875 239.251953125 l 2
 190.967773438 205.484375 194.319335938 182.317382812 205.771484375 166.4765625 c 0
 217.30859375 150.518554688 236.084960938 141.916992188 266.067382812 141.916992188 c 0
 296.040039062 141.916992188 319.025390625 150.521484375 338.311523438 166.591796875 c 0
 357.346679688 182.453125 371.477539062 205.549804688 379.258789062 239.251953125 c 2
 483.76171875 691.907226562 l 1
 648.19140625 691.907226562 l 1
 542.815429688 235.47265625 l 2
 510.741210938 96.5419921875 381.3984375 -5.50390625 232.032226562 -5.50390625 c 0
EndSplineSet
EndChar

StartChar: V
Encoding: 86 86 56
Width: 559
GlyphClass: 2
Flags: MW
HStem: 0.166016 21G<141.345 269.562 141.345 141.345> 671.906 20G<80.4902 252.098 252.098 252.098 479.174 650.819 650.819 650.819>
LayerCount: 2
Fore
SplineSet
80.490234375 691.90625 m 1
 252.09765625 691.90625 l 1
 273.700195312 293.6875 l 1
 479.173828125 691.90625 l 1
 650.819335938 691.90625 l 1
 269.561523438 0.166015625 l 1
 141.344726562 0.166015625 l 1
 80.490234375 691.90625 l 1
EndSplineSet
EndChar

StartChar: W
Encoding: 87 87 57
Width: 826
GlyphClass: 2
Flags: MW
HStem: 0.166016 21G<93.0479 236.635 93.0479 93.0479 442.7 587.313 442.7 442.7> 671.906 20G<82.3193 247.504 247.504 247.504 409.016 595.199 595.199 595.199 755.733 912.43 912.43 912.43>
LayerCount: 2
Fore
SplineSet
442.700195312 0.166015625 m 1
 436.110351562 419.686523438 l 1
 236.634765625 0.166015625 l 1
 93.0478515625 0.166015625 l 1
 82.3193359375 691.90625 l 1
 247.50390625 691.90625 l 1
 240.860351562 308.216796875 l 1
 409.015625 691.90625 l 1
 595.19921875 691.90625 l 1
 590.137695312 308.670898438 l 1
 755.733398438 691.90625 l 1
 912.4296875 691.90625 l 1
 587.313476562 0.166015625 l 1
 442.700195312 0.166015625 l 1
EndSplineSet
EndChar

StartChar: X
Encoding: 88 88 58
Width: 596
GlyphClass: 2
Flags: MW
HStem: 0.166016 21G<-87.0664 -87.0664 -87.0664 100.46 341.57 341.57 341.57 535.792> 671.906 20G<87.6846 281.036 281.036 281.036 486.053 673.735 673.735 673.735>
LayerCount: 2
Fore
SplineSet
-87.06640625 0.166015625 m 1
 210.8828125 359.247070312 l 1
 87.6845703125 691.90625 l 1
 281.036132812 691.90625 l 1
 340.580078125 502.138671875 l 1
 486.052734375 691.90625 l 1
 673.735351562 691.90625 l 1
 401.890625 363.998046875 l 1
 535.791992188 0.166015625 l 1
 341.5703125 0.166015625 l 1
 272.5703125 219.749023438 l 1
 100.459960938 0.166015625 l 1
 -87.06640625 0.166015625 l 1
EndSplineSet
EndChar

StartChar: Y
Encoding: 89 89 59
Width: 547
GlyphClass: 2
Flags: MW
HStem: 0.166016 21G<118.051 281.535 118.051 118.051> 671.906 20G<75.7148 255.746 255.746 255.746 462.295 643.307 643.307 643.307>
VStem: 202.012 163.484
AnchorPoint: "Anchor-0" 354 672 basechar 0
LayerCount: 2
Fore
SplineSet
462.294921875 691.90625 m 1
 643.306640625 691.90625 l 1
 347.00390625 283.744140625 l 1
 281.53515625 0.166015625 l 1
 118.05078125 0.166015625 l 1
 183.303710938 282.80859375 l 1
 75.71484375 691.90625 l 1
 255.74609375 691.90625 l 1
 304.744140625 456.810546875 l 1
 462.294921875 691.90625 l 1
EndSplineSet
EndChar

StartChar: Z
Encoding: 90 90 60
Width: 512
GlyphClass: 2
Flags: MW
HStem: 0.166016 148.365<178.232 415.726> 544.486 147.42<118.046 342.46 84.0117 566.921>
AnchorPoint: "Anchor-0" 337 672 basechar 0
LayerCount: 2
Fore
SplineSet
449.977539062 148.53125 m 1
 415.725585938 0.166015625 l 1
 -47.32421875 0.166015625 l 1
 -16.3056640625 134.5234375 l 1
 342.459960938 544.486328125 l 1
 84.01171875 544.486328125 l 1
 118.045898438 691.90625 l 1
 566.920898438 691.90625 l 1
 536.124023438 558.510742188 l 1
 178.232421875 148.53125 l 1
 449.977539062 148.53125 l 1
EndSplineSet
EndChar

StartChar: bracketleft
Encoding: 91 91 61
Width: 330
GlyphClass: 2
Flags: MW
HStem: -79.2139 148.365<152.876 200.838> 591.736 148.365<273.524 355.739 273.524 273.524>
VStem: 64.041 156.87 64.041 239.085
LayerCount: 2
Fore
SplineSet
150.907226562 740.1015625 m 1xd0
 389.9921875 740.1015625 l 1
 355.739257812 591.736328125 l 1xd0
 273.524414062 591.736328125 l 1
 152.875976562 69.1513671875 l 1xe0
 235.090820312 69.1513671875 l 1
 200.837890625 -79.2138671875 l 1
 -38.2470703125 -79.2138671875 l 1
 150.907226562 740.1015625 l 1xd0
EndSplineSet
EndChar

StartChar: backslash
Encoding: 92 92 62
Width: 416
GlyphClass: 2
Flags: MW
HStem: 676.631 20G<120.792 259.581 259.581 259.581>
LayerCount: 2
Fore
SplineSet
259.581054688 696.630859375 m 1
 308.8828125 -9.283203125 l 1
 170.094726562 -9.283203125 l 1
 120.791992188 696.630859375 l 1
 259.581054688 696.630859375 l 1
EndSplineSet
EndChar

StartChar: bracketright
Encoding: 93 93 63
Width: 331
GlyphClass: 2
Flags: MW
HStem: -79.2139 148.365<-17.2236 65.9365 -17.2236 188.554 -51.4766 65.9365> 588.901 147.42<136.805 185.931 102.771 376.835>
VStem: 50.8115 240.03 133.972 156.87
LayerCount: 2
Fore
SplineSet
185.930664062 588.901367188 m 1xd0
 102.770507812 588.901367188 l 1
 136.8046875 736.321289062 l 1
 376.834960938 736.321289062 l 1
 188.553710938 -79.2138671875 l 1
 -51.4765625 -79.2138671875 l 1
 -17.2236328125 69.1513671875 l 1xe0
 65.9365234375 69.1513671875 l 1
 185.930664062 588.901367188 l 1xd0
EndSplineSet
EndChar

StartChar: asciicircum
Encoding: 94 94 64
Width: 535
GlyphClass: 2
Flags: MW
HStem: 676.631 20G<291.874 417.009 417.009 417.009>
LayerCount: 2
Fore
SplineSet
291.874023438 696.630859375 m 1
 417.008789062 696.630859375 l 1
 491.905273438 256.26171875 l 1
 351.682617188 256.26171875 l 1
 311.108398438 508.934570312 l 1
 153.866210938 256.26171875 l 1
 13.6435546875 256.26171875 l 1
 291.874023438 696.630859375 l 1
EndSplineSet
EndChar

StartChar: underscore
Encoding: 95 95 65
Width: 507
GlyphClass: 2
Flags: MW
HStem: -114.179 116.235<-75.2393 410.116 -102.074 436.951>
LayerCount: 2
Fore
SplineSet
-75.2392578125 2.056640625 m 1
 436.951171875 2.056640625 l 1
 410.116210938 -114.178710938 l 1
 -102.07421875 -114.178710938 l 1
 -75.2392578125 2.056640625 l 1
EndSplineSet
EndChar

StartChar: grave
Encoding: 96 96 66
Width: 507
GlyphClass: 2
Flags: MW
HStem: 555.826 165.375<314.879 369.56 181.466 465.669 314.879 314.879>
VStem: 98.9629 322.383
LayerCount: 2
Fore
SplineSet
181.465820312 721.201171875 m 1
 369.559570312 721.201171875 l 1
 465.668945312 555.826171875 l 1
 314.87890625 555.826171875 l 1
 181.465820312 721.201171875 l 1
EndSplineSet
EndChar

StartChar: a
Encoding: 97 97 67
Width: 508
GlyphClass: 2
Flags: MW
HStem: -5.50488 134.19<108.692 207.191> 209.955 120.017<187.395 306.646 222.541 278.937> 407.461 129.466<267.49 285.188>
VStem: 42.3057 153.088 314.464 155.925
AnchorPoint: "Anchor-0" 289 511 basechar 0
LayerCount: 2
Fore
SplineSet
311.009765625 348.87109375 m 2
 321.12890625 392.705078125 304.4296875 407.4609375 265.9453125 407.4609375 c 0
 247.155273438 407.4609375 233.759765625 402.879882812 223.649414062 395.670898438 c 0
 213.58203125 388.491210938 207.666015625 380.155273438 204.588867188 366.826171875 c 2
 199.353515625 344.146484375 l 1
 50.98828125 344.146484375 l 1
 56.4423828125 367.771484375 l 2
 68.2099609375 418.743164062 97.0419921875 461.634765625 141.62890625 492.291015625 c 0
 185.861328125 522.703125 238.19921875 536.926757812 296.78125 536.926757812 c 0
 362.11328125 536.926757812 411.733398438 521.598632812 442.217773438 488.059570312 c 0
 473.060546875 454.125976562 479.735351562 404.326171875 465.623046875 343.200195312 c 2
 386.426757812 0.1650390625 l 1
 233.336914062 0.1650390625 l 1
 237.901367188 19.9365234375 l 1
 213.375976562 5.88671875 183.963867188 -5.5048828125 135.638671875 -5.5048828125 c 0
 81.7451171875 -5.5048828125 40.3154296875 9.1884765625 15.2802734375 40.7841796875 c 0
 -9.68359375 72.2900390625 -14.98046875 115.708007812 -3.0390625 167.431640625 c 0
 17.7607421875 257.526367188 94.94921875 329.971679688 222.541015625 329.971679688 c 2
 306.646484375 329.971679688 l 1
 311.009765625 348.87109375 l 2
150.703125 170.265625 m 0
 146.4609375 151.892578125 144.55859375 128.685546875 193.078125 128.685546875 c 0
 221.3046875 128.685546875 238.86328125 135.395507812 248.844726562 143.807617188 c 0
 259.545898438 152.828125 269.412109375 168.703125 275.4453125 194.834960938 c 2
 278.936523438 209.955078125 l 1
 213.731445312 209.955078125 l 2
 161.05859375 209.955078125 154.08984375 184.9375 150.703125 170.265625 c 0
EndSplineSet
Substitution2: "Single Substitution lookup 6 subtable" ordfeminine
Substitution2: "'aalt' Access All Alternates lookup 0 subtable" ordfeminine
EndChar

StartChar: b
Encoding: 98 98 68
Width: 521
GlyphClass: 2
Flags: MW
HStem: -5.50391 143.641<206.103 235.794 202.569 250.322> 393.286 143.641<268.912 372.849> 671.906 20G<135.055 291.925 291.925 291.925>
VStem: 59.3154 154.035 335.256 156.87
LayerCount: 2
Fore
SplineSet
345.920898438 536.926757812 m 0
 399.776367188 536.926757812 441.4140625 518.02734375 467.47265625 480.461914062 c 0
 494.224609375 441.895507812 497.159179688 385.645507812 480.815429688 314.8515625 c 2
 458.34375 217.516601562 l 2
 441.997070312 146.7109375 413.052734375 90.3515625 368.502929688 51.5029296875 c 0
 325.317382812 13.84375 276.173828125 -5.50390625 224.470703125 -5.50390625 c 0
 187.735351562 -5.50390625 157.182617188 3.2890625 134.192382812 20.9716796875 c 1
 133.970703125 20.0107421875 l 1
 129.389648438 0.166015625 l 1
 -24.6455078125 0.166015625 l 1
 135.0546875 691.90625 l 1
 291.924804688 691.90625 l 1
 249.724609375 509.116210938 l 1
 279.422851562 527.462890625 311.924804688 536.926757812 345.920898438 536.926757812 c 0
227.391601562 138.13671875 m 0
 244.196289062 138.13671875 283.252929688 138.591796875 302.346679688 221.295898438 c 2
 322.854492188 310.125976562 l 2
 335.7265625 365.8828125 324.498046875 393.286132812 283.462890625 393.286132812 c 0
 254.360351562 393.286132812 218.510742188 378.006835938 202.838867188 310.125976562 c 2
 182.331054688 221.295898438 l 2
 171.948242188 176.326171875 177.747070312 138.13671875 227.391601562 138.13671875 c 0
EndSplineSet
EndChar

StartChar: c
Encoding: 99 99 69
Width: 512
GlyphClass: 2
Flags: MW
HStem: -5.50391 143.641<208.208 216.693> 393.286 143.641<277.364 303.938>
VStem: 50.8115 155.925 331.477 151.2
LayerCount: 2
Fore
SplineSet
219.833007812 138.13671875 m 0
 247.276367188 138.13671875 281.481445312 147.291015625 291.3671875 190.111328125 c 2
 297.2578125 215.625976562 l 1
 448.458007812 215.625976562 l 1
 442.349609375 189.166015625 l 2
 428.859375 130.732421875 398.73046875 81.890625 351.9375 46.48828125 c 0
 305.158203125 11.09765625 248.60546875 -5.50390625 184.78125 -5.50390625 c 0
 119.485351562 -5.50390625 69.3896484375 12.3798828125 38.009765625 49.9521484375 c 0
 5.8408203125 88.470703125 0.681640625 146.705078125 17.68359375 220.3515625 c 2
 38.8466796875 312.016601562 l 2
 55.7138671875 385.078125 87.7314453125 442.9921875 137.633789062 481.470703125 c 0
 186.361328125 519.041992188 244.715820312 536.926757812 310.01171875 536.926757812 c 0
 373.796875 536.926757812 422.681640625 520.517578125 453.209960938 485.474609375 c 0
 483.83984375 450.315429688 491.3125 401.25 477.693359375 342.255859375 c 2
 470.9296875 312.9609375 l 1
 319.729492188 312.9609375 l 1
 325.620117188 338.4765625 l 2
 330.940429688 361.51953125 329.135742188 393.286132812 278.739257812 393.286132812 c 0
 251.541015625 393.286132812 212.0625 386.913085938 194.334960938 310.125976562 c 2
 173.827148438 221.295898438 l 2
 165.748046875 186.302734375 168.416992188 165.43359375 175.458984375 155.501953125 c 0
 183.23828125 144.533203125 196.583007812 138.13671875 219.833007812 138.13671875 c 0
EndSplineSet
EndChar

StartChar: d
Encoding: 100 100 70
Width: 520
GlyphClass: 2
Flags: MW
HStem: -5.50391 143.641<121.8 219.021> 393.286 143.641<263.203 290.271 245.84 296.924> 671.906 20G<402.491 558.417 558.417 558.417>
VStem: 50.8115 156.87 326.752 155.926
LayerCount: 2
Fore
SplineSet
17.029296875 217.516601562 m 2
 39.5009765625 314.8515625 l 2
 55.8232421875 385.548828125 84.1357421875 441.639648438 127.633789062 480.232421875 c 0
 170.065429688 517.87890625 219.467773438 536.926757812 272.211914062 536.926757812 c 0
 308.329101562 536.926757812 338.095703125 527.44140625 360.202148438 508.73046875 c 1
 402.491210938 691.90625 l 1
 558.416992188 691.90625 l 1
 398.716796875 0.166015625 l 1
 244.681640625 0.166015625 l 1
 249.407226562 20.6357421875 l 1
 218.661132812 3.1650390625 184.379882812 -5.50390625 147.92578125 -5.50390625 c 0
 95.673828125 -5.50390625 55.220703125 13.7939453125 29.6923828125 51.578125 c 0
 3.4375 90.435546875 0.6904296875 146.743164062 17.029296875 217.516601562 c 2
211.328125 138.13671875 m 0
 226.712890625 138.13671875 274.900390625 139.254882812 293.841796875 221.295898438 c 2
 314.349609375 310.125976562 l 2
 324.276367188 353.125976562 320.779296875 393.286132812 273.069335938 393.286132812 c 0
 253.3359375 393.286132812 213.984375 391.143554688 195.280273438 310.125976562 c 2
 174.772460938 221.295898438 l 2
 155.6796875 138.596679688 194.517578125 138.13671875 211.328125 138.13671875 c 0
EndSplineSet
EndChar

StartChar: e
Encoding: 101 101 71
Width: 523
GlyphClass: 2
Flags: MW
HStem: -5.50488 140.806<215.185 222.85> 210.901 120.015<199.786 329.382 199.786 458.707 171.531 329.382> 397.066 139.859<279.397 297.535>
VStem: 50.8115 156.029
AnchorPoint: "Anchor-0" 304 511 basechar 0
LayerCount: 2
Fore
SplineSet
228.62890625 135.30078125 m 0
 259.516601562 135.30078125 285.53125 144.626953125 294 172.641601562 c 0
 294.453125 174.598632812 294.453125 174.598632812 305.337890625 193.890625 c 1
 451 193.890625 l 1
 445.327148438 169.3203125 l 2
 433.350585938 117.444335938 403.12109375 73.548828125 356.55078125 41.5 c 0
 309.963867188 9.439453125 254.3046875 -5.5048828125 191.395507812 -5.5048828125 c 0
 124.557617188 -5.5048828125 73.287109375 14.041015625 41.1396484375 54.4677734375 c 0
 8.2431640625 95.8349609375 3.24609375 157.8125 21.392578125 236.415039062 c 2
 35.1376953125 295.950195312 l 2
 52.8515625 372.678710938 85.63671875 433.755859375 136.120117188 475.642578125 c 0
 185.954101562 516.991210938 245.948242188 536.92578125 312.845703125 536.92578125 c 0
 378.637695312 536.92578125 428.857421875 516.706054688 459.747070312 475.171875 c 0
 491.076171875 433.045898438 495.930664062 372.131835938 478.342773438 295.951171875 c 2
 458.70703125 210.901367188 l 1
 171.53125 210.901367188 l 1
 165.56640625 180.89453125 168.95703125 162.859375 176.624023438 153.384765625 c 0
 185.7109375 142.151367188 201.741210938 135.30078125 228.62890625 135.30078125 c 0
329.381835938 330.916015625 m 1
 339.6015625 385.685546875 314.512695312 397.06640625 280.556640625 397.06640625 c 0
 256.55078125 397.06640625 239.9375 390.5625 227.219726562 379.700195312 c 0
 217.6171875 371.498046875 207.55078125 355.834960938 199.786132812 330.916015625 c 1
 329.381835938 330.916015625 l 1
EndSplineSet
EndChar

StartChar: f
Encoding: 102 102 72
Width: 348
GlyphClass: 2
Flags: MW
HStem: 0.166016 21G<10.3203 166.245 10.3203 10.3203> 409.352 121.904<80.957 104.788 52.8135 132.932 288.856 348.599> 572.836 119.07<325.945 327.751 327.751 386.342>
VStem: 94.2812 155.925
LayerCount: 2
Fore
SplineSet
292.12890625 545.431640625 m 2
 288.856445312 531.255859375 l 1
 376.7421875 531.255859375 l 1
 348.598632812 409.3515625 l 1
 260.712890625 409.3515625 l 1
 166.245117188 0.166015625 l 1
 10.3203125 0.166015625 l 1
 104.788085938 409.3515625 l 1
 52.8134765625 409.3515625 l 1
 80.95703125 531.255859375 l 1
 132.931640625 531.255859375 l 1
 135.11328125 540.706054688 l 2
 145.576171875 586.02734375 167.598632812 624.286132812 202.204101562 651.788085938 c 0
 236.853515625 679.326171875 279.057617188 691.90625 325.9453125 691.90625 c 2
 413.831054688 691.90625 l 1
 386.341796875 572.8359375 l 1
 327.750976562 572.8359375 l 2
 313.48828125 572.8359375 306.188476562 569.374023438 303.068359375 566.838867188 c 0
 299.524414062 563.958984375 295.045898438 558.06640625 292.12890625 545.431640625 c 2
EndSplineSet
EndChar

StartChar: g
Encoding: 103 103 73
Width: 520
GlyphClass: 2
Flags: MW
HStem: -154.813 132.3<162.693 176.69> 37.9668 143.64<131.836 229.06> 393.286 143.641<263.206 290.271 245.84 296.927>
VStem: 50.8115 156.873 326.754 155.924
LayerCount: 2
Fore
SplineSet
178.96484375 -22.513671875 m 0
 208.620117188 -22.513671875 241.424804688 -13.939453125 255.807617188 48.361328125 c 2
 259.442382812 64.10546875 l 1
 228.696289062 46.6357421875 194.416015625 37.966796875 157.961914062 37.966796875 c 0
 105.709960938 37.966796875 65.2568359375 57.263671875 39.7275390625 95.0478515625 c 0
 13.4736328125 133.90625 10.7265625 190.213867188 27.0654296875 260.986328125 c 2
 39.5009765625 314.8515625 l 2
 55.8232421875 385.548828125 84.1357421875 441.639648438 127.633789062 480.232421875 c 0
 170.065429688 517.87890625 219.467773438 536.926757812 272.211914062 536.926757812 c 0
 308.329101562 536.926757812 338.095703125 527.44140625 360.202148438 508.73046875 c 1
 365.40234375 531.255859375 l 1
 521.328125 531.255859375 l 1
 411.587890625 55.9208984375 l 2
 397.125976562 -6.720703125 365.759765625 -59.095703125 317.196289062 -97.6865234375 c 0
 268.486328125 -136.39453125 209.68359375 -154.813476562 143.696289062 -154.813476562 c 0
 83.58203125 -154.813476562 37.2373046875 -141.668945312 7.384765625 -112.732421875 c 0
 -22.3720703125 -83.8876953125 -32.970703125 -42.962890625 -25.0634765625 6.314453125 c 2
 -21.6533203125 27.5712890625 l 1
 128.234375 27.5712890625 l 1
 127.87890625 11.7880859375 l 2
 127.374023438 -10.5927734375 146.420898438 -22.513671875 178.96484375 -22.513671875 c 0
221.3671875 181.606445312 m 0
 236.751953125 181.606445312 284.939453125 182.725585938 303.879882812 264.766601562 c 2
 314.352539062 310.125976562 l 2
 324.279296875 353.125976562 320.78125 393.286132812 273.072265625 393.286132812 c 0
 253.338867188 393.286132812 213.987304688 391.143554688 195.283203125 310.125976562 c 2
 184.810546875 264.766601562 l 2
 165.717773438 182.06640625 204.556640625 181.606445312 221.3671875 181.606445312 c 0
EndSplineSet
EndChar

StartChar: h
Encoding: 104 104 74
Width: 526
GlyphClass: 2
Flags: MW
HStem: 0.166016 21G<-24.6445 132.226 -24.6445 -24.6445 247.516 247.516 247.516 404.386> 393.286 143.641<272.542 404.559> 671.906 20G<135.056 291.926 291.926 291.926>
VStem: 59.3164 156.87 331.477 156.87
LayerCount: 2
Fore
SplineSet
322.784179688 326.19140625 m 2
 327.401367188 346.19140625 334.973632812 393.286132812 281.57421875 393.286132812 c 0
 263.510742188 393.286132812 249.251953125 387.799804688 235.665039062 376.571289062 c 0
 222.987304688 366.094726562 213.094726562 350.450195312 207.494140625 326.19140625 c 2
 132.225585938 0.166015625 l 1
 -24.64453125 0.166015625 l 1
 135.055664062 691.90625 l 1
 291.92578125 691.90625 l 1
 250.119140625 510.821289062 l 1
 264.166015625 518.600585938 300.852539062 536.926757812 349.701171875 536.926757812 c 0
 459.416992188 536.926757812 511.73046875 465.12890625 482.926757812 340.366210938 c 2
 404.385742188 0.166015625 l 1
 247.515625 0.166015625 l 1
 322.784179688 326.19140625 l 2
EndSplineSet
EndChar

StartChar: i
Encoding: 105 105 75
Width: 259
GlyphClass: 2
Flags: MW
HStem: 0.166016 21G<-19.9199 136.006 -19.9199 -19.9199> 558.661 133.245<137.891 265.889 107.129 296.65>
VStem: 64.041 155.926
AnchorPoint: "Anchor-0" 174 511 basechar 0
LayerCount: 2
Fore
SplineSet
102.69140625 531.255859375 m 1
 258.6171875 531.255859375 l 1
 136.005859375 0.166015625 l 1
 -19.919921875 0.166015625 l 1
 102.69140625 531.255859375 l 1
137.890625 691.90625 m 1
 296.650390625 691.90625 l 1
 265.888671875 558.661132812 l 1
 107.12890625 558.661132812 l 1
 137.890625 691.90625 l 1
EndSplineSet
EndChar

StartChar: j
Encoding: 106 106 76
Width: 259
GlyphClass: 2
Flags: MW
HStem: -147.254 140.806<-108.387 -66.2402 -140.895 -48.8516> 558.661 133.245<136.945 264.944 106.184 295.706>
VStem: 64.041 155.926
LayerCount: 2
Fore
SplineSet
136.9453125 691.90625 m 1
 295.706054688 691.90625 l 1
 264.944335938 558.661132812 l 1
 106.18359375 558.661132812 l 1
 136.9453125 691.90625 l 1
-108.38671875 -6.4482421875 m 1
 -48.8515625 -6.4482421875 l 2
 -35.8017578125 -6.4482421875 -29.767578125 -3.10546875 -26.5615234375 -0.1591796875 c 0
 -23.056640625 3.0625 -17.1572265625 12.1357421875 -13.1572265625 29.4609375 c 2
 102.69140625 531.255859375 l 1
 258.6171875 531.255859375 l 1
 141.0234375 21.9013671875 l 2
 129.163085938 -29.47265625 105.2265625 -72.2041015625 67.6982421875 -102.693359375 c 0
 30.240234375 -133.125 -15.4287109375 -147.25390625 -66.240234375 -147.25390625 c 2
 -140.89453125 -147.25390625 l 1
 -108.38671875 -6.4482421875 l 1
EndSplineSet
EndChar

StartChar: k
Encoding: 107 107 77
Width: 526
GlyphClass: 2
Flags: MW
HStem: 0.166016 21G<-24.6445 132.226 -24.6445 -24.6445 269.001 457.698 269.001 269.001> 671.906 20G<135.056 291.926 291.926 291.926>
VStem: 59.3164 156.87
LayerCount: 2
Fore
SplineSet
269.000976562 0.166015625 m 1
 205.172851562 191.637695312 l 1
 168.708007812 158.19140625 l 1
 132.225585938 0.166015625 l 1
 -24.64453125 0.166015625 l 1
 135.055664062 691.90625 l 1
 291.92578125 691.90625 l 1
 216.482421875 365.125976562 l 1
 384.049804688 531.255859375 l 1
 575.900390625 531.255859375 l 1
 338.715820312 313.809570312 l 1
 457.698242188 0.166015625 l 1
 269.000976562 0.166015625 l 1
EndSplineSet
EndChar

StartChar: l
Encoding: 108 108 78
Width: 303
GlyphClass: 2
Flags: MW
HStem: 0.166016 140.806<93.2568 250.728 191.192 218.221> 671.906 20G<135.056 291.926 291.926 291.926>
VStem: 59.3164 156.87
LayerCount: 2
Fore
SplineSet
144.510742188 0.166015625 m 2
 42.0029296875 0.166015625 -11 59.267578125 14.4072265625 169.321289062 c 2
 135.055664062 691.90625 l 1
 291.92578125 691.90625 l 1
 173.0234375 176.880859375 l 2
 168.81640625 158.662109375 170.583984375 149.341796875 172.198242188 146.7421875 c 0
 173.682617188 144.352539062 177.931640625 140.971679688 191.192382812 140.971679688 c 2
 250.727539062 140.971679688 l 1
 218.220703125 0.166015625 l 1
 144.510742188 0.166015625 l 2
EndSplineSet
EndChar

StartChar: m
Encoding: 109 109 79
Width: 802
GlyphClass: 2
Flags: MW
HStem: 0.166016 21G<-24.6445 132.226 -24.6445 -24.6445 247.516 247.516 247.516 404.386 519.676 519.676 519.676 676.545> 393.286 143.641<275.438 375.58>
VStem: 59.3164 156.87 331.477 156.87 603.637 156.869
LayerCount: 2
Fore
SplineSet
281.57421875 393.286132812 m 0
 269.302734375 393.286132812 222.48828125 391.140625 207.494140625 326.19140625 c 2
 132.225585938 0.166015625 l 1
 -24.64453125 0.166015625 l 1
 97.966796875 531.255859375 l 1
 252.001953125 531.255859375 l 1
 246.883789062 509.086914062 l 1
 268.669921875 521.06640625 305.79296875 536.926757812 349.701171875 536.926757812 c 0
 401.458007812 536.926757812 440.9609375 519.521484375 465.048828125 485.072265625 c 1
 511.354492188 519.307617188 561.830078125 536.926757812 614.301757812 536.926757812 c 0
 670.619140625 536.926757812 713.53515625 519.532226562 738.83984375 483.33984375 c 0
 763.99609375 447.358398438 768.548828125 398.680664062 755.0859375 340.366210938 c 2
 676.544921875 0.166015625 l 1
 519.67578125 0.166015625 l 1
 594.944335938 326.19140625 l 2
 600.759765625 351.380859375 598.194335938 367.262695312 590.969726562 377.205078125 c 0
 583.212890625 387.881835938 571.921875 393.286132812 553.734375 393.286132812 c 0
 534.201171875 393.286132812 519.92578125 387.533203125 507.318359375 376.5625 c 0
 494.435546875 365.352539062 485.2578125 350.46484375 480.30859375 329.026367188 c 2
 404.385742188 0.166015625 l 1
 247.515625 0.166015625 l 1
 322.784179688 326.19140625 l 2
 328.599609375 351.380859375 326.034179688 367.262695312 318.809570312 377.205078125 c 0
 311.052734375 387.881835938 299.76171875 393.286132812 281.57421875 393.286132812 c 0
EndSplineSet
EndChar

StartChar: n
Encoding: 110 110 80
Width: 526
GlyphClass: 2
Flags: MW
HStem: 0.166016 21G<-24.6445 132.226 -24.6445 -24.6445 247.516 247.516 247.516 404.386> 393.286 143.641<272.542 377.005>
VStem: 59.3164 156.87 331.477 156.87
AnchorPoint: "Anchor-0" 306 511 basechar 0
LayerCount: 2
Fore
SplineSet
322.784179688 326.19140625 m 2
 326.250976562 341.208007812 336.727539062 393.286132812 281.57421875 393.286132812 c 0
 263.510742188 393.286132812 249.251953125 387.799804688 235.665039062 376.571289062 c 0
 222.987304688 366.094726562 213.094726562 350.450195312 207.494140625 326.19140625 c 2
 132.225585938 0.166015625 l 1
 -24.64453125 0.166015625 l 1
 97.966796875 531.255859375 l 1
 252.001953125 531.255859375 l 1
 247.02734375 509.708984375 l 1
 258.580078125 516.081054688 298.524414062 536.926757812 349.701171875 536.926757812 c 0
 404.30859375 536.926757812 445.681640625 519.342773438 469.317382812 482.931640625 c 0
 492.706054688 446.901367188 496.33984375 398.463867188 482.926757812 340.366210938 c 2
 404.385742188 0.166015625 l 1
 247.515625 0.166015625 l 1
 322.784179688 326.19140625 l 2
EndSplineSet
EndChar

StartChar: o
Encoding: 111 111 81
Width: 517
GlyphClass: 2
Flags: MW
HStem: -5.50391 143.641<205.455 217.136> 393.286 143.641<277.364 288.258>
VStem: 50.8115 155.925 331.477 155.925
AnchorPoint: "Anchor-0" 303 511 basechar 0
LayerCount: 2
Fore
SplineSet
17.68359375 220.3515625 m 2
 38.8466796875 312.016601562 l 2
 55.7138671875 385.078125 87.7314453125 442.9921875 137.633789062 481.470703125 c 0
 186.361328125 519.041992188 244.715820312 536.926757812 310.01171875 536.926757812 c 0
 374.721679688 536.926757812 424.37109375 519.00390625 455.4140625 481.41015625 c 0
 487.201171875 442.9140625 492.295898438 385.043945312 475.436523438 312.016601562 c 2
 454.2734375 220.3515625 l 2
 437.279296875 146.739257812 405.432617188 88.548828125 355.818359375 50.0126953125 c 0
 307.416992188 12.4189453125 249.491210938 -5.50390625 184.78125 -5.50390625 c 0
 119.485351562 -5.50390625 69.3896484375 12.3798828125 38.009765625 49.9521484375 c 0
 5.8408203125 88.470703125 0.681640625 146.705078125 17.68359375 220.3515625 c 2
217.943359375 138.13671875 m 0
 240.76171875 138.13671875 280.268554688 142.036132812 298.567382812 221.295898438 c 2
 319.075195312 310.125976562 l 2
 337.374023438 389.388671875 299.666015625 393.286132812 276.849609375 393.286132812 c 0
 251.875976562 393.286132812 212.3515625 388.166992188 194.334960938 310.125976562 c 2
 173.827148438 221.295898438 l 2
 155.810546875 143.2578125 192.966796875 138.13671875 217.943359375 138.13671875 c 0
EndSplineSet
Substitution2: "Single Substitution lookup 6 subtable" ordmasculine
Substitution2: "'aalt' Access All Alternates lookup 0 subtable" ordmasculine
EndChar

StartChar: p
Encoding: 112 112 82
Width: 521
GlyphClass: 2
Flags: MW
HStem: -5.50391 143.641<206.684 235.794 202.569 250.322> 393.286 143.641<268.912 372.849>
VStem: 59.3164 156.87 335.256 156.87
LayerCount: 2
Fore
SplineSet
97.966796875 531.255859375 m 1
 252.000976562 531.255859375 l 1
 246.629882812 507.993164062 l 1
 277.606445312 527.05859375 311.122070312 536.926757812 345.920898438 536.926757812 c 0
 399.776367188 536.926757812 441.4140625 518.02734375 467.47265625 480.461914062 c 0
 494.224609375 441.895507812 497.159179688 385.645507812 480.815429688 314.8515625 c 2
 458.34375 217.516601562 l 2
 441.997070312 146.7109375 413.052734375 90.3515625 368.502929688 51.5029296875 c 0
 325.317382812 13.84375 276.173828125 -5.50390625 224.470703125 -5.50390625 c 0
 188.897460938 -5.50390625 159.236328125 3.0009765625 136.822265625 20.0771484375 c 1
 98.1904296875 -147.25390625 l 1
 -58.6796875 -147.25390625 l 1
 97.966796875 531.255859375 l 1
227.391601562 138.13671875 m 0
 244.196289062 138.13671875 283.252929688 138.591796875 302.346679688 221.295898438 c 2
 322.854492188 310.125976562 l 2
 335.7265625 365.8828125 324.498046875 393.286132812 283.462890625 393.286132812 c 0
 254.360351562 393.286132812 218.510742188 378.006835938 202.838867188 310.125976562 c 2
 182.331054688 221.295898438 l 2
 171.948242188 176.326171875 177.747070312 138.13671875 227.391601562 138.13671875 c 0
EndSplineSet
EndChar

StartChar: q
Encoding: 113 113 83
Width: 520
GlyphClass: 2
Flags: MW
HStem: -5.50391 143.641<121.8 219.021> 393.286 143.641<263.203 293.549 249.064 296.924>
VStem: 50.8115 156.87 326.751 155.926
LayerCount: 2
Fore
SplineSet
362.057617188 508.583984375 m 1
 367.291992188 531.255859375 l 1
 521.327148438 531.255859375 l 1
 364.680664062 -147.25390625 l 1
 208.754882812 -147.25390625 l 1
 247.38671875 20.0771484375 l 1
 217.087890625 3.0009765625 183.499023438 -5.50390625 147.92578125 -5.50390625 c 0
 95.673828125 -5.50390625 55.220703125 13.7939453125 29.6923828125 51.578125 c 0
 3.4375 90.435546875 0.6904296875 146.743164062 17.029296875 217.516601562 c 2
 39.5009765625 314.8515625 l 2
 55.837890625 385.61328125 84.546875 441.810546875 128.752929688 480.385742188 c 0
 171.879882812 518.01953125 222.137695312 536.926757812 275.991210938 536.926757812 c 0
 311.106445312 536.926757812 340.16796875 527.318359375 362.057617188 508.583984375 c 1
211.328125 138.13671875 m 0
 226.712890625 138.13671875 274.900390625 139.254882812 293.841796875 221.295898438 c 2
 314.349609375 310.125976562 l 2
 324.276367188 353.125976562 320.779296875 393.286132812 273.069335938 393.286132812 c 0
 253.3359375 393.286132812 213.984375 391.143554688 195.280273438 310.125976562 c 2
 174.772460938 221.295898438 l 2
 155.6796875 138.596679688 194.517578125 138.13671875 211.328125 138.13671875 c 0
EndSplineSet
EndChar

StartChar: r
Encoding: 114 114 84
Width: 371
GlyphClass: 2
Flags: MW
HStem: 0.166016 21G<-24.6445 132.226 -24.6445 -24.6445> 398.956 142.695<286.936 362.702>
VStem: 59.3164 156.87
LayerCount: 2
Fore
SplineSet
247.661132812 512.453125 m 1
 266.373046875 524.33984375 302 541.651367188 350.791992188 541.651367188 c 0
 374.611328125 541.651367188 384.34375 539.497070312 408.590820312 534.131835938 c 1
 373.321289062 381.36328125 l 1
 335.649414062 394.12890625 321.404296875 398.956054688 298.948242188 398.956054688 c 0
 274.922851562 398.956054688 256.334960938 391.838867188 239.899414062 378.09375 c 0
 224.079101562 364.864257812 211.815429688 344.91015625 204.875976562 314.8515625 c 2
 132.225585938 0.166015625 l 1
 -24.64453125 0.166015625 l 1
 97.966796875 531.255859375 l 1
 252.001953125 531.255859375 l 1
 247.661132812 512.453125 l 1
EndSplineSet
EndChar

StartChar: s
Encoding: 115 115 85
Width: 483
GlyphClass: 2
Flags: MW
HStem: -5.50391 134.19<187.25 193.875> 405.571 131.355<263.579 272.451>
VStem: 42.3057 149.31
AnchorPoint: "Anchor-0" 285 511 basechar 0
LayerCount: 2
Fore
SplineSet
261.731445312 405.571289062 m 0
 238.778320312 405.571289062 206.705078125 400.541015625 200.448242188 373.44140625 c 0
 198.239257812 363.873046875 194.698242188 348.534179688 238.639648438 342.04296875 c 2
 294.200195312 333.556640625 l 2
 347.028320312 325.85546875 450.944335938 300.075195312 421.412109375 172.15625 c 0
 408.602539062 116.673828125 377.021484375 70.8798828125 328.03515625 39.5634765625 c 0
 280.203125 8.984375 224.705078125 -5.50390625 163.045898438 -5.50390625 c 0
 103.774414062 -5.50390625 57.20703125 9.0830078125 25.978515625 39.9873046875 c 0
 -5.4951171875 71.1328125 -15.2998046875 114.325195312 -3.4755859375 165.541015625 c 2
 1.978515625 189.166015625 l 1
 151.288085938 189.166015625 l 1
 146.270507812 167.431640625 l 2
 143.40625 155.02734375 145.600585938 147.592773438 153.842773438 140.686523438 c 0
 162.694335938 133.26953125 176.694335938 128.686523438 197.805664062 128.686523438 c 0
 221.404296875 128.686523438 238.774414062 133.064453125 250.182617188 139.34375 c 0
 260.203125 144.858398438 265.350585938 151.1015625 268.248046875 163.651367188 c 0
 270.600585938 173.83984375 268.940429688 178.64453125 264.418945312 182.84375 c 0
 259.41796875 187.48828125 245.666015625 193.0703125 222.885742188 196.944335938 c 2
 172.568359375 205.501953125 l 2
 81.123046875 221.353515625 25.7509765625 263.486328125 49.1728515625 364.936523438 c 0
 61.134765625 416.751953125 91.1142578125 460.314453125 137.372070312 491.491210938 c 0
 182.915039062 522.185546875 235.1015625 536.926757812 292.055664062 536.926757812 c 0
 419.294921875 536.926757812 480.282226562 463.989257812 459.595703125 374.38671875 c 2
 453.705078125 348.87109375 l 1
 305.33984375 348.87109375 l 1
 310.575195312 371.551757812 l 2
 313.177734375 382.821289062 311.245117188 389.071289062 304.169921875 394.955078125 c 0
 296.661132812 401.200195312 283.170898438 405.571289062 261.731445312 405.571289062 c 0
EndSplineSet
EndChar

StartChar: t
Encoding: 116 116 86
Width: 365
GlyphClass: 2
Flags: MW
HStem: 0.166016 138.915<130.433 289.036 232.336 256.966> 409.352 121.904<70.5615 110.458 42.418 138.602 294.526 360.883>
VStem: 99.9512 155.925
LayerCount: 2
Fore
SplineSet
181.365234375 0.166015625 m 2
 79.5 0.166015625 30.8798828125 64.6611328125 53.296875 161.76171875 c 2
 110.458007812 409.3515625 l 1
 42.41796875 409.3515625 l 1
 70.5615234375 531.255859375 l 1
 138.6015625 531.255859375 l 1
 159.526367188 621.890625 l 1
 328.03515625 676.400390625 l 1
 294.526367188 531.255859375 l 1
 389.026367188 531.255859375 l 1
 360.8828125 409.3515625 l 1
 266.3828125 409.3515625 l 1
 210.966796875 169.321289062 l 2
 205.094726562 143.883789062 214.57421875 139.081054688 232.3359375 139.081054688 c 2
 289.036132812 139.081054688 l 1
 256.965820312 0.166015625 l 1
 181.365234375 0.166015625 l 2
EndSplineSet
EndChar

StartChar: u
Encoding: 117 117 87
Width: 526
GlyphClass: 2
Flags: MW
HStem: -5.50391 143.641<207.951 235.651 207.951 273.368>
VStem: 59.3164 156.87 331.477 156.87
AnchorPoint: "Anchor-0" 306 511 basechar 0
LayerCount: 2
Fore
SplineSet
188.560546875 -5.50390625 m 0
 85.45703125 -5.50390625 -16.23828125 36.578125 25.751953125 218.4609375 c 2
 97.966796875 531.255859375 l 1
 254.836914062 531.255859375 l 1
 183.931640625 224.130859375 l 2
 176.360351562 191.3359375 176.33203125 168.380859375 180.939453125 155.145507812 c 0
 184.221679688 145.715820312 194.178710938 138.13671875 221.72265625 138.13671875 c 0
 249.579101562 138.13671875 263.200195312 145.62109375 270.368164062 154.133789062 c 0
 280.28125 165.907226562 291.173828125 189.2734375 299.221679688 224.130859375 c 2
 370.126953125 531.255859375 l 1
 526.997070312 531.255859375 l 1
 454.782226562 218.4609375 l 2
 428.190429688 103.278320312 358.17578125 -5.50390625 188.560546875 -5.50390625 c 0
EndSplineSet
EndChar

StartChar: v
Encoding: 118 118 88
Width: 489
GlyphClass: 2
Flags: MW
HStem: 0.166016 21G<108.641 233.274 108.641 108.641>
LayerCount: 2
Fore
SplineSet
47.4130859375 531.255859375 m 1
 213.765625 531.255859375 l 1
 233.583984375 267.692382812 l 1
 374.299804688 531.255859375 l 1
 540.74609375 531.255859375 l 1
 233.274414062 0.166015625 l 1
 108.640625 0.166015625 l 1
 47.4130859375 531.255859375 l 1
EndSplineSet
EndChar

StartChar: w
Encoding: 119 119 89
Width: 733
GlyphClass: 2
Flags: MW
HStem: 0.166016 21G<81.4365 210.313 81.4365 81.4365 372.644 501.451 372.644 372.644>
LayerCount: 2
Fore
SplineSet
48.806640625 531.255859375 m 1
 214.6484375 531.255859375 l 1
 218.391601562 274.637695312 l 1
 355.400390625 531.255859375 l 1
 472.73828125 531.255859375 l 1
 491.256835938 274.637695312 l 1
 613.490234375 531.255859375 l 1
 780.326171875 531.255859375 l 1
 501.451171875 0.166015625 l 1
 372.643554688 0.166015625 l 1
 353.293945312 269.649414062 l 1
 210.313476562 0.166015625 l 1
 81.4365234375 0.166015625 l 1
 48.806640625 531.255859375 l 1
EndSplineSet
EndChar

StartChar: x
Encoding: 120 120 90
Width: 467
GlyphClass: 2
Flags: MW
HStem: 0.166016 21G<-81.8389 87.5283 -81.8389 -81.8389 236.137 403.898 236.137 236.137>
LayerCount: 2
Fore
SplineSet
236.13671875 0.166015625 m 1
 188.665039062 134.077148438 l 1
 87.5283203125 0.166015625 l 1
 -81.8388671875 0.166015625 l 1
 140.17578125 273.260742188 l 1
 49.240234375 531.255859375 l 1
 218.0625 531.255859375 l 1
 259.581054688 412.704101562 l 1
 348.629882812 531.255859375 l 1
 518.600585938 531.255859375 l 1
 307.043945312 276.881835938 l 1
 403.8984375 0.166015625 l 1
 236.13671875 0.166015625 l 1
EndSplineSet
EndChar

StartChar: y
Encoding: 121 121 91
Width: 490
GlyphClass: 2
Flags: MW
HStem: -145.363 144.585<-4.07324 23.0264 -37.4531 52.627>
AnchorPoint: "Anchor-0" 288 511 basechar 0
LayerCount: 2
Fore
SplineSet
23.0263671875 -145.36328125 m 2
 -37.453125 -145.36328125 l 1
 -4.0732421875 -0.7783203125 l 1
 52.626953125 -0.7783203125 l 2
 69.4541015625 -0.7783203125 79.9736328125 2.5859375 84.48046875 5.3828125 c 0
 92.333984375 10.2548828125 101.828125 25.189453125 105.684570312 32.654296875 c 1
 47.369140625 531.255859375 l 1
 213.68359375 531.255859375 l 1
 234.985351562 268.463867188 l 1
 379.234375 531.255859375 l 1
 541.70703125 531.255859375 l 1
 216.969726562 -29.078125 l 2
 168.96875 -111.591796875 106.202148438 -145.36328125 23.0263671875 -145.36328125 c 2
EndSplineSet
EndChar

StartChar: z
Encoding: 122 122 92
Width: 464
GlyphClass: 2
Flags: MW
HStem: 0.166016 137.971<185.404 351.466> 393.286 137.97<57.6094 474.077 89.4619 255.523>
AnchorPoint: "Anchor-0" 275 511 basechar 0
LayerCount: 2
Fore
SplineSet
57.609375 393.286132812 m 1
 89.4619140625 531.255859375 l 1
 474.077148438 531.255859375 l 1
 445.30078125 406.611328125 l 1
 185.404296875 138.13671875 l 1
 383.318359375 138.13671875 l 1
 351.465820312 0.166015625 l 1
 -33.1494140625 0.166015625 l 1
 -4.373046875 124.811523438 l 1
 255.5234375 393.286132812 l 1
 57.609375 393.286132812 l 1
EndSplineSet
EndChar

StartChar: braceleft
Encoding: 123 123 93
Width: 373
GlyphClass: 2
Flags: MW
HStem: -79.2139 134.19<136.783 274.344 221.424 243.363> 604.967 134.189<346.304 348.399 348.399 401.319>
VStem: 122.631 150.256
LayerCount: 2
Fore
SplineSet
206.596679688 76.7109375 m 2
 202.150390625 57.4521484375 208.8828125 54.9765625 221.423828125 54.9765625 c 2
 274.34375 54.9765625 l 1
 243.36328125 -79.2138671875 l 1
 157.368164062 -79.2138671875 l 2
 116.197265625 -79.2138671875 83.935546875 -68.2470703125 64.69921875 -43.7421875 c 0
 45.3896484375 -19.142578125 42.2431640625 15.64453125 51.759765625 56.8662109375 c 2
 86.23046875 206.176757812 l 2
 91.8046875 230.319335938 89.7255859375 244.193359375 85.474609375 250.59765625 c 0
 81.78515625 256.155273438 71.1220703125 261.931640625 47.1279296875 261.931640625 c 2
 27.283203125 261.931640625 l 1
 59.572265625 401.791015625 l 1
 79.4169921875 401.791015625 l 2
 103.411132812 401.791015625 116.741210938 407.567382812 122.997070312 413.125 c 0
 130.205078125 419.529296875 138.690429688 433.403320312 144.263671875 457.545898438 c 2
 178.080078125 604.021484375 l 2
 187.471679688 644.69921875 206.680664062 679.159179688 237.256835938 703.684570312 c 0
 267.807617188 728.189453125 305.1328125 739.15625 346.303710938 739.15625 c 2
 432.298828125 739.15625 l 1
 401.319335938 604.966796875 l 1
 348.399414062 604.966796875 l 2
 335.858398438 604.966796875 327.982421875 602.490234375 323.536132812 583.231445312 c 2
 293.2109375 451.875976562 l 2
 277.688476562 384.641601562 254.956054688 352.455078125 221.85546875 331.578125 c 1
 245.865234375 309.951171875 253.02734375 277.821289062 237.795898438 211.846679688 c 2
 206.596679688 76.7109375 l 2
EndSplineSet
EndChar

StartChar: bar
Encoding: 124 124 94
Width: 310
GlyphClass: 2
Flags: MW
VStem: 93.3359 148.365
LayerCount: 2
Fore
SplineSet
179.983398438 739.15625 m 1
 328.348632812 739.15625 l 1
 139.413085938 -79.2138671875 l 1
 -8.9521484375 -79.2138671875 l 1
 179.983398438 739.15625 l 1
EndSplineSet
EndChar

StartChar: braceright
Encoding: 125 125 95
Width: 373
GlyphClass: 2
Flags: MW
HStem: -79.2139 134.19<-20.4961 32.4248 32.4248 35.4629 -51.4766 32.4248> 604.967 134.189<137.459 159.399 106.479 224.398>
VStem: 124.522 149.309
LayerCount: 2
Fore
SplineSet
175.170898438 583.231445312 m 2
 179.418945312 601.631835938 173.4296875 604.966796875 159.399414062 604.966796875 c 2
 106.479492188 604.966796875 l 1
 137.458984375 739.15625 l 1
 224.3984375 739.15625 l 2
 265.555664062 739.15625 297.7421875 728.198242188 316.681640625 703.573242188 c 0
 335.564453125 679.0234375 338.65625 644.631835938 329.280273438 604.021484375 c 2
 295.463867188 457.545898438 l 2
 289.908203125 433.48046875 292.11328125 419.765625 296.548828125 413.338867188 c 0
 300.645507812 407.404296875 311.37109375 401.791015625 334.567382812 401.791015625 c 2
 354.412109375 401.791015625 l 1
 322.123046875 261.931640625 l 1
 302.278320312 261.931640625 l 2
 279.08203125 261.931640625 265.764648438 256.319335938 258.927734375 250.383789062 c 0
 251.524414062 243.95703125 242.987304688 230.2421875 237.430664062 206.176757812 c 2
 202.959960938 56.8662109375 l 2
 193.458007812 15.7099609375 174.485351562 -19.0068359375 144.176757812 -43.630859375 c 0
 113.866210938 -68.2548828125 76.6201171875 -79.2138671875 35.462890625 -79.2138671875 c 2
 -51.4765625 -79.2138671875 l 1
 -20.49609375 54.9765625 l 1
 32.4248046875 54.9765625 l 2
 46.453125 54.9765625 53.984375 58.310546875 58.232421875 76.7109375 c 2
 89.431640625 211.846679688 l 2
 104.651367188 277.770507812 126.627929688 309.930664062 160.654296875 331.578125 c 1
 137.180664062 352.465820312 129.330078125 384.671875 144.845703125 451.875976562 c 2
 175.170898438 583.231445312 l 2
EndSplineSet
EndChar

StartChar: asciitilde
Encoding: 126 126 96
Width: 535
GlyphClass: 2
Flags: MW
HStem: 184.441 137.025<300.567 348.283> 238.307 136.08<170.76 217.339>
LayerCount: 2
Fore
SplineSet
342.482421875 321.466796875 m 0x80
 354.083984375 321.466796875 368.946289062 322.739257812 398.661132812 363.397460938 c 2
 412.813476562 382.760742188 l 1
 506.185546875 316.151367188 l 1
 484.20703125 283.090820312 459.21484375 245.5 412.67578125 215.41015625 c 0
 381.129882812 195.013671875 347.876953125 184.44140625 314.626953125 184.44140625 c 0x80
 286.506835938 184.44140625 263.233398438 189.892578125 221.936523438 218.1875 c 0
 190.327148438 237.735351562 184.899414062 238.306640625 175.86328125 238.306640625 c 0
 165.657226562 238.306640625 151.168945312 237.564453125 119.337890625 195.913085938 c 2
 105.118164062 177.305664062 l 1
 11.95703125 243.765625 l 1
 34.7314453125 277.076171875 60.24609375 314.39453125 106.071289062 343.915039062 c 0
 137.192382812 363.963867188 169.916015625 374.38671875 202.5546875 374.38671875 c 0x40
 232.123046875 374.38671875 254.34765625 368.620117188 295.3671875 341.643554688 c 0
 326.885742188 321.987304688 333.313476562 321.466796875 342.482421875 321.466796875 c 0x80
EndSplineSet
EndChar

StartChar: exclamdown
Encoding: 161 161 98
Width: 267
GlyphClass: 2
Flags: MW
HStem: 367.771 163.484<101.747 229.379 64.0039 267.122>
VStem: 63.0967 165.375 83.0352 125.497
LayerCount: 2
Fore
SplineSet
101.747070312 531.255859375 m 1xc0
 267.122070312 531.255859375 l 1
 229.37890625 367.771484375 l 1
 64.00390625 367.771484375 l 1
 101.747070312 531.255859375 l 1xc0
71.5068359375 313.90625 m 1xa0
 197.00390625 313.90625 l 1
 115.352539062 -147.25390625 l 1
 -59.7763671875 -147.25390625 l 1
 71.5068359375 313.90625 l 1xa0
EndSplineSet
EndChar

StartChar: cent
Encoding: 162 162 99
Width: 553
GlyphClass: 2
Flags: MW
HStem: -94.332 232.472<208.209 233.258 137.813 233.556> 393.29 246.641<265.141 402.776>
VStem: 50.8125 155.924 243.592 95.4443 331.477 151.2
LayerCount: 2
Fore
SplineSet
442.350585938 189.169921875 m 2xe8
 419.231445312 89.029296875 346.897460938 23.548828125 255.516601562 2.078125 c 1
 233.2578125 -94.33203125 l 1
 137.813476562 -94.33203125 l 1
 158.548828125 -4.517578125 l 1
 104.779296875 -0.0791015625 63.21484375 18.4091796875 36.3544921875 52.091796875 c 0
 5.650390625 90.5966796875 0.984375 148.012695312 17.6845703125 220.3515625 c 2
 38.84765625 312.016601562 l 2
 55.4130859375 383.770507812 86.55859375 440.868164062 134.991210938 479.33203125 c 0
 177.404296875 513.014648438 227.50390625 531.501953125 283.32421875 535.94140625 c 1
 307.33203125 639.930664062 l 1
 402.776367188 639.930664062 l 1
 377.2578125 529.400390625 l 1xf0
 416.857421875 519.161132812 446.8046875 499.307617188 465.060546875 469.356445312 c 0
 485.634765625 435.60546875 489.278320312 392.438476562 477.693359375 342.255859375 c 2
 470.9296875 312.9609375 l 1
 319.729492188 312.9609375 l 1
 325.62109375 338.48046875 l 2
 330.94140625 361.5234375 329.13671875 393.290039062 278.740234375 393.290039062 c 0
 251.541992188 393.290039062 212.063476562 386.916992188 194.3359375 310.129882812 c 2
 173.828125 221.299804688 l 2
 165.749023438 186.306640625 168.41796875 165.436523438 175.459960938 155.505859375 c 0
 183.239257812 144.537109375 196.583984375 138.139648438 219.833984375 138.139648438 c 0
 247.27734375 138.139648438 281.482421875 147.294921875 291.368164062 190.115234375 c 2
 297.258789062 215.629882812 l 1
 448.458984375 215.629882812 l 1
 442.350585938 189.169921875 l 2xe8
EndSplineSet
EndChar

StartChar: sterling
Encoding: 163 163 100
Width: 475
GlyphClass: 2
Flags: MW
HStem: 0.166992 146.475<190.471 224.514 190.471 380.761> 260.987 147.42<42.1992 66.7549 8.16504 100.789 264.274 353.09 42.1992 230.24> 556.772 144.585<330.067 331.905>
VStem: 90.501 163.485
LayerCount: 2
Fore
SplineSet
327.822265625 556.772460938 m 0
 320.49609375 556.772460938 298.52734375 556.772460938 289.583007812 518.02734375 c 2
 264.274414062 408.407226562 l 1
 387.124023438 408.407226562 l 1
 353.08984375 260.987304688 l 1
 230.240234375 260.987304688 l 1
 221.294921875 222.2421875 l 2
 214.694335938 193.649414062 204.651367188 168.19140625 190.470703125 146.641601562 c 1
 258.557617188 146.641601562 326.64453125 146.642578125 394.731445312 146.642578125 c 2
 414.577148438 146.642578125 l 1
 380.760742188 0.1669921875 l 1
 -35.0400390625 0.1669921875 l 1
 -3.9560546875 134.809570312 l 1
 18.1875 143.986328125 26.6796875 147.506835938 36.0986328125 160.826171875 c 0
 42.419921875 169.767578125 49.521484375 186.341796875 54.9736328125 209.95703125 c 2
 66.7548828125 260.987304688 l 1
 8.1650390625 260.987304688 l 1
 42.19921875 408.407226562 l 1
 100.7890625 408.407226562 l 1
 122.825195312 503.852539062 l 2
 136.692382812 563.919921875 163.955078125 613.390625 206.259765625 648.939453125 c 0
 248.682617188 684.587890625 300.8203125 701.357421875 359.313476562 701.357421875 c 0
 413.249023438 701.357421875 455.190429688 686.64453125 481.72265625 655.448242188 c 0
 508.620117188 623.82421875 514.364257812 578.868164062 501.845703125 524.642578125 c 2
 497.263671875 504.796875 l 1
 342.283203125 504.796875 l 1
 346.865234375 524.642578125 l 2
 354.072265625 555.86328125 335.987304688 556.772460938 327.822265625 556.772460938 c 0
EndSplineSet
EndChar

StartChar: currency
Encoding: 164 164 101
Width: 598
GlyphClass: 2
Flags: MW
HStem: 106.006 132.301<232.088 291.636> 398.012 132.3<305.196 363.947>
VStem: 97.1162 135.136 386.286 135.135
LayerCount: 2
Fore
SplineSet
249.26953125 106.005859375 m 0
 214.90625 106.005859375 184.462890625 113.256835938 158.610351562 127.788085938 c 1
 78.6513671875 62.8271484375 l 1
 4.0107421875 159.87109375 l 1
 85.240234375 225.864257812 l 1
 78.2353515625 253.623046875 78.859375 284.763671875 86.677734375 318.630859375 c 0
 94.1572265625 351.025390625 108.418945312 382.078125 129.118164062 411.26953125 c 1
 77.5341796875 478.3359375 l 1
 196.984375 575.380859375 l 1
 247.848632812 509.248046875 l 1
 280.51171875 523.255859375 313.83203125 530.311523438 347.228515625 530.311523438 c 0
 380.665039062 530.311523438 410.759765625 523.239257812 436.975585938 509.198242188 c 1
 519.428710938 575.37109375 l 1
 592.725585938 478.344726562 l 1
 511.291992188 411.373046875 l 1
 518.540039062 382.15234375 518.470703125 351.064453125 510.982421875 318.630859375 c 0
 503.224609375 285.024414062 489.301757812 253.642578125 469.251953125 225.073242188 c 1
 520.126953125 158.926757812 l 1
 400.678710938 61.8818359375 l 1
 349.98828125 127.788085938 l 1
 317.424804688 113.256835938 283.633789062 106.005859375 249.26953125 106.005859375 c 0
375.84765625 318.630859375 m 0
 381.368164062 342.540039062 378.303710938 360.627929688 367.201171875 375.71875 c 0
 356.21875 390.64453125 340.420898438 398.01171875 316.684570312 398.01171875 c 0
 293.708007812 398.01171875 274.811523438 390.741210938 256.822265625 375.71875 c 0
 238.750976562 360.627929688 227.333984375 342.540039062 221.813476562 318.630859375 c 0
 216.294921875 294.7265625 219.31640625 276.40234375 230.439453125 260.953125 c 0
 241.459960938 245.647460938 256.9296875 238.306640625 279.813476562 238.306640625 c 0
 303.458007812 238.306640625 322.62109375 245.74609375 340.590820312 260.953125 c 0
 358.84765625 276.40234375 370.329101562 294.7265625 375.84765625 318.630859375 c 0
EndSplineSet
EndChar

StartChar: yen
Encoding: 165 165 102
Width: 504
GlyphClass: 2
Flags: MW
HStem: 0.166016 21G<97.2607 260.745 97.2607 97.2607> 110.731 122.85<29.2432 122.786 0.880859 151.148 314.633 408.176> 245.866 122.851<60.4414 151.562 60.4414 153.984 32.0791 151.562 376.616 439.374> 671.906 20G<79.7012 251.581 251.581 251.581 426.586 597.705 597.705 597.705>
VStem: 181.222 163.484
LayerCount: 2
Fore
SplineSet
286.270507812 110.731445312 m 1
 260.745117188 0.166015625 l 1
 97.2607421875 0.166015625 l 1
 122.786132812 110.731445312 l 1
 0.880859375 110.731445312 l 1
 29.2431640625 233.581054688 l 1
 151.1484375 233.581054688 l 1
 153.984375 245.866210938 l 1
 32.0791015625 245.866210938 l 1
 60.44140625 368.716796875 l 1
 151.561523438 368.716796875 l 1
 79.701171875 691.90625 l 1
 251.581054688 691.90625 l 1
 288.422851562 465.380859375 l 1
 426.5859375 691.90625 l 1
 597.705078125 691.90625 l 1
 376.616210938 368.716796875 l 1
 467.736328125 368.716796875 l 1
 439.374023438 245.866210938 l 1
 317.46875 245.866210938 l 1
 314.6328125 233.581054688 l 1
 436.538085938 233.581054688 l 1
 408.17578125 110.731445312 l 1
 286.270507812 110.731445312 l 1
EndSplineSet
EndChar

StartChar: brokenbar
Encoding: 166 166 103
Width: 310
GlyphClass: 2
Flags: MW
VStem: 93.3359 148.365
LayerCount: 2
Fore
SplineSet
179.983398438 739.15625 m 1
 328.348632812 739.15625 l 1
 242.389648438 366.826171875 l 1
 94.0244140625 366.826171875 l 1
 179.983398438 739.15625 l 1
77.443359375 295.005859375 m 1
 225.80859375 295.005859375 l 1
 139.413085938 -79.2138671875 l 1
 -8.9521484375 -79.2138671875 l 1
 77.443359375 295.005859375 l 1
EndSplineSet
EndChar

StartChar: section
Encoding: 167 167 104
Width: 518
GlyphClass: 2
Flags: MW
HStem: -158.594 136.079<164.353 173.284> 580.395 136.081<314.764 333.675>
VStem: 64.042 152.145 84.8311 152.146 304.072 152.145 322.027 153.089
LayerCount: 2
Fore
SplineSet
355.514648438 136.068359375 m 1xd4
 374.91015625 115.340820312 391.374023438 82.9765625 374.655273438 10.5615234375 c 0
 363.470703125 -37.8837890625 335.971679688 -79.6416015625 293.684570312 -111.388671875 c 0
 251.091796875 -143.366210938 200.91015625 -158.59375 145.657226562 -158.59375 c 0
 87.5439453125 -158.59375 43.359375 -143.434570312 17.2236328125 -110.408203125 c 0
 -8.8115234375 -77.5087890625 -14.01171875 -31.546875 -1.236328125 23.7900390625 c 2
 3.345703125 43.6357421875 l 1
 149.8203125 43.6357421875 l 1
 145.23828125 23.7900390625 l 2
 135.8828125 -16.734375 153.521484375 -22.5146484375 175.18359375 -22.5146484375 c 0
 195.032226562 -22.5146484375 216.236328125 -16.6171875 223.165039062 13.3955078125 c 0
 227.428710938 31.86328125 224.784179688 43.1826171875 217.365234375 51.4794921875 c 0
 209.592773438 60.171875 187.91015625 71.77734375 152.416992188 82.1669921875 c 0
 73.42578125 105.813476562 16.841796875 159.397460938 44.6591796875 279.884765625 c 0xe8
 53.1298828125 316.578125 77.2587890625 380.78515625 145.440429688 426.149414062 c 1
 137.206054688 435.34375 108.766601562 467.518554688 126.75390625 545.430664062 c 0
 148.174804688 638.215820312 236.884765625 716.475585938 353.354492188 716.475585938 c 0
 411.525390625 716.475585938 455.420898438 700.936523438 480.450195312 666.954101562 c 0
 505.01953125 633.595703125 509.983398438 588.541992188 497.629882812 535.034179688 c 2
 493.048828125 515.189453125 l 1
 347.518554688 515.189453125 l 1
 352.099609375 535.034179688 l 2
 361.484375 575.681640625 343.522460938 580.39453125 323.827148438 580.39453125 c 0
 305.701171875 580.39453125 285.356445312 573.399414062 278.680664062 544.484375 c 0
 274.591796875 526.770507812 277.329101562 516.596679688 284.557617188 509.263671875 c 0
 292.713867188 500.986328125 314.112304688 489.891601562 348.412109375 479.494140625 c 0
 427.404296875 455.84765625 483.986328125 402.263671875 456.169921875 281.776367188 c 0
 447.88671875 245.8984375 431.891601562 212.932617188 408.184570312 183.887695312 c 0
 392.629882812 164.831054688 374.955078125 148.747070312 355.514648438 136.068359375 c 1xd4
197.021484375 280.830078125 m 0
 188.622070312 244.448242188 196.001953125 217.515625 236.26953125 217.515625 c 0
 254.5 217.515625 266.8984375 222.852539062 277.583007812 232.728515625 c 0
 288.665039062 242.971679688 297.627929688 258.155273438 302.862304688 280.830078125 c 0xe4
 309.520507812 309.669921875 308.490234375 344.145507812 265.504882812 344.145507812 c 0
 251.466796875 344.145507812 211.25390625 342.478515625 197.021484375 280.830078125 c 0
252.30859375 688.125 m 1024
EndSplineSet
EndChar

StartChar: dieresis
Encoding: 168 168 105
Width: 507
GlyphClass: 2
Flags: MW
HStem: 554.881 149.311<181.361 287.696 146.891 322.167 181.361 328.331 362.802 469.136>
VStem: 102.786 140.806 284.227 140.805
LayerCount: 2
Fore
SplineSet
181.361328125 704.19140625 m 1
 322.166992188 704.19140625 l 1
 287.696289062 554.880859375 l 1
 146.890625 554.880859375 l 1
 181.361328125 704.19140625 l 1
362.801757812 704.19140625 m 1
 503.606445312 704.19140625 l 1
 469.135742188 554.880859375 l 1
 328.331054688 554.880859375 l 1
 362.801757812 704.19140625 l 1
EndSplineSet
EndChar

StartChar: copyright
Encoding: 169 169 106
Width: 780
GlyphClass: 2
Flags: MW
HStem: -8.33887 112.455<302.199 375.02 302.199 416.586> 140.026 115.289<369.047 394.835 369.047 400.036> 431.085 115.29<418.425 433.116> 583.231 111.51<412.828 485.615>
VStem: 55.5361 116.237 236.03 123.795 440.15 120.96 625.371 116.237
LayerCount: 2
Fore
SplineSet
312.647460938 -8.3388671875 m 0
 104.745117188 -8.3388671875 2.42578125 133.795898438 50.7705078125 343.201171875 c 0
 99.7138671875 555.19921875 267.524414062 694.741210938 474.965820312 694.741210938 c 0
 682.868164062 694.741210938 785.1875 552.606445312 736.842773438 343.201171875 c 0
 688.4921875 133.770507812 520.525390625 -8.3388671875 312.647460938 -8.3388671875 c 0
620.60546875 343.201171875 m 0
 638.243164062 419.598632812 630.920898438 477.358398438 601.024414062 519.56640625 c 0
 571.254882812 561.594726562 522.008789062 583.231445312 449.221679688 583.231445312 c 0
 376.434570312 583.231445312 317.198242188 561.594726562 268.022460938 519.56640625 c 0
 218.637695312 477.358398438 184.645507812 419.598632812 167.0078125 343.201171875 c 0
 149.369140625 266.798828125 156.736328125 209.23046875 186.663085938 167.357421875 c 0
 216.48828125 125.626953125 265.788085938 104.116210938 338.609375 104.116210938 c 0
 411.430664062 104.116210938 470.6640625 125.626953125 519.756835938 167.357421875 c 0
 569.017578125 209.23046875 602.966796875 266.798828125 620.60546875 343.201171875 c 0
543.47265625 287.4453125 m 2
 523.764648438 202.079101562 451.284179688 140.026367188 348.788085938 140.026367188 c 0
 300.491210938 140.026367188 262.7265625 153.352539062 239.01171875 181.787109375 c 0
 214.473632812 211.208007812 211 255.422851562 223.62890625 310.125 c 2
 238.900390625 376.275390625 l 2
 251.40234375 430.42578125 275.305664062 474.40625 313.318359375 504.0546875 c 0
 350.23046875 532.842773438 394.249023438 546.375 442.600585938 546.375 c 0
 490.038085938 546.375 527.125 534.034179688 550.389648438 507.1796875 c 0
 573.708984375 480.263671875 579.359375 442.888671875 569.216796875 398.955078125 c 2
 563.107421875 372.495117188 l 1
 442.147460938 372.495117188 l 1
 447.602539062 396.120117188 l 2
 451.556640625 413.248046875 448.357421875 431.084960938 417.875 431.084960938 c 0
 400.940429688 431.084960938 374.8046875 428.727539062 362.477539062 375.330078125 c 2
 347.641601562 311.0703125 l 2
 341.713867188 285.395507812 344.078125 271.466796875 347.907226562 266.1015625 c 0
 352.502929688 259.66015625 360.799804688 255.315429688 377.294921875 255.315429688 c 0
 412.375976562 255.315429688 419.727539062 275.3828125 422.73046875 288.390625 c 2
 428.185546875 312.015625 l 1
 549.145507812 312.015625 l 1
 543.47265625 287.4453125 l 2
EndSplineSet
EndChar

StartChar: ordfeminine
Encoding: 170 170 107
Width: 366
GlyphClass: 2
Flags: MW
HStem: 402.737 108.675<153.066 222.278> 528.422 96.3906<214.961 267.923 229.186 245.409>
VStem: 42.3057 289.171
LayerCount: 2
Fore
SplineSet
275.284179688 746.716796875 m 0
 327.17578125 746.716796875 416.25390625 731.053710938 390.416992188 619.142578125 c 2
 341.329101562 406.517578125 l 1
 220.369140625 406.517578125 l 1
 221.637695312 412.015625 l 1
 209.591796875 406.990234375 193.733398438 402.737304688 170.35546875 402.737304688 c 0
 135.776367188 402.737304688 108.072265625 412.73046875 91.0009765625 434.413085938 c 0
 74.064453125 455.924804688 70.26171875 484.931640625 77.90234375 518.02734375 c 0
 82.638671875 538.545898438 99.7724609375 586.698242188 158.705078125 611.58203125 c 1
 108.005859375 611.58203125 l 1
 113.0234375 633.317382812 l 2
 128.221679688 699.146484375 186.68359375 746.716796875 275.284179688 746.716796875 c 0
267.922851562 624.8125 m 1
 270.090820312 634.899414062 270.403320312 642.767578125 250.33984375 642.767578125 c 0
 242.053710938 642.767578125 237.547851562 640.85546875 235.045898438 639.1484375 c 0
 232.583007812 637.46875 231.958007812 636.821289062 231.1484375 633.317382812 c 2
 229.185546875 624.8125 l 1
 267.922851562 624.8125 l 1
199.517578125 520.862304688 m 0
 198.7890625 517.706054688 197.3359375 511.412109375 215.291015625 511.412109375 c 0
 229.265625 511.412109375 236.142578125 514.734375 238.145507812 516.303710938 c 0
 240.028320312 517.778320312 242.9609375 521.073242188 245.409179688 528.421875 c 1
 220.162109375 528.421875 l 2
 209.760742188 528.421875 202.149414062 526.245117188 200.865234375 524.395507812 c 0
 200.626953125 524.052734375 200.020507812 523.040039062 199.517578125 520.862304688 c 0
290.412109375 820.427734375 m 1024
EndSplineSet
EndChar

StartChar: guillemotleft
Encoding: 171 171 108
Width: 531
GlyphClass: 2
Flags: W
LayerCount: 2
Fore
SplineSet
317.392578125 532.060546875 m 1
 275.8359375 352.057617188 l 1
 175.067382812 269.491210938 l 1
 237.711914062 186.924804688 l 1
 196.155273438 6.921875 l 1
 -4.6396484375 269.491210938 l 1
 317.392578125 532.060546875 l 1
531.873046875 531.911132812 m 1
 490.336914062 351.997070312 l 1
 388.782226562 269.491210938 l 1
 452.241210938 186.986328125 l 1
 410.704101562 7.072265625 l 1
 208.868164062 269.491210938 l 1
 531.873046875 531.911132812 l 1
EndSplineSet
EndChar

StartChar: logicalnot
Encoding: 172 172 109
Width: 535
GlyphClass: 2
Flags: MW
HStem: 240.196 144.585<60.3701 315.216 26.9902 504.521>
VStem: 343.762 155.925
LayerCount: 2
Fore
SplineSet
315.215820312 240.196289062 m 1
 26.990234375 240.196289062 l 1
 60.3701171875 384.78125 l 1
 504.520507812 384.78125 l 1
 441.905273438 113.56640625 l 1
 285.98046875 113.56640625 l 1
 315.215820312 240.196289062 l 1
EndSplineSet
EndChar

StartChar: uni00AD
Encoding: 173 173 110
Width: 378
GlyphClass: 2
Flags: MW
HStem: 272.326 148.365<63.9365 329.248 29.6836 363.501>
VStem: 50.8115 299.564
LayerCount: 2
Fore
SplineSet
63.9365234375 420.69140625 m 1
 363.500976562 420.69140625 l 1
 329.248046875 272.326171875 l 1
 29.68359375 272.326171875 l 1
 63.9365234375 420.69140625 l 1
EndSplineSet
EndChar

StartChar: registered
Encoding: 174 174 111
Width: 502
GlyphClass: 2
Flags: MW
HStem: 291.227 77.4893<244.806 280.895 244.806 302.96> 615.36 77.4902<301.716 337.509>
VStem: 64.041 79.3789 379.67 80.3262
LayerCount: 2
Fore
SplineSet
244.78125 291.2265625 m 0
 127.385742188 291.2265625 68.1796875 381.76953125 93.74609375 492.510742188 c 0
 120.409179688 607.999023438 226.052734375 692.850585938 337.502929688 692.850585938 c 0
 455.504882812 692.850585938 515.004882812 602.111328125 489.702148438 492.51171875 c 0
 463.693359375 379.85546875 361.139648438 291.2265625 244.78125 291.2265625 c 0
409.375 492.510742188 m 0
 418.159179688 530.55859375 413.55859375 559.249023438 396.857421875 581.657226562 c 0
 380.102539062 604.138671875 355.405273438 615.360351562 319.612304688 615.360351562 c 0
 283.8203125 615.360351562 253.94140625 604.138671875 226.805664062 581.657226562 c 0
 199.758789062 559.249023438 181.909179688 530.55859375 173.125 492.510742188 c 0
 164.341796875 454.466796875 168.8984375 425.5625 185.596679688 402.806640625 c 0
 202.306640625 380.036132812 226.94140625 368.715820312 262.669921875 368.715820312 c 0
 299.119140625 368.715820312 329.0703125 380.095703125 355.8515625 402.717773438 c 0
 382.770507812 425.45703125 400.578125 454.407226562 409.375 492.510742188 c 0
403.201171875 531.255859375 m 0
 398.17578125 509.487304688 386.087890625 485.369140625 359.251953125 467.318359375 c 1
 383.424804688 373.440429688 l 1
 286.172851562 373.440429688 l 1
 272.728515625 428.655273438 l 1
 259.981445312 373.440429688 l 1
 171.151367188 373.440429688 l 1
 226.56640625 613.470703125 l 1
 329.571289062 613.470703125 l 2
 355.780273438 613.470703125 377.485351562 607.485351562 391.48046875 592.684570312 c 0
 405.752929688 577.5859375 408.821289062 555.600585938 403.201171875 531.255859375 c 0
295.76171875 528.420898438 m 1
 307.1015625 528.420898438 l 2
 310.404296875 528.420898438 312.665039062 528.848632812 313.834960938 529.161132812 c 0
 313.935546875 529.46484375 314.045898438 529.845703125 314.15234375 530.310546875 c 0
 314.263671875 530.791015625 314.331054688 531.18359375 314.370117188 531.493164062 c 0
 313.438476562 531.797851562 311.534179688 532.200195312 307.973632812 532.200195312 c 2
 296.633789062 532.200195312 l 1
 295.76171875 528.420898438 l 1
EndSplineSet
EndChar

StartChar: macron
Encoding: 175 175 112
Width: 507
GlyphClass: 2
Flags: MW
HStem: 557.717 143.64<189.212 462.231 156.051 495.393>
VStem: 111.291 306.181
LayerCount: 2
Fore
SplineSet
189.211914062 701.356445312 m 1
 495.392578125 701.356445312 l 1
 462.231445312 557.716796875 l 1
 156.05078125 557.716796875 l 1
 189.211914062 701.356445312 l 1
EndSplineSet
EndChar

StartChar: degree
Encoding: 176 176 113
Width: 406
GlyphClass: 2
Flags: MW
HStem: 384.781 110.566<237.103 251.729 237.103 265.349> 591.736 110.565<259.355 273.982>
VStem: 55.5352 113.399 259.655 113.4
LayerCount: 2
Fore
SplineSet
414.54296875 543.541992188 m 0
 394.32421875 455.966796875 311.568359375 384.78125 219.129882812 384.78125 c 0
 174.8203125 384.78125 139.624023438 400.067382812 116.381835938 430.286132812 c 0
 93.138671875 460.505859375 86.7919921875 499.231445312 97.0224609375 543.541992188 c 0
 118.362304688 635.9765625 204.857421875 702.301757812 292.435546875 702.301757812 c 0
 381.677734375 702.301757812 435.14453125 632.78125 414.54296875 543.541992188 c 0
301.141601562 543.541015625 m 0
 304.655273438 558.7578125 302.779296875 569.489257812 296.260742188 578.53515625 c 0
 289.817382812 587.481445312 281.055664062 591.736328125 266.908203125 591.736328125 c 0
 251.802734375 591.736328125 240.991210938 587.385742188 231.108398438 579.018554688 c 0
 221.069335938 570.515625 214.147460938 559.682617188 210.420898438 543.541015625 c 0
 206.693359375 527.395507812 208.616210938 516.5625 214.727539062 508.06640625 c 0
 220.745117188 499.698242188 229.549804688 495.34765625 244.655273438 495.34765625 c 0
 258.802734375 495.34765625 269.526367188 499.600585938 280.1015625 508.546875 c 0
 290.802734375 517.599609375 297.629882812 528.330078125 301.141601562 543.541015625 c 0
EndSplineSet
EndChar

StartChar: plusminus
Encoding: 177 177 114
Width: 535
GlyphClass: 2
Flags: MW
HStem: -33.8535 147.42<-4.13477 410.706 -38.1689 444.74> 265.711 147.42<65.0254 182.191 30.9912 216.226 363.646 479.866 65.0254 329.611>
VStem: 204.847 147.42
LayerCount: 2
Fore
SplineSet
329.611328125 265.7109375 m 1
 294.704101562 114.51171875 l 1
 147.284179688 114.51171875 l 1
 182.19140625 265.7109375 l 1
 30.9912109375 265.7109375 l 1
 65.025390625 413.130859375 l 1
 216.225585938 413.130859375 l 1
 251.1328125 564.331054688 l 1
 398.552734375 564.331054688 l 1
 363.645507812 413.130859375 l 1
 513.900390625 413.130859375 l 1
 479.866210938 265.7109375 l 1
 329.611328125 265.7109375 l 1
-4.134765625 113.56640625 m 1
 444.740234375 113.56640625 l 1
 410.706054688 -33.853515625 l 1
 -38.1689453125 -33.853515625 l 1
 -4.134765625 113.56640625 l 1
EndSplineSet
EndChar

StartChar: uni00B2
Encoding: 178 178 115
Width: 360
GlyphClass: 2
Flags: MW
HStem: 406.517 123.795<272.737 346.998>
VStem: 49.8662 287.28
LayerCount: 2
Fore
SplineSet
128.879882812 718.366210938 m 2
 144.995117188 788.169921875 208.600585938 848.776367188 305.461914062 848.776367188 c 0
 346.499023438 848.776367188 379.162109375 836.625 400.188476562 811.229492188 c 0
 420.745117188 786.401367188 427.41796875 754.852539062 419.212890625 719.311523438 c 2
 416.8125 708.916015625 l 2
 409.639648438 677.84375 394.700195312 646.283203125 350.421875 604.6484375 c 2
 272.737304688 530.311523438 l 1
 375.579101562 530.311523438 l 1
 346.998046875 406.516601562 l 1
 59.7177734375 406.516601562 l 1
 83.361328125 508.92578125 l 1
 255.724609375 675.938476562 l 2
 269.815429688 689.608398438 275.918945312 700.344726562 277.6796875 707.971679688 c 2
 279.20703125 714.5859375 l 2
 282.26171875 727.81640625 276.876953125 727.81640625 272.811523438 727.81640625 c 0
 268.986328125 727.81640625 268.53515625 727.25390625 267.067382812 725.829101562 c 0
 265.182617188 724.000976562 262.583984375 720.356445312 260.815429688 712.696289062 c 2
 254.270507812 684.346679688 l 1
 121.025390625 684.346679688 l 1
 128.879882812 718.366210938 l 2
EndSplineSet
EndChar

StartChar: uni00B3
Encoding: 179 179 116
Width: 355
GlyphClass: 2
Flags: MW
VStem: 43.251 127.575 199.177 133.244
LayerCount: 2
Fore
SplineSet
372.598632812 537.87109375 m 2
 352.698242188 451.673828125 276.897460938 399.901367188 197.106445312 399.901367188 c 0
 153.934570312 399.901367188 120.076171875 409.625976562 98.666015625 431.955078125 c 0
 76.9384765625 454.615234375 71.841796875 487.68359375 80.8115234375 526.534179688 c 2
 88.6650390625 560.553710938 l 1
 216.240234375 560.553710938 l 1
 209.477539062 531.258789062 l 2
 207.7421875 523.744140625 209.286132812 522.913085938 209.88671875 522.399414062 c 0
 210.783203125 521.6328125 214.115234375 519.918945312 221.979492188 519.918945312 c 0
 226.44140625 519.918945312 235.231445312 520.010742188 239.35546875 537.874023438 c 2
 241.318359375 546.37890625 l 2
 245.923828125 566.328125 238.885742188 569.059570312 225.764648438 569.059570312 c 2
 186.07421875 569.059570312 l 1
 213.563476562 688.12890625 l 1
 120.008789062 688.12890625 l 1
 126.772460938 717.423828125 l 2
 135.854492188 756.763671875 156.012695312 790.400390625 187.75 814.305664062 c 0
 219.288085938 838.059570312 257.13671875 848.779296875 298.848632812 848.779296875 c 0
 339.444335938 848.779296875 371.584960938 837.936523438 391.75 814.206054688 c 0
 411.818359375 790.588867188 416.890625 758.369140625 408.309570312 721.203125 c 2
 406.346679688 712.698242188 l 2
 400.379882812 686.853515625 387.08984375 660.413085938 360.797851562 638.809570312 c 1
 371.411132812 626.938476562 386.874023438 599.704101562 374.998046875 548.266601562 c 2
 372.598632812 537.87109375 l 2
252.52734375 689.07421875 m 2
 262.22265625 689.07421875 268.202148438 691.479492188 271.35546875 705.138671875 c 2
 273.1015625 712.69921875 l 2
 274.952148438 720.717773438 274.190429688 724.721679688 273.697265625 725.84375 c 0
 273.407226562 726.505859375 273.575195312 727.819335938 267.141601562 727.819335938 c 0
 260.537109375 727.819335938 257.571289062 726.325195312 257.068359375 726.00390625 c 0
 257.041992188 725.987304688 255.260742188 725.473632812 253.620117188 718.369140625 c 2
 246.857421875 689.07421875 l 1
 252.52734375 689.07421875 l 2
EndSplineSet
EndChar

StartChar: acute
Encoding: 180 180 117
Width: 507
GlyphClass: 2
Flags: MW
HStem: 555.826 165.375<150.795 511.357>
VStem: 106.472 322.383
LayerCount: 2
Fore
SplineSet
323.264648438 721.201171875 m 1
 511.357421875 721.201171875 l 1
 301.584960938 555.826171875 l 1
 150.794921875 555.826171875 l 1
 323.264648438 721.201171875 l 1
EndSplineSet
EndChar

StartChar: uni00B5
Encoding: 181 181 118
Width: 526
GlyphClass: 2
Flags: MW
HStem: -5.50391 143.641<163.571 229.809>
VStem: 59.3164 156.868 331.476 156.87
LayerCount: 2
Fore
SplineSet
179.56640625 205.231445312 m 2
 176.095703125 190.198242188 165.629882812 138.13671875 220.77734375 138.13671875 c 0
 238.83984375 138.13671875 253.098632812 143.623046875 266.686523438 154.8515625 c 0
 279.36328125 165.328125 289.256835938 180.97265625 294.857421875 205.231445312 c 2
 370.125976562 531.255859375 l 1
 526.99609375 531.255859375 l 1
 404.384765625 0.166015625 l 1
 250.349609375 0.166015625 l 1
 254.405273438 17.7333984375 l 1
 228.30859375 2.42578125 200.001953125 -5.50390625 170.604492188 -5.50390625 c 0
 156.537109375 -5.50390625 143.365234375 -3.6748046875 131.239257812 -0.0087890625 c 1
 97.2451171875 -147.25390625 l 1
 -58.6796875 -147.25390625 l 1
 97.966796875 531.255859375 l 1
 254.834960938 531.255859375 l 1
 179.56640625 205.231445312 l 2
EndSplineSet
EndChar

StartChar: paragraph
Encoding: 182 182 119
Width: 645
GlyphClass: 2
Flags: MW
HStem: 671.906 20G<374.141 648.19 648.19 648.19>
VStem: 64.041 329.806 250.206 143.641 431.646 140.805
LayerCount: 2
Fore
SplineSet
87.6376953125 466.051757812 m 0xd0
 114.66015625 583.098632812 219.21484375 691.90625 374.140625 691.90625 c 2
 648.190429688 691.90625 l 1
 454.455078125 -147.25390625 l 1
 313.650390625 -147.25390625 l 1
 476.40625 557.716796875 l 1
 438.606445312 557.716796875 l 1
 275.850585938 -147.25390625 l 1
 132.209960938 -147.25390625 l 1
 221.901367188 241.243164062 l 1xb0
 115.604492188 256.94921875 60.1171875 346.848632812 87.6376953125 466.051757812 c 0xd0
EndSplineSet
EndChar

StartChar: periodcentered
Encoding: 183 183 120
Width: 234
GlyphClass: 2
Flags: MW
HStem: 196.727 173.88<45.7578 176.659 5.61426 216.803>
VStem: 44.1963 171.045
LayerCount: 2
Fore
SplineSet
45.7578125 370.606445312 m 1
 216.802734375 370.606445312 l 1
 176.659179688 196.7265625 l 1
 5.6142578125 196.7265625 l 1
 45.7578125 370.606445312 l 1
EndSplineSet
EndChar

StartChar: cedilla
Encoding: 184 184 121
Width: 507
GlyphClass: 2
Flags: MW
HStem: -147.254 199.396<155.458 179.863 28.0137 288.43>
VStem: 146.01 214.382
LayerCount: 2
Fore
SplineSet
155.458007812 52.1416015625 m 1
 288.4296875 52.1416015625 l 1
 179.86328125 -147.25390625 l 1
 28.013671875 -147.25390625 l 1
 155.458007812 52.1416015625 l 1
EndSplineSet
EndChar

StartChar: uni00B9
Encoding: 185 185 122
Width: 271
GlyphClass: 2
Flags: MW
VStem: 99.9512 137.025
LayerCount: 2
Fore
SplineSet
97.7890625 632.819335938 m 1
 132.966796875 785.190429688 l 1
 224.739257812 842.161132812 l 1
 347.405273438 842.161132812 l 1
 246.828125 406.516601562 l 1
 109.802734375 406.516601562 l 1
 172.521484375 678.1796875 l 1
 97.7890625 632.819335938 l 1
EndSplineSet
EndChar

StartChar: ordmasculine
Encoding: 186 186 123
Width: 368
GlyphClass: 2
Flags: MW
VStem: 48.9209 123.796 218.076 124.74
LayerCount: 2
Fore
SplineSet
205.321289062 402.736328125 m 0
 160.188476562 402.736328125 61.23828125 417.194335938 91.4990234375 548.267578125 c 2
 103.934570312 602.131835938 l 2
 114.458984375 647.717773438 135.602539062 685.481445312 169.619140625 710.892578125 c 0
 202.505859375 735.461914062 241.685546875 746.716796875 284.735351562 746.716796875 c 0
 320.75 746.716796875 429.36328125 738.716796875 397.829101562 602.130859375 c 2
 385.393554688 548.266601562 l 2
 374.879882812 502.724609375 353.942382812 464.952148438 320.333007812 439.23046875 c 0
 287.622070312 414.1953125 248.418945312 402.736328125 205.321289062 402.736328125 c 0
230.993164062 518.028320312 m 0
 240.421875 518.028320312 253.672851562 518.028320312 260.654296875 548.268554688 c 2
 272.872070312 601.188476562 l 2
 279.853515625 631.427734375 266.602539062 631.427734375 257.173828125 631.427734375 c 0
 247.745117188 631.427734375 234.494140625 631.427734375 227.512695312 601.188476562 c 2
 215.294921875 548.268554688 l 2
 208.313476562 518.028320312 221.564453125 518.028320312 230.993164062 518.028320312 c 0
290.412109375 820.427734375 m 1024
EndSplineSet
EndChar

StartChar: guillemotright
Encoding: 187 187 124
Width: 531
GlyphClass: 2
Flags: W
LayerCount: 2
Fore
SplineSet
56.58203125 351.997070312 m 1
 98.1181640625 531.911132812 l 1
 299.953125 269.491210938 l 1
 -23.05078125 7.072265625 l 1
 18.486328125 186.986328125 l 1
 120.038085938 269.491210938 l 1
 56.58203125 351.997070312 l 1
271.110351562 352.057617188 m 1
 312.666992188 532.060546875 l 1
 513.4609375 269.491210938 l 1
 191.4296875 6.921875 l 1
 232.986328125 186.924804688 l 1
 333.75390625 269.491210938 l 1
 271.110351562 352.057617188 l 1
EndSplineSet
EndChar

StartChar: onequarter
Encoding: 188 188 125
Width: 798
GlyphClass: 3
Flags: MW
HStem: 0.166016 21G<17.2744 155.245 17.2744 17.2744 537.631 674.655 537.631 537.631> 671.906 21G
VStem: 99.9512 137.025 621.592 137.024
LayerCount: 2
Fore
SplineSet
63.1005859375 482.564453125 m 1
 98.2783203125 634.935546875 l 1
 190.049804688 691.90625 l 1
 312.715820312 691.90625 l 1
 212.139648438 256.26171875 l 1
 75.1142578125 256.26171875 l 1
 137.83203125 527.924804688 l 1
 63.1005859375 482.564453125 l 1
715.670898438 177.826171875 m 1
 741.185546875 177.826171875 l 1
 712.60546875 54.03125 l 1
 687.090820312 54.03125 l 1
 674.655273438 0.166015625 l 1
 537.630859375 0.166015625 l 1
 550.06640625 54.03125 l 1
 396.975585938 54.03125 l 1
 421.901367188 161.998046875 l 1
 600.458984375 435.811523438 l 1
 740.868164062 435.811523438 l 1
 626.862304688 260.986328125 l 1
 734.870117188 260.986328125 l 1
 715.670898438 177.826171875 l 1
578.646484375 177.826171875 m 1
 581.942382812 192.1015625 l 1
 572.6328125 177.826171875 l 1
 578.646484375 177.826171875 l 1
563.876953125 696.630859375 m 1
 702.849609375 696.630859375 l 1
 155.245117188 0.166015625 l 1
 17.2744140625 0.166015625 l 1
 563.876953125 696.630859375 l 1
EndSplineSet
Ligature2: "'frac' Diagonal Fractions lookup 2 subtable" one slash four
EndChar

StartChar: onehalf
Encoding: 189 189 126
Width: 797
GlyphClass: 3
Flags: MW
HStem: 0.166016 123.795<610.789 685.051> 671.906 21G
VStem: 99.9512 137.025 481.731 287.28
LayerCount: 2
Fore
SplineSet
63.1005859375 482.564453125 m 1
 98.2783203125 634.935546875 l 1
 190.049804688 691.90625 l 1
 312.715820312 691.90625 l 1
 212.139648438 256.26171875 l 1
 75.1142578125 256.26171875 l 1
 137.83203125 527.924804688 l 1
 63.1005859375 482.564453125 l 1
466.931640625 312.015625 m 2
 483.04296875 381.803710938 546.63671875 442.426757812 643.513671875 442.426757812 c 0
 684.55078125 442.426757812 717.213867188 430.275390625 738.240234375 404.87890625 c 0
 758.796875 380.051757812 765.469726562 348.501953125 757.264648438 312.9609375 c 2
 754.865234375 302.56640625 l 2
 747.69140625 271.493164062 732.752929688 239.932617188 688.47265625 198.297851562 c 2
 610.7890625 123.9609375 l 1
 713.630859375 123.9609375 l 1
 685.05078125 0.166015625 l 1
 397.770507812 0.166015625 l 1
 421.413085938 102.576171875 l 1
 593.776367188 269.586914062 l 2
 607.865234375 283.254882812 613.969726562 293.990234375 615.731445312 301.620117188 c 2
 617.258789062 308.235351562 l 2
 620.313476562 321.465820312 614.928710938 321.465820312 610.86328125 321.465820312 c 0
 607.022460938 321.465820312 606.568359375 320.88671875 605.118164062 319.478515625 c 0
 603.234375 317.650390625 600.635742188 314.004882812 598.8671875 306.345703125 c 2
 592.322265625 277.995117188 l 1
 459.077148438 277.995117188 l 1
 466.931640625 312.015625 l 2
563.876953125 696.629882812 m 1
 702.849609375 696.629882812 l 1
 155.244140625 0.1640625 l 1
 17.2734375 0.1640625 l 1
 563.876953125 696.629882812 l 1
EndSplineSet
Ligature2: "'frac' Diagonal Fractions lookup 2 subtable" one slash two
EndChar

StartChar: threequarters
Encoding: 190 190 127
Width: 883
GlyphClass: 3
Flags: MW
HStem: 0.166992 21G<100.435 238.404 100.435 100.435 620.79 757.815 620.79 620.79> 678.522 20G<243.303 284.457>
VStem: 43.251 127.575 199.177 133.244 704.751 137.025
LayerCount: 2
Fore
SplineSet
337.909179688 387.616210938 m 2
 318.008789062 301.41796875 242.208007812 249.646484375 162.416992188 249.646484375 c 0
 119.245117188 249.646484375 85.38671875 259.37109375 63.9775390625 281.69921875 c 0
 42.2509765625 304.359375 37.15234375 337.42578125 46.1220703125 376.27734375 c 2
 53.9755859375 410.296875 l 1
 181.55078125 410.296875 l 1
 174.788085938 381.001953125 l 2
 173.052734375 373.487304688 174.596679688 372.65625 175.197265625 372.142578125 c 0
 176.09375 371.375976562 179.42578125 369.662109375 187.290039062 369.662109375 c 0
 191.751953125 369.662109375 200.541015625 369.75390625 204.665039062 387.6171875 c 2
 206.62890625 396.122070312 l 2
 211.234375 416.071289062 204.196289062 418.802734375 191.075195312 418.802734375 c 2
 151.384765625 418.802734375 l 1
 178.874023438 537.872070312 l 1
 85.3193359375 537.872070312 l 1
 92.0830078125 567.166992188 l 2
 101.165039062 606.506835938 121.323242188 640.143554688 153.060546875 664.048828125 c 0
 184.598632812 687.802734375 222.447265625 698.522460938 264.159179688 698.522460938 c 0
 304.754882812 698.522460938 336.895507812 687.6796875 357.060546875 663.94921875 c 0
 377.12890625 640.33203125 382.201171875 608.112304688 373.620117188 570.946289062 c 2
 371.657226562 562.44140625 l 2
 365.690429688 536.596679688 352.400390625 510.15625 326.108398438 488.552734375 c 1
 336.72265625 476.680664062 352.184570312 449.447265625 340.309570312 398.01171875 c 2
 337.909179688 387.616210938 l 2
217.837890625 538.817382812 m 2
 227.533203125 538.817382812 233.512695312 541.22265625 236.666015625 554.881835938 c 2
 238.412109375 562.442382812 l 2
 240.262695312 570.4609375 239.500976562 574.46484375 239.0078125 575.586914062 c 0
 238.717773438 576.249023438 238.885742188 577.5625 232.452148438 577.5625 c 0
 225.84765625 577.5625 222.881835938 576.068359375 222.37890625 575.747070312 c 0
 222.352539062 575.73046875 220.571289062 575.216796875 218.930664062 568.112304688 c 2
 212.16796875 538.817382812 l 1
 217.837890625 538.817382812 l 2
798.831054688 177.827148438 m 1
 824.345703125 177.827148438 l 1
 795.765625 54.0322265625 l 1
 770.250976562 54.0322265625 l 1
 757.815429688 0.1669921875 l 1
 620.790039062 0.1669921875 l 1
 633.225585938 54.0322265625 l 1
 480.135742188 54.0322265625 l 1
 505.061523438 161.999023438 l 1
 683.619140625 435.8125 l 1
 824.028320312 435.8125 l 1
 710.022460938 260.987304688 l 1
 818.030273438 260.987304688 l 1
 798.831054688 177.827148438 l 1
661.805664062 177.827148438 m 1
 665.1015625 192.102539062 l 1
 655.79296875 177.827148438 l 1
 661.805664062 177.827148438 l 1
647.037109375 696.631835938 m 1
 786.009765625 696.631835938 l 1
 238.404296875 0.1669921875 l 1
 100.434570312 0.1669921875 l 1
 647.037109375 696.631835938 l 1
EndSplineSet
Ligature2: "'frac' Diagonal Fractions lookup 2 subtable" three slash four
EndChar

StartChar: questiondown
Encoding: 191 191 128
Width: 460
GlyphClass: 2
Flags: MW
HStem: -156.704 145.531<154.829 155.351> 368.717 162.539<204.752 329.767 167.227 367.292>
VStem: 40.417 160.649 166.102 162.54
LayerCount: 2
Fore
SplineSet
204.751953125 531.255859375 m 1xd0
 367.291992188 531.255859375 l 1
 329.766601562 368.716796875 l 1
 167.2265625 368.716796875 l 1
 204.751953125 531.255859375 l 1xd0
124.359375 -156.704101562 m 0
 -0.716796875 -156.704101562 -61.21875 -76.390625 -36.998046875 28.5205078125 c 0
 -23.14453125 88.5283203125 4.8798828125 129.288085938 54.4892578125 174.717773438 c 2
 107.091796875 222.817382812 l 2
 124.50390625 238.899414062 135.391601562 251.750976562 139.8125 259.217773438 c 0
 144.608398438 267.318359375 149.666015625 280.375 153.69921875 297.844726562 c 2
 164.608398438 345.094726562 l 1
 321.478515625 345.094726562 l 1
 308.606445312 289.33984375 l 2
 293.895507812 225.622070312 276.196289062 199.2265625 226.2109375 153.606445312 c 0
 226.116210938 153.51953125 172.573242188 104.189453125 169.900390625 101.727539062 c 0
 140.172851562 73.7744140625 130.05078125 56.2392578125 125.177734375 35.1318359375 c 0xe0
 114.850585938 -9.59765625 147.919921875 -11.1728515625 161.737304688 -11.1728515625 c 0
 180.952148438 -11.1728515625 191.776367188 -6.0869140625 198.73046875 0.4990234375 c 0
 213.114257812 14.12109375 217.97265625 33.111328125 225.986328125 64.427734375 c 1
 379.958007812 64.427734375 l 1
 374.845703125 44.1533203125 l 2
 359.077148438 -18.384765625 329.83203125 -69.2001953125 285.380859375 -104.725585938 c 0
 240.984375 -140.20703125 186.341796875 -156.704101562 124.359375 -156.704101562 c 0
EndSplineSet
EndChar

StartChar: Agrave
Encoding: 192 192 129
Width: 608
GlyphClass: 2
Flags: MW
HStem: 0.166016 21G<-80.1592 -80.1592 -80.1592 92.9414 367.124 367.124 367.124 541.208> 126.796 142.695<240.318 344.006 240.318 356.669 161.865 344.006> 671.906 20G<325.159 454.288 454.288 454.288>
AnchorPoint: "Anchor-0" 385 672 basechar 0
LayerCount: 2
Fore
SplineSet
-80.1591796875 0.166015625 m 1
 325.159179688 691.90625 l 1
 454.288085938 691.90625 l 1
 541.208007812 0.166015625 l 1
 367.124023438 0.166015625 l 1
 356.668945312 126.795898438 l 1
 161.865234375 126.795898438 l 1
 92.94140625 0.166015625 l 1
 -80.1591796875 0.166015625 l 1
240.318359375 269.491210938 m 1
 344.005859375 269.491210938 l 1
 329.837890625 434.024414062 l 1
 240.318359375 269.491210938 l 1
422.712890625 881.8515625 m 1
 518.823242188 716.4765625 l 1
 368.032226562 716.4765625 l 1
 234.620117188 881.8515625 l 1
 422.712890625 881.8515625 l 1
EndSplineSet
EndChar

StartChar: Aacute
Encoding: 193 193 130
Width: 608
GlyphClass: 2
Flags: MW
HStem: 0.166016 21G<-80.1592 -80.1592 -80.1592 92.9414 367.124 367.124 367.124 541.208> 126.796 142.695<240.318 344.006 240.318 356.669 161.865 344.006> 671.906 20G<325.159 454.288 454.288 454.288>
AnchorPoint: "Anchor-0" 385 672 basechar 0
LayerCount: 2
Fore
SplineSet
-80.1591796875 0.166015625 m 1
 325.159179688 691.90625 l 1
 454.288085938 691.90625 l 1
 541.208007812 0.166015625 l 1
 367.124023438 0.166015625 l 1
 356.668945312 126.795898438 l 1
 161.865234375 126.795898438 l 1
 92.94140625 0.166015625 l 1
 -80.1591796875 0.166015625 l 1
240.318359375 269.491210938 m 1
 344.005859375 269.491210938 l 1
 329.837890625 434.024414062 l 1
 240.318359375 269.491210938 l 1
438.788085938 881.8515625 m 1
 626.880859375 881.8515625 l 1
 417.109375 716.4765625 l 1
 266.319335938 716.4765625 l 1
 438.788085938 881.8515625 l 1
EndSplineSet
EndChar

StartChar: Acircumflex
Encoding: 194 194 131
Width: 608
GlyphClass: 2
Flags: MW
HStem: 0.166016 21G<-80.1592 -80.1592 -80.1592 92.9414 367.124 367.124 367.124 541.208> 126.796 142.695<240.318 344.006 240.318 356.669 161.865 344.006> 671.906 20G<325.159 454.288 454.288 454.288>
AnchorPoint: "Anchor-0" 385 672 basechar 0
LayerCount: 2
Fore
SplineSet
-80.1591796875 0.166015625 m 1
 325.159179688 691.90625 l 1
 454.288085938 691.90625 l 1
 541.208007812 0.166015625 l 1
 367.124023438 0.166015625 l 1
 356.668945312 126.795898438 l 1
 161.865234375 126.795898438 l 1
 92.94140625 0.166015625 l 1
 -80.1591796875 0.166015625 l 1
240.318359375 269.491210938 m 1
 344.005859375 269.491210938 l 1
 329.837890625 434.024414062 l 1
 240.318359375 269.491210938 l 1
382.287109375 888.466796875 m 1
 487.938476562 888.466796875 l 1
 584.733398438 706.081054688 l 1
 443.536132812 706.081054688 l 1
 407.787109375 768.057617188 l 1
 343.419921875 706.081054688 l 1
 201.27734375 706.081054688 l 1
 382.287109375 888.466796875 l 1
EndSplineSet
EndChar

StartChar: Atilde
Encoding: 195 195 132
Width: 608
GlyphClass: 2
Flags: MW
HStem: 0.166016 21G<-80.1592 -80.1592 -80.1592 92.9414 367.124 367.124 367.124 541.208> 126.796 142.695<240.318 344.006 240.318 356.669 161.865 344.006> 671.906 20G<325.159 454.288 454.288 454.288> 711.751 128.521<422.69 493.488> 747.66 128.521<354.195 359.212>
AnchorPoint: "Anchor-0" 385 672 basechar 0
LayerCount: 2
Fore
SplineSet
-80.1591796875 0.166015625 m 1xe0
 325.159179688 691.90625 l 1
 454.288085938 691.90625 l 1
 541.208007812 0.166015625 l 1
 367.124023438 0.166015625 l 1
 356.668945312 126.795898438 l 1
 161.865234375 126.795898438 l 1
 92.94140625 0.166015625 l 1
 -80.1591796875 0.166015625 l 1xe0
240.318359375 269.491210938 m 1
 344.005859375 269.491210938 l 1
 329.837890625 434.024414062 l 1
 240.318359375 269.491210938 l 1
451.486328125 711.750976562 m 0xf0
 393.893554688 711.750976562 376.771484375 747.66015625 341.65234375 747.66015625 c 0
 326.85546875 747.66015625 317.486328125 746.25 274.326171875 715.537109375 c 2
 235.198242188 687.693359375 l 1
 266.647460938 823.916015625 l 1
 304.887695312 854.983398438 333.286132812 876.181640625 375.103515625 876.181640625 c 0xe8
 400.012695312 876.181640625 416.551757812 871.762695312 446.374023438 854.029296875 c 0
 462.625 844.189453125 476.301757812 840.271484375 485.8828125 840.271484375 c 0
 501.09375 840.271484375 511.38671875 842.087890625 551.760742188 872.809570312 c 2
 592.15625 903.547851562 l 1
 559.943359375 764.016601562 l 1
 521.701171875 732.948242188 493.302734375 711.750976562 451.486328125 711.750976562 c 0xf0
EndSplineSet
EndChar

StartChar: Adieresis
Encoding: 196 196 133
Width: 608
GlyphClass: 2
Flags: MW
HStem: 0.166016 21G<-80.1592 -80.1592 -80.1592 92.9414 367.124 367.124 367.124 541.208> 126.796 142.695<240.318 344.006 240.318 356.669 161.865 344.006> 671.906 20G<325.159 454.288 454.288 454.288> 715.531 149.311<268.536 374.87 234.064 409.342 268.536 415.505 449.977 556.31>
VStem: 152.871 140.806 334.312 140.805
AnchorPoint: "Anchor-0" 385 672 basechar 0
LayerCount: 2
Fore
SplineSet
-80.1591796875 0.166015625 m 1
 325.159179688 691.90625 l 1
 454.288085938 691.90625 l 1
 541.208007812 0.166015625 l 1
 367.124023438 0.166015625 l 1
 356.668945312 126.795898438 l 1
 161.865234375 126.795898438 l 1
 92.94140625 0.166015625 l 1
 -80.1591796875 0.166015625 l 1
240.318359375 269.491210938 m 1
 344.005859375 269.491210938 l 1
 329.837890625 434.024414062 l 1
 240.318359375 269.491210938 l 1
268.536132812 864.841796875 m 1
 409.341796875 864.841796875 l 1
 374.870117188 715.53125 l 1
 234.064453125 715.53125 l 1
 268.536132812 864.841796875 l 1
449.9765625 864.841796875 m 1
 590.78125 864.841796875 l 1
 556.309570312 715.53125 l 1
 415.504882812 715.53125 l 1
 449.9765625 864.841796875 l 1
EndSplineSet
EndChar

StartChar: Aring
Encoding: 197 197 134
Width: 608
GlyphClass: 2
Flags: MW
HStem: 0.166016 21G<367.124 541.197 367.124 367.124> 126.797 142.695<240.32 344.008 240.32 356.669 161.866 344.008> 781.683 91.6641<408.024 415.731>
VStem: 198.231 93.5557 339.982 92.6094
AnchorPoint: "Anchor-0" 385 672 basechar 0
LayerCount: 2
Fore
SplineSet
522.94921875 755.221679688 m 0
 518.193359375 734.625 503.393554688 693.706054688 458.223632812 662.700195312 c 1
 541.197265625 0.166015625 l 1
 367.124023438 0.166015625 l 1
 356.668945312 126.796875 l 1
 161.866210938 126.796875 l 1
 92.9423828125 0.1669921875 l 1
 -80.158203125 0.1669921875 l 1
 309.314453125 664.862304688 l 1
 297.2265625 677.580078125 277.432617188 706.901367188 288.588867188 755.221679688 c 0
 304.456054688 823.950195312 367.135742188 873.346679688 433.0390625 873.346679688 c 0
 498.9453125 873.346679688 538.815429688 823.948242188 522.94921875 755.221679688 c 0
382.14453125 755.22265625 m 0
 380.317382812 747.311523438 381.284179688 742.06640625 385.100585938 736.866210938 c 0
 388.95703125 731.608398438 393.1015625 729.708007812 399.87890625 729.708007812 c 0
 407.584960938 729.708007812 412.879882812 731.823242188 418.904296875 736.864257812 c 0
 425.125 742.069335938 428.513671875 747.315429688 430.33984375 755.22265625 c 0
 432.37109375 764.0234375 431.270507812 769.520507812 427.598632812 774.526367188 c 0
 423.90234375 779.567382812 419.583984375 781.682617188 411.877929688 781.682617188 c 0
 404.169921875 781.682617188 399.219726562 779.606445312 393.647460938 774.799804688 c 0
 387.8984375 769.842773438 384.219726562 764.212890625 382.14453125 755.22265625 c 0
240.3203125 269.4921875 m 1
 344.0078125 269.4921875 l 1
 329.838867188 434.025390625 l 1
 240.3203125 269.4921875 l 1
382.352539062 657.887695312 m 1024
EndSplineSet
EndChar

StartChar: AE
Encoding: 198 198 135
Width: 874
GlyphClass: 2
Flags: MW
HStem: 0.166016 147.42<518.744 765.375> 133.411 142.695<286.927 351.042 184.981 383.985> 275.161 147.42<582.231 786.338 548.197 820.372> 544.486 147.42<610.376 891.041 610.376 610.376>
LayerCount: 2
Fore
SplineSet
-83.9541015625 0.166015625 m 1x90
 416.603515625 691.90625 l 1
 925.075195312 691.90625 l 1
 891.041015625 544.486328125 l 1
 610.375976562 544.486328125 l 1
 582.231445312 422.581054688 l 1
 820.372070312 422.581054688 l 1
 786.337890625 275.161132812 l 1
 548.197265625 275.161132812 l 1
 518.744140625 147.5859375 l 1
 799.409179688 147.5859375 l 1
 765.375 0.166015625 l 1
 320.280273438 0.166015625 l 1xb0
 351.041992188 133.411132812 l 1
 184.981445312 133.411132812 l 1x50
 90.904296875 0.166015625 l 1
 -83.9541015625 0.166015625 l 1x90
383.985351562 276.106445312 m 1x50
 430.942382812 479.497070312 l 1
 286.926757812 276.106445312 l 1
 383.985351562 276.106445312 l 1x50
EndSplineSet
EndChar

StartChar: Ccedilla
Encoding: 199 199 136
Width: 603
GlyphClass: 2
Flags: MW
HStem: -147.254 290.115<76.1787 273.154 76.1787 273.154> 552.991 148.365<339.352 373.023>
VStem: 55.5361 164.431 404.241 161.595
LayerCount: 2
Fore
SplineSet
68.87890625 421.63671875 m 2
 88.818359375 508.004882812 150.07421875 701.356445312 392.387695312 701.356445312 c 0
 467.077148438 701.356445312 524.498046875 681.325195312 561.459960938 639.59765625 c 0
 598.8046875 597.438476562 607.91015625 537.896484375 591.10546875 465.106445312 c 2
 584.99609375 438.646484375 l 1
 421.513671875 438.646484375 l 1
 427.404296875 464.161132812 l 2
 434.227539062 493.713867188 430.834960938 514.430664062 419.392578125 529.626953125 c 0
 408.201171875 544.489257812 388.856445312 552.991210938 357.189453125 552.991210938 c 0
 321.513671875 552.991210938 297.665039062 542.526367188 280.12890625 524.290039062 c 0
 261.985351562 505.422851562 244.313476562 469.30078125 231.782226562 415.021484375 c 2
 199.275390625 274.216796875 l 2
 187.518554688 223.29296875 189.172851562 189.42578125 199.1796875 171.081054688 c 0
 208.950195312 153.169921875 228.604492188 142.861328125 264.393554688 142.861328125 c 0
 281.9140625 142.861328125 353.279296875 143.100585938 373.077148438 228.856445312 c 2
 379.404296875 256.26171875 l 1
 540.999023438 256.26171875 l 1
 534.889648438 229.801757812 l 2
 520.459960938 167.296875 492.573242188 114.744140625 450.091796875 74.494140625 c 0
 410.86328125 37.3251953125 362.9921875 12.9482421875 308.564453125 1.0791015625 c 1
 228.0859375 -147.25390625 l 1
 76.1787109375 -147.25390625 l 1
 168.506835938 -3.0498046875 l 1
 67.0419921875 14.521484375 -9.1103515625 83.8291015625 34.408203125 272.326171875 c 2
 68.87890625 421.63671875 l 2
EndSplineSet
EndChar

StartChar: Egrave
Encoding: 200 200 137
Width: 537
GlyphClass: 2
Flags: MW
HStem: 0.166016 147.42<177.6 433.681> 275.161 147.42<241.087 454.643 207.053 488.677> 544.486 147.42<269.231 559.347 269.231 269.231>
VStem: 64.041 163.485
AnchorPoint: "Anchor-0" 352 672 basechar 0
LayerCount: 2
Fore
SplineSet
177.599609375 147.5859375 m 1
 467.71484375 147.5859375 l 1
 433.680664062 0.166015625 l 1
 -19.919921875 0.166015625 l 1
 139.780273438 691.90625 l 1
 593.380859375 691.90625 l 1
 559.346679688 544.486328125 l 1
 269.231445312 544.486328125 l 1
 241.086914062 422.581054688 l 1
 488.676757812 422.581054688 l 1
 454.642578125 275.161132812 l 1
 207.052734375 275.161132812 l 1
 177.599609375 147.5859375 l 1
201.544921875 881.8515625 m 1
 389.638671875 881.8515625 l 1
 485.748046875 716.4765625 l 1
 334.958007812 716.4765625 l 1
 201.544921875 881.8515625 l 1
EndSplineSet
EndChar

StartChar: Eacute
Encoding: 201 201 138
Width: 537
GlyphClass: 2
Flags: MW
HStem: 0.166016 147.42<177.6 433.681> 275.161 147.42<241.087 454.643 207.053 488.677> 544.486 147.42<269.231 559.347 269.231 269.231>
VStem: 64.041 163.485
AnchorPoint: "Anchor-0" 352 672 basechar 0
LayerCount: 2
Fore
SplineSet
177.599609375 147.5859375 m 1
 467.71484375 147.5859375 l 1
 433.680664062 0.166015625 l 1
 -19.919921875 0.166015625 l 1
 139.780273438 691.90625 l 1
 593.380859375 691.90625 l 1
 559.346679688 544.486328125 l 1
 269.231445312 544.486328125 l 1
 241.086914062 422.581054688 l 1
 488.676757812 422.581054688 l 1
 454.642578125 275.161132812 l 1
 207.052734375 275.161132812 l 1
 177.599609375 147.5859375 l 1
405.712890625 881.8515625 m 1
 593.805664062 881.8515625 l 1
 384.034179688 716.4765625 l 1
 233.244140625 716.4765625 l 1
 405.712890625 881.8515625 l 1
EndSplineSet
EndChar

StartChar: Ecircumflex
Encoding: 202 202 139
Width: 537
GlyphClass: 2
Flags: MW
HStem: 0.166016 147.42<177.6 433.681> 275.161 147.42<241.087 454.643 207.053 488.677> 544.486 147.42<269.231 559.347 269.231 269.231>
VStem: 64.041 163.485
AnchorPoint: "Anchor-0" 352 672 basechar 0
LayerCount: 2
Fore
SplineSet
177.599609375 147.5859375 m 1
 467.71484375 147.5859375 l 1
 433.680664062 0.166015625 l 1
 -19.919921875 0.166015625 l 1
 139.780273438 691.90625 l 1
 593.380859375 691.90625 l 1
 559.346679688 544.486328125 l 1
 269.231445312 544.486328125 l 1
 241.086914062 422.581054688 l 1
 488.676757812 422.581054688 l 1
 454.642578125 275.161132812 l 1
 207.052734375 275.161132812 l 1
 177.599609375 147.5859375 l 1
349.212890625 888.466796875 m 1
 454.86328125 888.466796875 l 1
 551.658203125 706.081054688 l 1
 410.4609375 706.081054688 l 1
 374.711914062 768.057617188 l 1
 310.344726562 706.081054688 l 1
 168.203125 706.081054688 l 1
 349.212890625 888.466796875 l 1
EndSplineSet
EndChar

StartChar: Edieresis
Encoding: 203 203 140
Width: 537
GlyphClass: 2
Flags: MW
HStem: 0.166016 147.42<177.6 433.681> 275.161 147.42<241.087 454.643 207.053 488.677> 544.486 147.42<269.231 559.347 269.231 269.231> 715.531 149.311<235.461 341.795 200.989 376.267 235.461 382.43 416.901 523.234>
VStem: 64.041 163.485 119.796 140.806 301.236 140.805
AnchorPoint: "Anchor-0" 352 672 basechar 0
LayerCount: 2
Fore
SplineSet
177.599609375 147.5859375 m 1xfa
 467.71484375 147.5859375 l 1
 433.680664062 0.166015625 l 1
 -19.919921875 0.166015625 l 1
 139.780273438 691.90625 l 1
 593.380859375 691.90625 l 1
 559.346679688 544.486328125 l 1
 269.231445312 544.486328125 l 1
 241.086914062 422.581054688 l 1
 488.676757812 422.581054688 l 1
 454.642578125 275.161132812 l 1
 207.052734375 275.161132812 l 1
 177.599609375 147.5859375 l 1xfa
235.4609375 864.841796875 m 1xf6
 376.266601562 864.841796875 l 1
 341.794921875 715.53125 l 1
 200.989257812 715.53125 l 1
 235.4609375 864.841796875 l 1xf6
416.901367188 864.841796875 m 1
 557.706054688 864.841796875 l 1
 523.234375 715.53125 l 1
 382.4296875 715.53125 l 1
 416.901367188 864.841796875 l 1
EndSplineSet
EndChar

StartChar: Igrave
Encoding: 204 204 141
Width: 278
GlyphClass: 2
Flags: MW
HStem: 0.166016 21G<-14.25 149.235 -14.25 -14.25> 671.906 20G<145.45 308.936 308.936 308.936>
VStem: 69.7109 163.485
AnchorPoint: "Anchor-0" 221 672 basechar 0
LayerCount: 2
Fore
SplineSet
145.450195312 691.90625 m 1
 308.935546875 691.90625 l 1
 149.235351562 0.166015625 l 1
 -14.25 0.166015625 l 1
 145.450195312 691.90625 l 1
71.134765625 881.8515625 m 1
 259.228515625 881.8515625 l 1
 355.337890625 716.4765625 l 1
 204.547851562 716.4765625 l 1
 71.134765625 881.8515625 l 1
EndSplineSet
EndChar

StartChar: Iacute
Encoding: 205 205 142
Width: 278
GlyphClass: 2
Flags: MW
HStem: 0.166016 21G<-14.25 149.235 -14.25 -14.25> 671.906 20G<145.45 308.936 308.936 308.936>
VStem: 69.7109 163.485
AnchorPoint: "Anchor-0" 221 672 basechar 0
LayerCount: 2
Fore
SplineSet
145.450195312 691.90625 m 1
 308.935546875 691.90625 l 1
 149.235351562 0.166015625 l 1
 -14.25 0.166015625 l 1
 145.450195312 691.90625 l 1
275.302734375 881.8515625 m 1
 463.396484375 881.8515625 l 1
 253.624023438 716.4765625 l 1
 102.833984375 716.4765625 l 1
 275.302734375 881.8515625 l 1
EndSplineSet
EndChar

StartChar: Icircumflex
Encoding: 206 206 143
Width: 278
GlyphClass: 2
Flags: MW
HStem: 0.166016 21G<-14.25 149.235 -14.25 -14.25> 671.906 20G<145.45 308.936 308.936 308.936>
VStem: 69.7109 163.485
AnchorPoint: "Anchor-0" 221 672 basechar 0
LayerCount: 2
Fore
SplineSet
145.450195312 691.90625 m 1
 308.935546875 691.90625 l 1
 149.235351562 0.166015625 l 1
 -14.25 0.166015625 l 1
 145.450195312 691.90625 l 1
218.802734375 888.466796875 m 1
 324.453125 888.466796875 l 1
 421.248046875 706.081054688 l 1
 280.05078125 706.081054688 l 1
 244.301757812 768.057617188 l 1
 179.935546875 706.081054688 l 1
 37.79296875 706.081054688 l 1
 218.802734375 888.466796875 l 1
EndSplineSet
EndChar

StartChar: Idieresis
Encoding: 207 207 144
Width: 278
GlyphClass: 2
Flags: MW
HStem: 0.166016 21G<-14.25 149.235 -14.25 -14.25> 671.906 20G<145.45 308.936 308.936 308.936> 715.531 149.311<105.052 211.385 70.5801 245.856 105.052 252.02 286.491 392.824>
VStem: -10.6133 140.805 69.7109 163.485 170.826 140.805
AnchorPoint: "Anchor-0" 221 672 basechar 0
LayerCount: 2
Fore
SplineSet
145.450195312 691.90625 m 1xe8
 308.935546875 691.90625 l 1
 149.235351562 0.166015625 l 1
 -14.25 0.166015625 l 1
 145.450195312 691.90625 l 1xe8
105.051757812 864.841796875 m 1xf0
 245.856445312 864.841796875 l 1
 211.384765625 715.53125 l 1
 70.580078125 715.53125 l 1
 105.051757812 864.841796875 l 1xf0
286.491210938 864.841796875 m 1xe4
 427.295898438 864.841796875 l 1
 392.82421875 715.53125 l 1
 252.01953125 715.53125 l 1
 286.491210938 864.841796875 l 1xe4
EndSplineSet
EndChar

StartChar: Eth
Encoding: 208 208 145
Width: 634
GlyphClass: 2
Flags: MW
HStem: 0.166016 147.42<207.839 256.021> 277.996 148.365<48.2354 74.4619 13.9824 108.715 48.2354 237.946 272.199 349.456> 544.486 147.42<299.471 384.521 299.471 299.471>
VStem: 94.2812 163.484 434.48 163.485
LayerCount: 2
Fore
SplineSet
609.344726562 413.130859375 m 2
 578.583007812 279.88671875 l 2
 556.723632812 185.205078125 518.120117188 112.662109375 458.879882812 66.5654296875 c 0
 401.327148438 21.78125 332.78515625 0.166015625 256.020507812 0.166015625 c 2
 10.3203125 0.166015625 l 1
 74.4619140625 277.99609375 l 1
 13.982421875 277.99609375 l 1
 48.2353515625 426.361328125 l 1
 108.71484375 426.361328125 l 1
 170.020507812 691.90625 l 1
 419.500976562 691.90625 l 2
 495.630859375 691.90625 553.51171875 670.448242188 589.53125 625.87890625 c 0
 626.581054688 580.03515625 631.18359375 507.7265625 609.344726562 413.130859375 c 2
292.888671875 147.5859375 m 2
 338.118164062 147.5859375 388.545898438 164.87890625 415.315429688 280.831054688 c 2
 444.33203125 406.516601562 l 2
 456.700195312 460.086914062 455.581054688 495.994140625 445.875 515.27734375 c 0
 436.333984375 534.233398438 417.895507812 544.486328125 384.520507812 544.486328125 c 2
 299.470703125 544.486328125 l 1
 272.19921875 426.361328125 l 1
 383.708984375 426.361328125 l 1
 349.456054688 277.99609375 l 1
 237.946289062 277.99609375 l 1
 207.838867188 147.5859375 l 1
 292.888671875 147.5859375 l 2
EndSplineSet
EndChar

StartChar: Ntilde
Encoding: 209 209 146
Width: 636
GlyphClass: 2
Flags: MW
HStem: 0.166016 21G<-19.9199 143.565 -19.9199 -19.9199 352.411 507.391 352.411 352.411> 671.906 20G<139.78 294.773 294.773 294.773 503.605 667.091 667.091 667.091> 711.751 128.521<435.92 506.718> 747.66 128.521<367.425 372.442>
VStem: 64.041 163.485 427.866 163.485
AnchorPoint: "Anchor-0" 398 672 basechar 0
LayerCount: 2
Fore
SplineSet
667.090820312 691.90625 m 1xcc
 507.390625 0.166015625 l 1
 352.411132812 0.166015625 l 1
 225.379882812 354.545898438 l 1
 143.565429688 0.166015625 l 1
 -19.919921875 0.166015625 l 1
 139.780273438 691.90625 l 1
 294.7734375 691.90625 l 1
 421.606445312 336.727539062 l 1
 503.60546875 691.90625 l 1
 667.090820312 691.90625 l 1xcc
464.716796875 711.750976562 m 0xec
 407.124023438 711.750976562 390.001953125 747.66015625 354.8828125 747.66015625 c 0
 340.0859375 747.66015625 330.715820312 746.25 287.556640625 715.537109375 c 2
 248.427734375 687.693359375 l 1
 279.876953125 823.916015625 l 1
 318.118164062 854.983398438 346.516601562 876.181640625 388.333984375 876.181640625 c 0xdc
 413.243164062 876.181640625 429.782226562 871.762695312 459.603515625 854.029296875 c 0
 475.85546875 844.189453125 489.53125 840.271484375 499.112304688 840.271484375 c 0
 514.323242188 840.271484375 524.616210938 842.087890625 564.990234375 872.809570312 c 2
 605.385742188 903.547851562 l 1
 573.172851562 764.016601562 l 1
 534.931640625 732.948242188 506.532226562 711.750976562 464.716796875 711.750976562 c 0xec
EndSplineSet
EndChar

StartChar: Ograve
Encoding: 210 210 147
Width: 603
GlyphClass: 2
Flags: MW
HStem: -7.39355 150.255<243.603 261.474> 552.991 148.365<338.361 372.931>
VStem: 55.5361 164.43 404.24 163.486
AnchorPoint: "Anchor-0" 382 672 basechar 0
LayerCount: 2
Fore
SplineSet
68.87890625 421.63671875 m 2
 88.5615234375 506.890625 149.3203125 701.356445312 390.49609375 701.356445312 c 0
 466.665039062 701.356445312 524.655273438 679.708007812 560.893554688 634.854492188 c 0
 598.15625 588.731445312 602.916992188 516.267578125 581.069335938 421.63671875 c 2
 546.598632812 272.326171875 l 2
 524.733398438 177.619140625 485.9375 105.037109375 426.358398438 58.955078125 c 0
 368.524414062 14.22265625 299.858398438 -7.3935546875 223.088867188 -7.3935546875 c 0
 96.419921875 -7.3935546875 -17.248046875 48.5791015625 34.408203125 272.326171875 c 2
 68.87890625 421.63671875 l 2
383.548828125 274.216796875 m 2
 416.055664062 415.021484375 l 2
 428.423828125 468.591796875 427.303710938 504.499023438 417.598632812 523.782226562 c 0
 408.05859375 542.73828125 389.618164062 552.991210938 356.243164062 552.991210938 c 0
 320.479492188 552.991210938 296.861328125 542.606445312 279.798828125 524.798828125 c 0
 262.122070312 506.348632812 244.475585938 470.0078125 231.78125 415.021484375 c 2
 199.274414062 274.216796875 l 2
 187.336914062 222.512695312 188.55859375 188.248046875 197.810546875 170.310546875 c 0
 206.692382812 153.090820312 225.6484375 142.861328125 261.557617188 142.861328125 c 0
 295.0859375 142.861328125 318.3046875 152.961914062 336.372070312 171.322265625 c 0
 354.856445312 190.104492188 371.942382812 223.946289062 383.548828125 274.216796875 c 2
231.784179688 881.8515625 m 1
 419.876953125 881.8515625 l 1
 515.987304688 716.4765625 l 1
 365.196289062 716.4765625 l 1
 231.784179688 881.8515625 l 1
EndSplineSet
EndChar

StartChar: Oacute
Encoding: 211 211 148
Width: 603
GlyphClass: 2
Flags: MW
HStem: -7.39355 150.255<243.603 261.474> 552.991 148.365<338.361 372.931>
VStem: 55.5361 164.43 404.24 163.486
AnchorPoint: "Anchor-0" 382 672 basechar 0
LayerCount: 2
Fore
SplineSet
68.87890625 421.63671875 m 2
 88.5615234375 506.890625 149.3203125 701.356445312 390.49609375 701.356445312 c 0
 466.665039062 701.356445312 524.655273438 679.708007812 560.893554688 634.854492188 c 0
 598.15625 588.731445312 602.916992188 516.267578125 581.069335938 421.63671875 c 2
 546.598632812 272.326171875 l 2
 524.733398438 177.619140625 485.9375 105.037109375 426.358398438 58.955078125 c 0
 368.524414062 14.22265625 299.858398438 -7.3935546875 223.088867188 -7.3935546875 c 0
 96.419921875 -7.3935546875 -17.248046875 48.5791015625 34.408203125 272.326171875 c 2
 68.87890625 421.63671875 l 2
383.548828125 274.216796875 m 2
 416.055664062 415.021484375 l 2
 428.423828125 468.591796875 427.303710938 504.499023438 417.598632812 523.782226562 c 0
 408.05859375 542.73828125 389.618164062 552.991210938 356.243164062 552.991210938 c 0
 320.479492188 552.991210938 296.861328125 542.606445312 279.798828125 524.798828125 c 0
 262.122070312 506.348632812 244.475585938 470.0078125 231.78125 415.021484375 c 2
 199.274414062 274.216796875 l 2
 187.336914062 222.512695312 188.55859375 188.248046875 197.810546875 170.310546875 c 0
 206.692382812 153.090820312 225.6484375 142.861328125 261.557617188 142.861328125 c 0
 295.0859375 142.861328125 318.3046875 152.961914062 336.372070312 171.322265625 c 0
 354.856445312 190.104492188 371.942382812 223.946289062 383.548828125 274.216796875 c 2
435.952148438 881.8515625 m 1
 624.044921875 881.8515625 l 1
 414.2734375 716.4765625 l 1
 263.483398438 716.4765625 l 1
 435.952148438 881.8515625 l 1
EndSplineSet
EndChar

StartChar: Ocircumflex
Encoding: 212 212 149
Width: 603
GlyphClass: 2
Flags: MW
HStem: -7.39355 150.255<243.603 261.474> 552.991 148.365<338.361 372.931>
VStem: 55.5361 164.43 404.24 163.486
AnchorPoint: "Anchor-0" 382 672 basechar 0
LayerCount: 2
Fore
SplineSet
68.87890625 421.63671875 m 2
 88.5615234375 506.890625 149.3203125 701.356445312 390.49609375 701.356445312 c 0
 466.665039062 701.356445312 524.655273438 679.708007812 560.893554688 634.854492188 c 0
 598.15625 588.731445312 602.916992188 516.267578125 581.069335938 421.63671875 c 2
 546.598632812 272.326171875 l 2
 524.733398438 177.619140625 485.9375 105.037109375 426.358398438 58.955078125 c 0
 368.524414062 14.22265625 299.858398438 -7.3935546875 223.088867188 -7.3935546875 c 0
 96.419921875 -7.3935546875 -17.248046875 48.5791015625 34.408203125 272.326171875 c 2
 68.87890625 421.63671875 l 2
383.548828125 274.216796875 m 2
 416.055664062 415.021484375 l 2
 428.423828125 468.591796875 427.303710938 504.499023438 417.598632812 523.782226562 c 0
 408.05859375 542.73828125 389.618164062 552.991210938 356.243164062 552.991210938 c 0
 320.479492188 552.991210938 296.861328125 542.606445312 279.798828125 524.798828125 c 0
 262.122070312 506.348632812 244.475585938 470.0078125 231.78125 415.021484375 c 2
 199.274414062 274.216796875 l 2
 187.336914062 222.512695312 188.55859375 188.248046875 197.810546875 170.310546875 c 0
 206.692382812 153.090820312 225.6484375 142.861328125 261.557617188 142.861328125 c 0
 295.0859375 142.861328125 318.3046875 152.961914062 336.372070312 171.322265625 c 0
 354.856445312 190.104492188 371.942382812 223.946289062 383.548828125 274.216796875 c 2
379.451171875 888.466796875 m 1
 485.102539062 888.466796875 l 1
 581.897460938 706.081054688 l 1
 440.700195312 706.081054688 l 1
 404.951171875 768.057617188 l 1
 340.583984375 706.081054688 l 1
 198.44140625 706.081054688 l 1
 379.451171875 888.466796875 l 1
EndSplineSet
EndChar

StartChar: Otilde
Encoding: 213 213 150
Width: 603
GlyphClass: 2
Flags: MW
HStem: -7.39355 150.255<243.603 261.474> 552.991 148.365<338.361 372.931> 711.751 128.521<419.854 490.652> 747.66 128.521<351.359 356.376>
VStem: 55.5361 164.43 404.24 163.486
AnchorPoint: "Anchor-0" 382 672 basechar 0
LayerCount: 2
Fore
SplineSet
68.87890625 421.63671875 m 2xcc
 88.5615234375 506.890625 149.3203125 701.356445312 390.49609375 701.356445312 c 0
 466.665039062 701.356445312 524.655273438 679.708007812 560.893554688 634.854492188 c 0
 598.15625 588.731445312 602.916992188 516.267578125 581.069335938 421.63671875 c 2
 546.598632812 272.326171875 l 2
 524.733398438 177.619140625 485.9375 105.037109375 426.358398438 58.955078125 c 0
 368.524414062 14.22265625 299.858398438 -7.3935546875 223.088867188 -7.3935546875 c 0
 96.419921875 -7.3935546875 -17.248046875 48.5791015625 34.408203125 272.326171875 c 2
 68.87890625 421.63671875 l 2xcc
383.548828125 274.216796875 m 2
 416.055664062 415.021484375 l 2
 428.423828125 468.591796875 427.303710938 504.499023438 417.598632812 523.782226562 c 0
 408.05859375 542.73828125 389.618164062 552.991210938 356.243164062 552.991210938 c 0
 320.479492188 552.991210938 296.861328125 542.606445312 279.798828125 524.798828125 c 0
 262.122070312 506.348632812 244.475585938 470.0078125 231.78125 415.021484375 c 2
 199.274414062 274.216796875 l 2
 187.336914062 222.512695312 188.55859375 188.248046875 197.810546875 170.310546875 c 0
 206.692382812 153.090820312 225.6484375 142.861328125 261.557617188 142.861328125 c 0
 295.0859375 142.861328125 318.3046875 152.961914062 336.372070312 171.322265625 c 0
 354.856445312 190.104492188 371.942382812 223.946289062 383.548828125 274.216796875 c 2
448.650390625 711.750976562 m 0xec
 391.057617188 711.750976562 373.935546875 747.66015625 338.81640625 747.66015625 c 0
 324.01953125 747.66015625 314.650390625 746.25 271.490234375 715.537109375 c 2
 232.362304688 687.693359375 l 1
 263.811523438 823.916015625 l 1
 302.051757812 854.983398438 330.450195312 876.181640625 372.267578125 876.181640625 c 0xdc
 397.176757812 876.181640625 413.715820312 871.762695312 443.538085938 854.029296875 c 0
 459.7890625 844.189453125 473.465820312 840.271484375 483.046875 840.271484375 c 0
 498.2578125 840.271484375 508.55078125 842.087890625 548.924804688 872.809570312 c 2
 589.3203125 903.547851562 l 1
 557.107421875 764.016601562 l 1
 518.865234375 732.948242188 490.466796875 711.750976562 448.650390625 711.750976562 c 0xec
EndSplineSet
EndChar

StartChar: Odieresis
Encoding: 214 214 151
Width: 603
GlyphClass: 2
Flags: MW
HStem: -7.39355 150.255<243.603 261.474> 552.991 148.365<338.361 372.931> 715.531 149.311<265.7 372.034 231.229 406.506 265.7 412.669 447.141 553.474>
VStem: 55.5361 164.43 150.035 140.806 331.476 140.805 404.24 163.486
AnchorPoint: "Anchor-0" 382 672 basechar 0
LayerCount: 2
Fore
SplineSet
68.87890625 421.63671875 m 2xf2
 88.5615234375 506.890625 149.3203125 701.356445312 390.49609375 701.356445312 c 0
 466.665039062 701.356445312 524.655273438 679.708007812 560.893554688 634.854492188 c 0
 598.15625 588.731445312 602.916992188 516.267578125 581.069335938 421.63671875 c 2
 546.598632812 272.326171875 l 2
 524.733398438 177.619140625 485.9375 105.037109375 426.358398438 58.955078125 c 0
 368.524414062 14.22265625 299.858398438 -7.3935546875 223.088867188 -7.3935546875 c 0
 96.419921875 -7.3935546875 -17.248046875 48.5791015625 34.408203125 272.326171875 c 2
 68.87890625 421.63671875 l 2xf2
383.548828125 274.216796875 m 2
 416.055664062 415.021484375 l 2
 428.423828125 468.591796875 427.303710938 504.499023438 417.598632812 523.782226562 c 0
 408.05859375 542.73828125 389.618164062 552.991210938 356.243164062 552.991210938 c 0
 320.479492188 552.991210938 296.861328125 542.606445312 279.798828125 524.798828125 c 0
 262.122070312 506.348632812 244.475585938 470.0078125 231.78125 415.021484375 c 2
 199.274414062 274.216796875 l 2
 187.336914062 222.512695312 188.55859375 188.248046875 197.810546875 170.310546875 c 0
 206.692382812 153.090820312 225.6484375 142.861328125 261.557617188 142.861328125 c 0
 295.0859375 142.861328125 318.3046875 152.961914062 336.372070312 171.322265625 c 0
 354.856445312 190.104492188 371.942382812 223.946289062 383.548828125 274.216796875 c 2
265.700195312 864.841796875 m 1xe8
 406.505859375 864.841796875 l 1
 372.034179688 715.53125 l 1
 231.228515625 715.53125 l 1
 265.700195312 864.841796875 l 1xe8
447.140625 864.841796875 m 1xe4
 587.9453125 864.841796875 l 1
 553.473632812 715.53125 l 1
 412.668945312 715.53125 l 1
 447.140625 864.841796875 l 1xe4
EndSplineSet
EndChar

StartChar: multiply
Encoding: 215 215 152
Width: 535
GlyphClass: 2
Flags: W
LayerCount: 2
Fore
SplineSet
236.259765625 180.892578125 m 1
 96.638671875 67.4599609375 l 1
 20.2626953125 168.467773438 l 1
 158.638671875 280.889648438 l 1
 72.3642578125 394.290039062 l 1
 195.159179688 494.052734375 l 1
 282.596679688 381.59765625 l 1
 421.19921875 494.203125 l 1
 497.576171875 393.1953125 l 1
 359.270507812 280.831054688 l 1
 445.694335938 168.467773438 l 1
 322.60546875 67.400390625 l 1
 236.259765625 180.892578125 l 1
EndSplineSet
EndChar

StartChar: Oslash
Encoding: 216 216 153
Width: 603
GlyphClass: 2
Flags: MW
HStem: -7.39355 150.255<249.456 261.474> 552.99 148.366<338.362 368.085>
VStem: 55.5361 164.431 404.241 163.485
AnchorPoint: "Anchor-0" 382 672 basechar 0
LayerCount: 2
Fore
SplineSet
68.87890625 421.63671875 m 2
 88.5595703125 506.884765625 149.318359375 701.356445312 390.497070312 701.356445312 c 0
 441.407226562 701.356445312 483.76171875 692.393554688 516.600585938 673.54296875 c 1
 550.517578125 715.53125 l 1
 663.678710938 715.53125 l 1
 576.125 608.231445312 l 1
 598.155273438 561.46484375 598.857421875 498.685546875 581.069335938 421.63671875 c 2
 546.598632812 272.326171875 l 2
 524.733398438 177.619140625 485.9375 105.037109375 426.358398438 58.955078125 c 0
 368.524414062 14.22265625 299.858398438 -7.3935546875 223.088867188 -7.3935546875 c 0
 172.692382812 -7.3935546875 130.626953125 1.3447265625 97.7900390625 19.703125 c 1
 66.49609375 -18.7333984375 l 1
 -47.466796875 -18.7333984375 l 1
 37.58984375 85.8505859375 l 1
 16.5908203125 132.176757812 16.525390625 194.8671875 34.408203125 272.326171875 c 2
 68.87890625 421.63671875 l 2
356.244140625 552.990234375 m 0
 320.48046875 552.990234375 296.862304688 542.60546875 279.799804688 524.798828125 c 0
 262.122070312 506.34765625 244.4765625 470.006835938 231.782226562 415.020507812 c 2
 202.530273438 288.31640625 l 1
 406.2734375 538.85546875 l 1
 395.83203125 547.922851562 379.92578125 552.990234375 356.244140625 552.990234375 c 0
261.55859375 142.861328125 m 0
 295.086914062 142.861328125 318.305664062 152.961914062 336.373046875 171.322265625 c 0
 354.857421875 190.104492188 371.943359375 223.946289062 383.549804688 274.216796875 c 2
 414.91015625 410.055664062 l 1
 209.034179688 156.74609375 l 1
 220.489257812 147.828125 237.352539062 142.861328125 261.55859375 142.861328125 c 0
EndSplineSet
EndChar

StartChar: Ugrave
Encoding: 217 217 154
Width: 617
GlyphClass: 2
Flags: MW
HStem: -5.50391 147.421<251.076 281.054 251.076 306.715> 671.907 20G<139.781 303.267 303.267 303.267 483.762 648.191 648.191 648.191>
VStem: 64.042 163.485 408.022 164.43
AnchorPoint: "Anchor-0" 389 672 basechar 0
LayerCount: 2
Fore
SplineSet
232.032226562 -5.50390625 m 0
 86.7216796875 -5.50390625 1.5751953125 93.2705078125 34.4052734375 235.47265625 c 2
 139.78125 691.907226562 l 1
 303.266601562 691.907226562 l 1
 198.763671875 239.251953125 l 2
 190.967773438 205.484375 194.319335938 182.317382812 205.771484375 166.4765625 c 0
 217.30859375 150.518554688 236.084960938 141.916992188 266.067382812 141.916992188 c 0
 296.040039062 141.916992188 319.025390625 150.521484375 338.311523438 166.591796875 c 0
 357.346679688 182.453125 371.477539062 205.549804688 379.258789062 239.251953125 c 2
 483.76171875 691.907226562 l 1
 648.19140625 691.907226562 l 1
 542.815429688 235.47265625 l 2
 510.741210938 96.5419921875 381.3984375 -5.50390625 232.032226562 -5.50390625 c 0
238.401367188 881.8515625 m 1
 426.494140625 881.8515625 l 1
 522.603515625 716.4765625 l 1
 371.813476562 716.4765625 l 1
 238.401367188 881.8515625 l 1
EndSplineSet
EndChar

StartChar: Uacute
Encoding: 218 218 155
Width: 617
GlyphClass: 2
Flags: MW
HStem: -5.50391 147.421<251.076 281.054 251.076 306.715> 671.907 20G<139.781 303.267 303.267 303.267 483.762 648.191 648.191 648.191>
VStem: 64.042 163.485 408.022 164.43
AnchorPoint: "Anchor-0" 389 672 basechar 0
LayerCount: 2
Fore
SplineSet
232.032226562 -5.50390625 m 0
 86.7216796875 -5.50390625 1.5751953125 93.2705078125 34.4052734375 235.47265625 c 2
 139.78125 691.907226562 l 1
 303.266601562 691.907226562 l 1
 198.763671875 239.251953125 l 2
 190.967773438 205.484375 194.319335938 182.317382812 205.771484375 166.4765625 c 0
 217.30859375 150.518554688 236.084960938 141.916992188 266.067382812 141.916992188 c 0
 296.040039062 141.916992188 319.025390625 150.521484375 338.311523438 166.591796875 c 0
 357.346679688 182.453125 371.477539062 205.549804688 379.258789062 239.251953125 c 2
 483.76171875 691.907226562 l 1
 648.19140625 691.907226562 l 1
 542.815429688 235.47265625 l 2
 510.741210938 96.5419921875 381.3984375 -5.50390625 232.032226562 -5.50390625 c 0
442.569335938 881.8515625 m 1
 630.662109375 881.8515625 l 1
 420.890625 716.4765625 l 1
 270.099609375 716.4765625 l 1
 442.569335938 881.8515625 l 1
EndSplineSet
EndChar

StartChar: Ucircumflex
Encoding: 219 219 156
Width: 617
GlyphClass: 2
Flags: MW
HStem: -5.50391 147.421<251.076 281.054 251.076 306.715> 671.907 20G<139.781 303.267 303.267 303.267 483.762 648.191 648.191 648.191>
VStem: 64.042 163.485 408.022 164.43
AnchorPoint: "Anchor-0" 389 672 basechar 0
LayerCount: 2
Fore
SplineSet
232.032226562 -5.50390625 m 0
 86.7216796875 -5.50390625 1.5751953125 93.2705078125 34.4052734375 235.47265625 c 2
 139.78125 691.907226562 l 1
 303.266601562 691.907226562 l 1
 198.763671875 239.251953125 l 2
 190.967773438 205.484375 194.319335938 182.317382812 205.771484375 166.4765625 c 0
 217.30859375 150.518554688 236.084960938 141.916992188 266.067382812 141.916992188 c 0
 296.040039062 141.916992188 319.025390625 150.521484375 338.311523438 166.591796875 c 0
 357.346679688 182.453125 371.477539062 205.549804688 379.258789062 239.251953125 c 2
 483.76171875 691.907226562 l 1
 648.19140625 691.907226562 l 1
 542.815429688 235.47265625 l 2
 510.741210938 96.5419921875 381.3984375 -5.50390625 232.032226562 -5.50390625 c 0
386.068359375 888.466796875 m 1
 491.719726562 888.466796875 l 1
 588.514648438 706.081054688 l 1
 447.317382812 706.081054688 l 1
 411.567382812 768.057617188 l 1
 347.201171875 706.081054688 l 1
 205.05859375 706.081054688 l 1
 386.068359375 888.466796875 l 1
EndSplineSet
EndChar

StartChar: Udieresis
Encoding: 220 220 157
Width: 617
GlyphClass: 2
Flags: MW
HStem: -5.50391 147.421<251.076 281.054 251.076 306.715> 671.907 20G<139.781 303.267 303.267 303.267 483.762 648.191 648.191 648.191> 715.531 149.311<272.317 378.65 237.846 413.122 272.317 419.285 453.757 560.091>
VStem: 64.042 163.485 156.652 140.805 338.092 140.806 408.022 164.43
AnchorPoint: "Anchor-0" 389 672 basechar 0
LayerCount: 2
Fore
SplineSet
232.032226562 -5.50390625 m 0xf2
 86.7216796875 -5.50390625 1.5751953125 93.2705078125 34.4052734375 235.47265625 c 2
 139.78125 691.907226562 l 1
 303.266601562 691.907226562 l 1
 198.763671875 239.251953125 l 2
 190.967773438 205.484375 194.319335938 182.317382812 205.771484375 166.4765625 c 0
 217.30859375 150.518554688 236.084960938 141.916992188 266.067382812 141.916992188 c 0
 296.040039062 141.916992188 319.025390625 150.521484375 338.311523438 166.591796875 c 0
 357.346679688 182.453125 371.477539062 205.549804688 379.258789062 239.251953125 c 2
 483.76171875 691.907226562 l 1
 648.19140625 691.907226562 l 1
 542.815429688 235.47265625 l 2
 510.741210938 96.5419921875 381.3984375 -5.50390625 232.032226562 -5.50390625 c 0xf2
272.317382812 864.841796875 m 1xe8
 413.122070312 864.841796875 l 1
 378.650390625 715.53125 l 1
 237.845703125 715.53125 l 1
 272.317382812 864.841796875 l 1xe8
453.756835938 864.841796875 m 1xe4
 594.5625 864.841796875 l 1
 560.090820312 715.53125 l 1
 419.28515625 715.53125 l 1
 453.756835938 864.841796875 l 1xe4
EndSplineSet
EndChar

StartChar: Yacute
Encoding: 221 221 158
Width: 547
GlyphClass: 2
Flags: MW
HStem: 0.166016 21G<118.051 281.535 118.051 118.051> 671.906 20G<75.7148 255.746 255.746 255.746 462.295 643.307 643.307 643.307>
VStem: 202.012 163.484
AnchorPoint: "Anchor-0" 354 672 basechar 0
LayerCount: 2
Fore
SplineSet
462.294921875 691.90625 m 1
 643.306640625 691.90625 l 1
 347.00390625 283.744140625 l 1
 281.53515625 0.166015625 l 1
 118.05078125 0.166015625 l 1
 183.303710938 282.80859375 l 1
 75.71484375 691.90625 l 1
 255.74609375 691.90625 l 1
 304.744140625 456.810546875 l 1
 462.294921875 691.90625 l 1
407.603515625 881.8515625 m 1
 595.696289062 881.8515625 l 1
 385.923828125 716.4765625 l 1
 235.133789062 716.4765625 l 1
 407.603515625 881.8515625 l 1
EndSplineSet
EndChar

StartChar: Thorn
Encoding: 222 222 159
Width: 571
GlyphClass: 2
Flags: MW
HStem: 0.166016 21G<-19.9199 143.565 -19.9199 -19.9199> 140.972 147.42<210.107 276.242 176.072 304.607> 436.756 147.421<278.395 338.859 244.359 378.564> 671.906 20G<139.78 303.266 303.266 303.266>
VStem: 64.041 163.485 397.626 163.485
LayerCount: 2
Fore
SplineSet
560.0546875 359.266601562 m 0
 545.1015625 294.498046875 511.6796875 240.287109375 459.924804688 200.237304688 c 0
 408.094726562 160.12890625 345.962890625 140.971679688 276.2421875 140.971679688 c 2
 176.072265625 140.971679688 l 1
 143.565429688 0.166015625 l 1
 -19.919921875 0.166015625 l 1
 139.780273438 691.90625 l 1
 303.265625 691.90625 l 1
 278.39453125 584.176757812 l 1
 378.564453125 584.176757812 l 2
 448.359375 584.176757812 501.630859375 564.637695312 534.76171875 523.845703125 c 0
 567.946289062 482.989257812 575.671875 426.911132812 560.0546875 359.266601562 c 0
304.607421875 288.391601562 m 2
 338.8984375 288.391601562 383.018554688 300.572265625 396.569335938 359.266601562 c 0
 404.09375 391.858398438 404.783203125 436.755859375 338.859375 436.755859375 c 2
 244.359375 436.755859375 l 1
 210.107421875 288.391601562 l 1
 304.607421875 288.391601562 l 2
EndSplineSet
EndChar

StartChar: germandbls
Encoding: 223 223 160
Width: 530
GlyphClass: 2
Flags: MW
HStem: -3.61328 137.969<195.335 222.072 163.482 245.422> 342.257 137.025<274.97 284.915 243.335 324.109> 561.497 139.86<319.504 336.337>
VStem: 59.3184 156.87 336.203 155.924 344.708 155.923
LayerCount: 2
Fore
SplineSet
463.802734375 416.458984375 m 1xf8
 496.986328125 382.541992188 494.401367188 336.860351562 470.994140625 235.471679688 c 0
 457.653320312 177.688476562 442.766601562 132.557617188 424.934570312 98.90234375 c 0
 376.427734375 7.353515625 290.872070312 -3.61328125 222.072265625 -3.61328125 c 2
 163.482421875 -3.61328125 l 1
 195.334960938 134.35546875 l 1
 245.421875 134.35546875 l 2
 264.047851562 134.35546875 275.137695312 138.348632812 279.756835938 141.576171875 c 0
 285.293945312 145.4453125 290.932617188 152.088867188 295.668945312 164.953125 c 0
 300.93359375 179.254882812 307.764648438 203.82421875 315.5078125 237.362304688 c 0xf4
 323.075195312 270.140625 327.171875 294.350585938 327.997070312 308.615234375 c 0
 329.243164062 330.1875 321.8046875 342.256835938 284.915039062 342.256835938 c 2
 243.334960938 342.256835938 l 1
 274.969726562 479.282226562 l 1
 324.109375 479.282226562 l 2
 342.061523438 479.282226562 351.576171875 483.745117188 356.274414062 487.875976562 c 0
 361.923828125 492.844726562 368.221679688 502.529296875 372.235351562 519.916992188 c 0
 376.317382812 537.594726562 373.481445312 546.030273438 368.215820312 551 c 0
 362.279296875 556.603515625 348.484375 561.497070312 324.190429688 561.497070312 c 0
 298.543945312 561.497070312 282.1796875 555.474609375 272.509765625 547.770507812 c 0
 262.916015625 540.127929688 253.596679688 525.876953125 247.857421875 501.017578125 c 2
 132.227539062 0.1669921875 l 1
 -24.642578125 0.1669921875 l 1
 88.587890625 490.622070312 l 2
 103.724609375 556.186523438 132.637695312 609.357421875 177.470703125 646.6640625 c 0
 223.112304688 684.64453125 283.474609375 701.357421875 355.534179688 701.357421875 c 0
 420.045898438 701.357421875 469.50390625 687.279296875 501.143554688 656.409179688 c 0
 533.108398438 625.221679688 542.045898438 580.06640625 529.46875 525.5859375 c 0
 515.641601562 465.696289062 486.516601562 434.63671875 463.802734375 416.458984375 c 1xf8
EndSplineSet
EndChar

StartChar: agrave
Encoding: 224 224 161
Width: 508
GlyphClass: 2
Flags: MW
HStem: -5.50488 134.19<108.692 207.191> 209.955 120.017<187.395 306.646 222.541 278.937> 407.461 129.466<267.49 285.188>
VStem: 42.3057 153.088 314.464 155.925
AnchorPoint: "Anchor-0" 289 511 basechar 0
LayerCount: 2
Fore
SplineSet
311.009765625 348.87109375 m 2
 321.12890625 392.705078125 304.4296875 407.4609375 265.9453125 407.4609375 c 0
 247.155273438 407.4609375 233.759765625 402.879882812 223.649414062 395.670898438 c 0
 213.58203125 388.491210938 207.666015625 380.155273438 204.588867188 366.826171875 c 2
 199.353515625 344.146484375 l 1
 50.98828125 344.146484375 l 1
 56.4423828125 367.771484375 l 2
 68.2099609375 418.743164062 97.0419921875 461.634765625 141.62890625 492.291015625 c 0
 185.861328125 522.703125 238.19921875 536.926757812 296.78125 536.926757812 c 0
 362.11328125 536.926757812 411.733398438 521.598632812 442.217773438 488.059570312 c 0
 473.060546875 454.125976562 479.735351562 404.326171875 465.623046875 343.200195312 c 2
 386.426757812 0.1650390625 l 1
 233.336914062 0.1650390625 l 1
 237.901367188 19.9365234375 l 1
 213.375976562 5.88671875 183.963867188 -5.5048828125 135.638671875 -5.5048828125 c 0
 81.7451171875 -5.5048828125 40.3154296875 9.1884765625 15.2802734375 40.7841796875 c 0
 -9.68359375 72.2900390625 -14.98046875 115.708007812 -3.0390625 167.431640625 c 0
 17.7607421875 257.526367188 94.94921875 329.971679688 222.541015625 329.971679688 c 2
 306.646484375 329.971679688 l 1
 311.009765625 348.87109375 l 2
150.703125 170.265625 m 0
 146.4609375 151.892578125 144.55859375 128.685546875 193.078125 128.685546875 c 0
 221.3046875 128.685546875 238.86328125 135.395507812 248.844726562 143.807617188 c 0
 259.545898438 152.828125 269.412109375 168.703125 275.4453125 194.834960938 c 2
 278.936523438 209.955078125 l 1
 213.731445312 209.955078125 l 2
 161.05859375 209.955078125 154.08984375 184.9375 150.703125 170.265625 c 0
139.883789062 721.200195312 m 1
 327.9765625 721.200195312 l 1
 424.084960938 555.825195312 l 1
 273.294921875 555.825195312 l 1
 139.883789062 721.200195312 l 1
EndSplineSet
EndChar

StartChar: aacute
Encoding: 225 225 162
Width: 508
GlyphClass: 2
Flags: MW
HStem: -5.50488 134.19<108.692 207.191> 209.955 120.017<187.395 306.646 222.541 278.937> 407.461 129.466<267.49 285.188>
VStem: 42.3057 153.088 314.464 155.925
AnchorPoint: "Anchor-0" 289 511 basechar 0
LayerCount: 2
Fore
SplineSet
311.009765625 348.87109375 m 2
 321.12890625 392.705078125 304.4296875 407.4609375 265.9453125 407.4609375 c 0
 247.155273438 407.4609375 233.759765625 402.879882812 223.649414062 395.670898438 c 0
 213.58203125 388.491210938 207.666015625 380.155273438 204.588867188 366.826171875 c 2
 199.353515625 344.146484375 l 1
 50.98828125 344.146484375 l 1
 56.4423828125 367.771484375 l 2
 68.2099609375 418.743164062 97.0419921875 461.634765625 141.62890625 492.291015625 c 0
 185.861328125 522.703125 238.19921875 536.926757812 296.78125 536.926757812 c 0
 362.11328125 536.926757812 411.733398438 521.598632812 442.217773438 488.059570312 c 0
 473.060546875 454.125976562 479.735351562 404.326171875 465.623046875 343.200195312 c 2
 386.426757812 0.1650390625 l 1
 233.336914062 0.1650390625 l 1
 237.901367188 19.9365234375 l 1
 213.375976562 5.88671875 183.963867188 -5.5048828125 135.638671875 -5.5048828125 c 0
 81.7451171875 -5.5048828125 40.3154296875 9.1884765625 15.2802734375 40.7841796875 c 0
 -9.68359375 72.2900390625 -14.98046875 115.708007812 -3.0390625 167.431640625 c 0
 17.7607421875 257.526367188 94.94921875 329.971679688 222.541015625 329.971679688 c 2
 306.646484375 329.971679688 l 1
 311.009765625 348.87109375 l 2
150.703125 170.265625 m 0
 146.4609375 151.892578125 144.55859375 128.685546875 193.078125 128.685546875 c 0
 221.3046875 128.685546875 238.86328125 135.395507812 248.844726562 143.807617188 c 0
 259.545898438 152.828125 269.412109375 168.703125 275.4453125 194.834960938 c 2
 278.936523438 209.955078125 l 1
 213.731445312 209.955078125 l 2
 161.05859375 209.955078125 154.08984375 184.9375 150.703125 170.265625 c 0
344.051757812 721.200195312 m 1
 532.14453125 721.200195312 l 1
 322.372070312 555.825195312 l 1
 171.581054688 555.825195312 l 1
 344.051757812 721.200195312 l 1
EndSplineSet
EndChar

StartChar: acircumflex
Encoding: 226 226 163
Width: 508
GlyphClass: 2
Flags: MW
HStem: -5.50488 134.19<108.692 207.191> 209.955 120.017<187.395 306.646 222.541 278.937> 407.461 129.466<267.49 285.188>
VStem: 42.3057 153.088 314.464 155.925
AnchorPoint: "Anchor-0" 289 511 basechar 0
LayerCount: 2
Fore
SplineSet
311.009765625 348.87109375 m 2
 321.12890625 392.705078125 304.4296875 407.4609375 265.9453125 407.4609375 c 0
 247.155273438 407.4609375 233.759765625 402.879882812 223.649414062 395.670898438 c 0
 213.58203125 388.491210938 207.666015625 380.155273438 204.588867188 366.826171875 c 2
 199.353515625 344.146484375 l 1
 50.98828125 344.146484375 l 1
 56.4423828125 367.771484375 l 2
 68.2099609375 418.743164062 97.0419921875 461.634765625 141.62890625 492.291015625 c 0
 185.861328125 522.703125 238.19921875 536.926757812 296.78125 536.926757812 c 0
 362.11328125 536.926757812 411.733398438 521.598632812 442.217773438 488.059570312 c 0
 473.060546875 454.125976562 479.735351562 404.326171875 465.623046875 343.200195312 c 2
 386.426757812 0.1650390625 l 1
 233.336914062 0.1650390625 l 1
 237.901367188 19.9365234375 l 1
 213.375976562 5.88671875 183.963867188 -5.5048828125 135.638671875 -5.5048828125 c 0
 81.7451171875 -5.5048828125 40.3154296875 9.1884765625 15.2802734375 40.7841796875 c 0
 -9.68359375 72.2900390625 -14.98046875 115.708007812 -3.0390625 167.431640625 c 0
 17.7607421875 257.526367188 94.94921875 329.971679688 222.541015625 329.971679688 c 2
 306.646484375 329.971679688 l 1
 311.009765625 348.87109375 l 2
150.703125 170.265625 m 0
 146.4609375 151.892578125 144.55859375 128.685546875 193.078125 128.685546875 c 0
 221.3046875 128.685546875 238.86328125 135.395507812 248.844726562 143.807617188 c 0
 259.545898438 152.828125 269.412109375 168.703125 275.4453125 194.834960938 c 2
 278.936523438 209.955078125 l 1
 213.731445312 209.955078125 l 2
 161.05859375 209.955078125 154.08984375 184.9375 150.703125 170.265625 c 0
287.549804688 727.815429688 m 1
 393.201171875 727.815429688 l 1
 489.997070312 545.430664062 l 1
 348.799804688 545.430664062 l 1
 313.049804688 607.407226562 l 1
 248.68359375 545.430664062 l 1
 106.541015625 545.430664062 l 1
 287.549804688 727.815429688 l 1
EndSplineSet
EndChar

StartChar: atilde
Encoding: 227 227 164
Width: 508
GlyphClass: 2
Flags: MW
HStem: -5.50488 134.19<108.692 207.191> 209.955 120.017<187.395 306.646 222.541 278.937> 407.461 129.466<267.49 285.188> 551.102 128.52<327.955 398.752> 587.011 128.521<259.458 264.476>
VStem: 42.3057 153.088 314.464 155.925
AnchorPoint: "Anchor-0" 289 511 basechar 0
LayerCount: 2
Fore
SplineSet
311.009765625 348.87109375 m 2xe6
 321.12890625 392.705078125 304.4296875 407.4609375 265.9453125 407.4609375 c 0
 247.155273438 407.4609375 233.759765625 402.879882812 223.649414062 395.670898438 c 0
 213.58203125 388.491210938 207.666015625 380.155273438 204.588867188 366.826171875 c 2
 199.353515625 344.146484375 l 1
 50.98828125 344.146484375 l 1
 56.4423828125 367.771484375 l 2
 68.2099609375 418.743164062 97.0419921875 461.634765625 141.62890625 492.291015625 c 0
 185.861328125 522.703125 238.19921875 536.926757812 296.78125 536.926757812 c 0
 362.11328125 536.926757812 411.733398438 521.598632812 442.217773438 488.059570312 c 0
 473.060546875 454.125976562 479.735351562 404.326171875 465.623046875 343.200195312 c 2
 386.426757812 0.1650390625 l 1
 233.336914062 0.1650390625 l 1
 237.901367188 19.9365234375 l 1
 213.375976562 5.88671875 183.963867188 -5.5048828125 135.638671875 -5.5048828125 c 0
 81.7451171875 -5.5048828125 40.3154296875 9.1884765625 15.2802734375 40.7841796875 c 0
 -9.68359375 72.2900390625 -14.98046875 115.708007812 -3.0390625 167.431640625 c 0
 17.7607421875 257.526367188 94.94921875 329.971679688 222.541015625 329.971679688 c 2
 306.646484375 329.971679688 l 1
 311.009765625 348.87109375 l 2xe6
150.703125 170.265625 m 0
 146.4609375 151.892578125 144.55859375 128.685546875 193.078125 128.685546875 c 0
 221.3046875 128.685546875 238.86328125 135.395507812 248.844726562 143.807617188 c 0
 259.545898438 152.828125 269.412109375 168.703125 275.4453125 194.834960938 c 2
 278.936523438 209.955078125 l 1
 213.731445312 209.955078125 l 2
 161.05859375 209.955078125 154.08984375 184.9375 150.703125 170.265625 c 0
356.750976562 551.1015625 m 0xf6
 299.158203125 551.1015625 282.03515625 587.010742188 246.916015625 587.010742188 c 0
 232.116210938 587.010742188 222.737304688 585.59375 179.590820312 554.88671875 c 2
 140.459960938 527.038085938 l 1
 171.91015625 663.264648438 l 1
 210.151367188 694.333007812 238.548828125 715.53125 280.3671875 715.53125 c 0xee
 305.203125 715.53125 321.827148438 711.141601562 351.63671875 693.37890625 c 0
 367.889648438 683.5390625 381.56640625 679.62109375 391.146484375 679.62109375 c 0
 406.357421875 679.62109375 416.650390625 681.4375 457.025390625 712.16015625 c 2
 497.419921875 742.897460938 l 1
 465.20703125 603.3671875 l 1
 426.965820312 572.297851562 398.56640625 551.1015625 356.750976562 551.1015625 c 0xf6
EndSplineSet
EndChar

StartChar: adieresis
Encoding: 228 228 165
Width: 508
GlyphClass: 2
Flags: MW
HStem: -5.50488 134.19<108.692 207.191> 209.955 120.017<187.395 306.646 222.541 278.937> 407.461 129.466<267.49 285.188> 554.881 149.31<173.799 280.133 139.328 314.604 173.799 320.768 355.238 461.573>
VStem: 42.3057 153.088 95.2236 140.805 276.663 140.806 314.464 155.925
AnchorPoint: "Anchor-0" 289 511 basechar 0
LayerCount: 2
Fore
SplineSet
311.009765625 348.87109375 m 2xf9
 321.12890625 392.705078125 304.4296875 407.4609375 265.9453125 407.4609375 c 0
 247.155273438 407.4609375 233.759765625 402.879882812 223.649414062 395.670898438 c 0
 213.58203125 388.491210938 207.666015625 380.155273438 204.588867188 366.826171875 c 2
 199.353515625 344.146484375 l 1
 50.98828125 344.146484375 l 1
 56.4423828125 367.771484375 l 2
 68.2099609375 418.743164062 97.0419921875 461.634765625 141.62890625 492.291015625 c 0
 185.861328125 522.703125 238.19921875 536.926757812 296.78125 536.926757812 c 0
 362.11328125 536.926757812 411.733398438 521.598632812 442.217773438 488.059570312 c 0
 473.060546875 454.125976562 479.735351562 404.326171875 465.623046875 343.200195312 c 2
 386.426757812 0.1650390625 l 1
 233.336914062 0.1650390625 l 1
 237.901367188 19.9365234375 l 1
 213.375976562 5.88671875 183.963867188 -5.5048828125 135.638671875 -5.5048828125 c 0
 81.7451171875 -5.5048828125 40.3154296875 9.1884765625 15.2802734375 40.7841796875 c 0
 -9.68359375 72.2900390625 -14.98046875 115.708007812 -3.0390625 167.431640625 c 0
 17.7607421875 257.526367188 94.94921875 329.971679688 222.541015625 329.971679688 c 2
 306.646484375 329.971679688 l 1
 311.009765625 348.87109375 l 2xf9
150.703125 170.265625 m 0
 146.4609375 151.892578125 144.55859375 128.685546875 193.078125 128.685546875 c 0
 221.3046875 128.685546875 238.86328125 135.395507812 248.844726562 143.807617188 c 0
 259.545898438 152.828125 269.412109375 168.703125 275.4453125 194.834960938 c 2
 278.936523438 209.955078125 l 1
 213.731445312 209.955078125 l 2
 161.05859375 209.955078125 154.08984375 184.9375 150.703125 170.265625 c 0
173.798828125 704.190429688 m 1xf4
 314.603515625 704.190429688 l 1
 280.1328125 554.880859375 l 1
 139.328125 554.880859375 l 1
 173.798828125 704.190429688 l 1xf4
355.23828125 704.190429688 m 1xf2
 496.043945312 704.190429688 l 1
 461.573242188 554.880859375 l 1
 320.767578125 554.880859375 l 1
 355.23828125 704.190429688 l 1xf2
EndSplineSet
EndChar

StartChar: aring
Encoding: 229 229 166
Width: 508
GlyphClass: 2
Flags: MW
HStem: -5.50488 134.19<108.692 207.191> 209.955 120.017<187.395 306.646 222.541 278.937> 517.08 19.8467<267.49 325.543> 660.721 91.665<321.504 329.211>
VStem: 42.3057 153.088 139.639 93.5547 281.389 92.6104 314.464 155.925
AnchorPoint: "Anchor-0" 289 511 basechar 0
LayerCount: 2
Fore
SplineSet
311.009765625 348.87109375 m 2xf9
 321.12890625 392.705078125 304.4296875 407.4609375 265.9453125 407.4609375 c 0
 247.155273438 407.4609375 233.759765625 402.879882812 223.649414062 395.670898438 c 0
 213.58203125 388.491210938 207.666015625 380.155273438 204.588867188 366.826171875 c 2
 199.353515625 344.146484375 l 1
 50.98828125 344.146484375 l 1
 56.4423828125 367.771484375 l 2
 68.2099609375 418.743164062 97.0419921875 461.634765625 141.62890625 492.291015625 c 0
 185.861328125 522.703125 238.19921875 536.926757812 296.78125 536.926757812 c 0
 362.11328125 536.926757812 411.733398438 521.598632812 442.217773438 488.059570312 c 0
 473.060546875 454.125976562 479.735351562 404.326171875 465.623046875 343.200195312 c 2
 386.426757812 0.1650390625 l 1
 233.336914062 0.1650390625 l 1
 237.901367188 19.9365234375 l 1
 213.375976562 5.88671875 183.963867188 -5.5048828125 135.638671875 -5.5048828125 c 0
 81.7451171875 -5.5048828125 40.3154296875 9.1884765625 15.2802734375 40.7841796875 c 0
 -9.68359375 72.2900390625 -14.98046875 115.708007812 -3.0390625 167.431640625 c 0
 17.7607421875 257.526367188 94.94921875 329.971679688 222.541015625 329.971679688 c 2
 306.646484375 329.971679688 l 1
 311.009765625 348.87109375 l 2xf9
150.703125 170.265625 m 0
 146.4609375 151.892578125 144.55859375 128.685546875 193.078125 128.685546875 c 0
 221.3046875 128.685546875 238.86328125 135.395507812 248.844726562 143.807617188 c 0
 259.545898438 152.828125 269.412109375 168.703125 275.4453125 194.834960938 c 2
 278.936523438 209.955078125 l 1
 213.731445312 209.955078125 l 2
 161.05859375 209.955078125 154.08984375 184.9375 150.703125 170.265625 c 0
292.196289062 517.080078125 m 0
 225.499023438 517.080078125 186.671875 567.56640625 202.069335938 634.260742188 c 0
 217.936523438 702.989257812 280.6171875 752.385742188 346.520507812 752.385742188 c 0
 412.426757812 752.385742188 452.296875 702.987304688 436.4296875 634.260742188 c 0xf6
 421.03125 567.563476562 358.890625 517.080078125 292.196289062 517.080078125 c 0
343.819335938 634.260742188 m 0
 345.8515625 643.061523438 344.750976562 648.55859375 341.079101562 653.564453125 c 0
 337.3828125 658.60546875 333.064453125 660.720703125 325.358398438 660.720703125 c 0
 317.650390625 660.720703125 312.700195312 658.64453125 307.126953125 653.837890625 c 0
 301.37890625 648.880859375 297.700195312 643.250976562 295.624023438 634.260742188 c 0
 293.797851562 626.349609375 294.764648438 621.104492188 298.581054688 615.90234375 c 0
 302.4375 610.64453125 306.581054688 608.745117188 313.358398438 608.745117188 c 0
 321.064453125 608.745117188 326.359375 610.860351562 332.383789062 615.901367188 c 0
 338.604492188 621.10546875 341.994140625 626.353515625 343.819335938 634.260742188 c 0
EndSplineSet
EndChar

